<?xml version="1.0" encoding="utf-8"?>
<svg xmlns="http://www.w3.org/2000/svg" xmlns:xlink="http://www.w3.org/1999/xlink" width="600" height="400" viewBox="0 0 2400 1600">
<defs>
  <clipPath id="clip140">
    <rect x="0" y="0" width="2400" height="1600"/>
  </clipPath>
</defs>
<path clip-path="url(#clip140)" d="M0 1600 L2400 1600 L2400 8.88178e-14 L0 8.88178e-14  Z" fill="#ffffff" fill-rule="evenodd" fill-opacity="1"/>
<defs>
  <clipPath id="clip141">
    <rect x="480" y="0" width="1681" height="1600"/>
  </clipPath>
</defs>
<path clip-path="url(#clip140)" d="M184.006 1474.16 L2112.76 1474.16 L2112.76 47.2441 L184.006 47.2441  Z" fill="#ffffff" fill-rule="evenodd" fill-opacity="1"/>
<defs>
  <clipPath id="clip142">
    <rect x="184" y="47" width="1930" height="1428"/>
  </clipPath>
</defs>
<polyline clip-path="url(#clip142)" style="stroke:#000000; stroke-linecap:round; stroke-linejoin:round; stroke-width:2; stroke-opacity:0.1; fill:none" points="184.006,47.2441 184.006,1474.16 "/>
<polyline clip-path="url(#clip142)" style="stroke:#000000; stroke-linecap:round; stroke-linejoin:round; stroke-width:2; stroke-opacity:0.1; fill:none" points="1148.38,47.2441 1148.38,1474.16 "/>
<polyline clip-path="url(#clip142)" style="stroke:#000000; stroke-linecap:round; stroke-linejoin:round; stroke-width:2; stroke-opacity:0.1; fill:none" points="2112.76,47.2441 2112.76,1474.16 "/>
<polyline clip-path="url(#clip142)" style="stroke:#000000; stroke-linecap:round; stroke-linejoin:round; stroke-width:2; stroke-opacity:0.1; fill:none" points="184.006,47.2441 184.006,1474.16 "/>
<polyline clip-path="url(#clip142)" style="stroke:#000000; stroke-linecap:round; stroke-linejoin:round; stroke-width:2; stroke-opacity:0.1; fill:none" points="1148.38,47.2441 1148.38,1474.16 "/>
<polyline clip-path="url(#clip142)" style="stroke:#000000; stroke-linecap:round; stroke-linejoin:round; stroke-width:2; stroke-opacity:0.1; fill:none" points="2112.76,47.2441 2112.76,1474.16 "/>
<polyline clip-path="url(#clip140)" style="stroke:#000000; stroke-linecap:round; stroke-linejoin:round; stroke-width:4; stroke-opacity:1; fill:none" points="184.006,1474.16 2112.76,1474.16 "/>
<polyline clip-path="url(#clip140)" style="stroke:#000000; stroke-linecap:round; stroke-linejoin:round; stroke-width:4; stroke-opacity:1; fill:none" points="184.006,47.2441 2112.76,47.2441 "/>
<polyline clip-path="url(#clip140)" style="stroke:#000000; stroke-linecap:round; stroke-linejoin:round; stroke-width:4; stroke-opacity:1; fill:none" points="184.006,1474.16 184.006,1493.06 "/>
<polyline clip-path="url(#clip140)" style="stroke:#000000; stroke-linecap:round; stroke-linejoin:round; stroke-width:4; stroke-opacity:1; fill:none" points="1148.38,1474.16 1148.38,1493.06 "/>
<polyline clip-path="url(#clip140)" style="stroke:#000000; stroke-linecap:round; stroke-linejoin:round; stroke-width:4; stroke-opacity:1; fill:none" points="2112.76,1474.16 2112.76,1493.06 "/>
<polyline clip-path="url(#clip140)" style="stroke:#000000; stroke-linecap:round; stroke-linejoin:round; stroke-width:4; stroke-opacity:1; fill:none" points="184.006,47.2441 184.006,28.3465 "/>
<polyline clip-path="url(#clip140)" style="stroke:#000000; stroke-linecap:round; stroke-linejoin:round; stroke-width:4; stroke-opacity:1; fill:none" points="1148.38,47.2441 1148.38,28.3465 "/>
<polyline clip-path="url(#clip140)" style="stroke:#000000; stroke-linecap:round; stroke-linejoin:round; stroke-width:4; stroke-opacity:1; fill:none" points="2112.76,47.2441 2112.76,28.3465 "/>
<g clip-path="url(#clip140)">
<text style="fill:#000000; fill-opacity:1; font-family:Arial,Helvetica Neue,Helvetica,sans-serif; font-size:48px; text-anchor:start;" transform="rotate(0, 135.499, 1561.82)" x="135.499" y="1561.82">10</text>
</g>
<g clip-path="url(#clip140)">
<text style="fill:#000000; fill-opacity:1; font-family:Arial,Helvetica Neue,Helvetica,sans-serif; font-size:38px; text-anchor:start;" transform="rotate(0, 189.024, 1534.41)" x="189.024" y="1534.41">−2</text>
</g>
<g clip-path="url(#clip140)">
<text style="fill:#000000; fill-opacity:1; font-family:Arial,Helvetica Neue,Helvetica,sans-serif; font-size:48px; text-anchor:start;" transform="rotate(0, 1099.87, 1561.82)" x="1099.87" y="1561.82">10</text>
</g>
<g clip-path="url(#clip140)">
<text style="fill:#000000; fill-opacity:1; font-family:Arial,Helvetica Neue,Helvetica,sans-serif; font-size:38px; text-anchor:start;" transform="rotate(0, 1153.4, 1534.41)" x="1153.4" y="1534.41">−1</text>
</g>
<g clip-path="url(#clip140)">
<text style="fill:#000000; fill-opacity:1; font-family:Arial,Helvetica Neue,Helvetica,sans-serif; font-size:48px; text-anchor:start;" transform="rotate(0, 2075.12, 1561.82)" x="2075.12" y="1561.82">10</text>
</g>
<g clip-path="url(#clip140)">
<text style="fill:#000000; fill-opacity:1; font-family:Arial,Helvetica Neue,Helvetica,sans-serif; font-size:38px; text-anchor:start;" transform="rotate(0, 2128.65, 1534.41)" x="2128.65" y="1534.41">0</text>
</g>
<polyline clip-path="url(#clip142)" style="stroke:#000000; stroke-linecap:round; stroke-linejoin:round; stroke-width:2; stroke-opacity:0.1; fill:none" points="184.006,47.2441 2112.76,47.2441 "/>
<polyline clip-path="url(#clip142)" style="stroke:#000000; stroke-linecap:round; stroke-linejoin:round; stroke-width:2; stroke-opacity:0.1; fill:none" points="184.006,522.884 2112.76,522.884 "/>
<polyline clip-path="url(#clip142)" style="stroke:#000000; stroke-linecap:round; stroke-linejoin:round; stroke-width:2; stroke-opacity:0.1; fill:none" points="184.006,998.524 2112.76,998.524 "/>
<polyline clip-path="url(#clip142)" style="stroke:#000000; stroke-linecap:round; stroke-linejoin:round; stroke-width:2; stroke-opacity:0.1; fill:none" points="184.006,1474.16 2112.76,1474.16 "/>
<polyline clip-path="url(#clip142)" style="stroke:#000000; stroke-linecap:round; stroke-linejoin:round; stroke-width:2; stroke-opacity:0.1; fill:none" points="184.006,47.2441 2112.76,47.2441 "/>
<polyline clip-path="url(#clip142)" style="stroke:#000000; stroke-linecap:round; stroke-linejoin:round; stroke-width:2; stroke-opacity:0.1; fill:none" points="184.006,522.884 2112.76,522.884 "/>
<polyline clip-path="url(#clip142)" style="stroke:#000000; stroke-linecap:round; stroke-linejoin:round; stroke-width:2; stroke-opacity:0.1; fill:none" points="184.006,998.524 2112.76,998.524 "/>
<polyline clip-path="url(#clip142)" style="stroke:#000000; stroke-linecap:round; stroke-linejoin:round; stroke-width:2; stroke-opacity:0.1; fill:none" points="184.006,1474.16 2112.76,1474.16 "/>
<polyline clip-path="url(#clip140)" style="stroke:#000000; stroke-linecap:round; stroke-linejoin:round; stroke-width:4; stroke-opacity:1; fill:none" points="184.006,47.2441 184.006,1474.16 "/>
<polyline clip-path="url(#clip140)" style="stroke:#000000; stroke-linecap:round; stroke-linejoin:round; stroke-width:4; stroke-opacity:1; fill:none" points="2112.76,47.2441 2112.76,1474.16 "/>
<polyline clip-path="url(#clip140)" style="stroke:#000000; stroke-linecap:round; stroke-linejoin:round; stroke-width:4; stroke-opacity:1; fill:none" points="184.006,47.2441 167.199,47.2441 "/>
<polyline clip-path="url(#clip140)" style="stroke:#000000; stroke-linecap:round; stroke-linejoin:round; stroke-width:4; stroke-opacity:1; fill:none" points="184.006,522.884 167.199,522.884 "/>
<polyline clip-path="url(#clip140)" style="stroke:#000000; stroke-linecap:round; stroke-linejoin:round; stroke-width:4; stroke-opacity:1; fill:none" points="184.006,998.524 167.199,998.524 "/>
<polyline clip-path="url(#clip140)" style="stroke:#000000; stroke-linecap:round; stroke-linejoin:round; stroke-width:4; stroke-opacity:1; fill:none" points="184.006,1474.16 167.199,1474.16 "/>
<polyline clip-path="url(#clip140)" style="stroke:#000000; stroke-linecap:round; stroke-linejoin:round; stroke-width:4; stroke-opacity:1; fill:none" points="2112.76,47.2441 2129.56,47.2441 "/>
<polyline clip-path="url(#clip140)" style="stroke:#000000; stroke-linecap:round; stroke-linejoin:round; stroke-width:4; stroke-opacity:1; fill:none" points="2112.76,522.884 2129.56,522.884 "/>
<polyline clip-path="url(#clip140)" style="stroke:#000000; stroke-linecap:round; stroke-linejoin:round; stroke-width:4; stroke-opacity:1; fill:none" points="2112.76,998.524 2129.56,998.524 "/>
<polyline clip-path="url(#clip140)" style="stroke:#000000; stroke-linecap:round; stroke-linejoin:round; stroke-width:4; stroke-opacity:1; fill:none" points="2112.76,1474.16 2129.56,1474.16 "/>
<g clip-path="url(#clip140)">
<text style="fill:#000000; fill-opacity:1; font-family:Arial,Helvetica Neue,Helvetica,sans-serif; font-size:48px; text-anchor:start;" transform="rotate(0, 32.9921, 70.9717)" x="32.9921" y="70.9717">10</text>
</g>
<g clip-path="url(#clip140)">
<text style="fill:#000000; fill-opacity:1; font-family:Arial,Helvetica Neue,Helvetica,sans-serif; font-size:38px; text-anchor:start;" transform="rotate(0, 86.5168, 43.5613)" x="86.5168" y="43.5613">−2</text>
</g>
<g clip-path="url(#clip140)">
<text style="fill:#000000; fill-opacity:1; font-family:Arial,Helvetica Neue,Helvetica,sans-serif; font-size:48px; text-anchor:start;" transform="rotate(0, 32.9921, 546.612)" x="32.9921" y="546.612">10</text>
</g>
<g clip-path="url(#clip140)">
<text style="fill:#000000; fill-opacity:1; font-family:Arial,Helvetica Neue,Helvetica,sans-serif; font-size:38px; text-anchor:start;" transform="rotate(0, 86.5168, 519.201)" x="86.5168" y="519.201">−1</text>
</g>
<g clip-path="url(#clip140)">
<text style="fill:#000000; fill-opacity:1; font-family:Arial,Helvetica Neue,Helvetica,sans-serif; font-size:48px; text-anchor:start;" transform="rotate(0, 54.7365, 1022.25)" x="54.7365" y="1022.25">10</text>
</g>
<g clip-path="url(#clip140)">
<text style="fill:#000000; fill-opacity:1; font-family:Arial,Helvetica Neue,Helvetica,sans-serif; font-size:38px; text-anchor:start;" transform="rotate(0, 108.261, 994.842)" x="108.261" y="994.842">0</text>
</g>
<g clip-path="url(#clip140)">
<text style="fill:#000000; fill-opacity:1; font-family:Arial,Helvetica Neue,Helvetica,sans-serif; font-size:48px; text-anchor:start;" transform="rotate(0, 54.7365, 1497.89)" x="54.7365" y="1497.89">10</text>
</g>
<g clip-path="url(#clip140)">
<text style="fill:#000000; fill-opacity:1; font-family:Arial,Helvetica Neue,Helvetica,sans-serif; font-size:38px; text-anchor:start;" transform="rotate(0, 108.261, 1470.48)" x="108.261" y="1470.48">1</text>
</g>
<path clip-path="url(#clip142)" d="M184.006 -428.396 L184.006 -428.396 L222.496 -428.396 L260.987 -428.396 L299.478 -428.396 L337.969 -428.396 L376.46 -428.396 L414.951 -428.396 L453.441 -428.396 L491.932 -428.396 L530.423 -428.396 L568.914 -428.396 L607.405 -428.396 L645.895 -428.396 L684.386 -428.396 L722.877 -428.396 L761.368 -428.396 L799.859 -428.396 L838.35 -428.396 L876.84 -428.396 L915.331 -428.396 L953.822 -428.396 L992.313 -428.396 L1030.8 -428.396 L1069.29 -428.396 L1107.79 -428.396 L1146.28 -428.396 L1184.77 -428.396 L1223.26 -428.396 L1261.75 -428.396 L1300.24 -428.396 L1338.73 -428.396 L1377.22 -428.396 L1415.71 -428.396 L1454.2 -428.396 L1492.69 -428.396 L1531.18 -428.396 L1569.68 -428.396 L1608.17 -428.396 L1646.66 -428.396 L1685.15 -428.396 L1723.64 -428.396 L1762.13 -428.396 L1800.62 -428.396 L1839.11 -428.396 L1877.6 -428.396 L1916.09 -428.396 L1954.58 -428.396 L1993.07 -428.396 L2031.56 -428.396 L2070.06 -428.396 L2108.55 -428.396 L2108.55 -428.396 L2108.55 -428.396 L2108.55 -428.396 L2108.55 -389.568 L2108.55 -350.741 L2108.55 -311.913 L2108.55 -273.085 L2108.55 -234.257 L2108.55 -195.429 L2108.55 -156.602 L2108.55 -117.774 L2108.55 -78.9462 L2108.55 -40.1184 L2108.55 -1.29062 L2108.55 37.5372 L2108.55 76.3649 L2108.55 115.193 L2108.55 154.02 L2108.55 192.848 L2108.55 231.676 L2108.55 270.504 L2108.55 309.332 L2108.55 348.159 L2108.55 386.987 L2108.55 425.815 L2108.55 464.643 L2108.55 503.47 L2108.55 542.298 L2108.55 581.126 L2108.55 619.954 L2108.55 658.781 L2108.55 697.609 L2108.55 736.437 L2108.55 775.265 L2108.55 814.093 L2108.55 852.92 L2108.55 891.748 L2108.55 930.576 L2108.55 969.404 L2108.55 1008.23 L2108.55 1047.06 L2108.55 1085.89 L2108.55 1124.71 L2108.55 1163.54 L2108.55 1202.37 L2108.55 1241.2 L2108.55 1280.03 L2108.55 1318.85 L2108.55 1357.68 L2108.55 1396.51 L2108.55 1435.34 L2108.55 1474.16 L2108.55 1474.16 L2108.55 1474.16 L2108.55 1474.16 L2070.06 1474.16 L2031.56 1474.16 L1993.07 1474.16 L1954.58 1474.16 L1916.09 1474.16 L1877.6 1474.16 L1839.11 1474.16 L1800.62 1474.16 L1762.13 1474.16 L1723.64 1474.16 L1685.15 1474.16 L1646.66 1474.16 L1608.17 1474.16 L1569.68 1474.16 L1531.18 1474.16 L1492.69 1474.16 L1454.2 1474.16 L1415.71 1474.16 L1377.22 1474.16 L1338.73 1474.16 L1300.24 1474.16 L1261.75 1474.16 L1223.26 1474.16 L1184.77 1474.16 L1146.28 1474.16 L1107.79 1474.16 L1069.29 1474.16 L1030.8 1474.16 L992.313 1474.16 L953.822 1474.16 L915.331 1474.16 L876.84 1474.16 L838.35 1474.16 L799.859 1474.16 L761.368 1474.16 L722.877 1474.16 L684.386 1474.16 L645.895 1474.16 L607.405 1474.16 L568.914 1474.16 L530.423 1474.16 L491.932 1474.16 L453.441 1474.16 L414.951 1474.16 L376.46 1474.16 L337.969 1474.16 L299.478 1474.16 L260.987 1474.16 L222.496 1474.16 L184.006 1474.16 L184.006 1474.16 L184.006 1474.16 L184.006 1474.16 L184.006 1435.34 L184.006 1396.51 L184.006 1357.68 L184.006 1318.85 L184.006 1280.03 L184.006 1241.2 L184.006 1202.37 L184.006 1163.54 L184.006 1124.71 L184.006 1085.89 L184.006 1047.06 L184.006 1008.23 L184.006 969.404 L184.006 930.576 L184.006 891.748 L184.006 852.92 L184.006 814.093 L184.006 775.265 L184.006 736.437 L184.006 697.609 L184.006 658.781 L184.006 619.954 L184.006 581.126 L184.006 542.298 L184.006 503.47 L184.006 464.643 L184.006 425.815 L184.006 386.987 L184.006 348.159 L184.006 309.332 L184.006 270.504 L184.006 231.676 L184.006 192.848 L184.006 154.02 L184.006 115.193 L184.006 76.3649 L184.006 37.5372 L184.006 -1.29062 L184.006 -40.1184 L184.006 -78.9462 L184.006 -117.774 L184.006 -156.602 L184.006 -195.429 L184.006 -234.257 L184.006 -273.085 L184.006 -311.913 L184.006 -350.741 L184.006 -389.568 L184.006 -428.396 L184.006 -428.396 L184.006 -428.396  Z" fill="#ff0000" fill-rule="evenodd" fill-opacity="1"/>
<path clip-path="url(#clip142)" d="M184.006 -428.396 L184.006 -428.396 L222.496 -428.396 L260.987 -428.396 L299.478 -428.396 L337.969 -428.396 L376.46 -428.396 L414.951 -428.396 L453.441 -428.396 L491.932 -428.396 L530.423 -428.396 L568.914 -428.396 L607.405 -428.396 L645.895 -428.396 L684.386 -428.396 L722.877 -428.396 L761.368 -428.396 L799.859 -428.396 L838.35 -428.396 L876.84 -428.396 L915.331 -428.396 L953.822 -428.396 L992.313 -428.396 L1030.8 -428.396 L1069.29 -428.396 L1107.79 -428.396 L1146.28 -428.396 L1184.77 -428.396 L1223.26 -428.396 L1261.75 -428.396 L1300.24 -428.396 L1338.73 -428.396 L1377.22 -428.396 L1415.71 -428.396 L1454.2 -428.396 L1492.69 -428.396 L1531.18 -428.396 L1569.68 -428.396 L1608.17 -428.396 L1646.66 -428.396 L1685.15 -428.396 L1723.64 -428.396 L1762.13 -428.396 L1800.62 -428.396 L1839.11 -428.396 L1877.6 -428.396 L1916.09 -428.396 L1954.58 -428.396 L1993.07 -428.396 L2031.56 -428.396 L2070.06 -428.396 L2108.55 -428.396 L2108.55 -428.396 L2108.55 -428.396 L2108.55 -428.396 L2108.55 -389.568 L2108.55 -350.741 L2108.55 -311.913 L2108.55 -273.085 L2108.55 -234.257 L2108.55 -195.429 L2108.55 -156.602 L2108.55 -117.774 L2108.55 -78.9462 L2108.55 -40.1184 L2108.55 -1.29062 L2108.55 37.5372 L2108.55 76.3649 L2108.55 115.193 L2108.55 154.02 L2108.55 192.848 L2108.55 231.676 L2108.55 270.504 L2108.55 309.332 L2108.55 348.159 L2108.55 386.987 L2108.55 425.815 L2108.55 464.643 L2108.55 503.47 L2108.55 542.298 L2108.55 581.126 L2108.55 619.954 L2108.55 658.781 L2108.55 697.609 L2108.55 736.437 L2108.55 775.265 L2108.55 814.093 L2108.55 852.92 L2108.55 891.748 L2108.55 930.576 L2108.55 969.404 L2108.55 1008.23 L2108.55 1047.06 L2108.55 1085.89 L2108.55 1124.71 L2108.55 1163.54 L2108.55 1202.37 L2108.55 1241.2 L2108.55 1280.03 L2108.55 1318.85 L2108.55 1357.68 L2108.55 1396.51 L2108.55 1435.34 L2108.55 1474.16 L2108.55 1474.16 L2108.55 1474.16 L2108.55 1474.16 L2070.06 1474.16 L2031.56 1474.16 L1993.07 1474.16 L1954.58 1474.16 L1916.09 1474.16 L1877.6 1474.16 L1839.11 1474.16 L1800.62 1474.16 L1762.13 1474.16 L1723.64 1474.16 L1685.15 1474.16 L1646.66 1474.16 L1608.17 1474.16 L1569.68 1474.16 L1531.18 1474.16 L1492.69 1474.16 L1454.2 1474.16 L1415.71 1474.16 L1377.22 1474.16 L1338.73 1474.16 L1300.24 1474.16 L1261.75 1474.16 L1223.26 1474.16 L1184.77 1474.16 L1146.28 1474.16 L1107.79 1474.16 L1069.29 1474.16 L1030.8 1474.16 L992.313 1474.16 L953.822 1474.16 L915.331 1474.16 L876.84 1474.16 L838.35 1474.16 L799.859 1474.16 L761.368 1474.16 L722.877 1474.16 L759.739 1474.16 L761.002 1435.34 L761.368 1425.17 L762.317 1396.51 L763.71 1357.68 L765.18 1318.85 L766.671 1280.03 L768.098 1241.2 L769.34 1202.37 L770.232 1163.54 L770.561 1124.71 L770.069 1085.89 L768.461 1047.06 L765.424 1008.23 L761.368 975.358 L760.578 969.404 L752.927 930.576 L742.799 891.748 L730.252 852.92 L722.877 834.527 L714.358 814.093 L695.138 775.265 L684.386 756.336 L672.882 736.437 L648.08 697.609 L645.895 694.673 L619.28 658.781 L607.405 643.953 L588.374 619.954 L568.914 597.174 L555.413 581.126 L530.423 553.452 L520.547 542.298 L491.932 512.049 L483.998 503.47 L453.441 472.364 L446.036 464.643 L414.951 433.912 L406.953 425.815 L376.46 396.311 L367.036 386.987 L337.969 359.261 L326.556 348.159 L299.478 322.526 L285.759 309.332 L260.987 285.919 L244.859 270.504 L222.496 249.284 L204.047 231.676 L184.006 212.487 L184.006 192.848 L184.006 192.848 L184.006 154.02 L184.006 115.193 L184.006 76.3649 L184.006 37.5372 L184.006 -1.29062 L184.006 -40.1184 L184.006 -78.9462 L184.006 -117.774 L184.006 -156.602 L184.006 -195.429 L184.006 -234.257 L184.006 -273.085 L184.006 -311.913 L184.006 -350.741 L184.006 -389.568 L184.006 -428.396 L184.006 -428.396 L184.006 -428.396  Z" fill="#ff1e1e" fill-rule="evenodd" fill-opacity="1"/>
<path clip-path="url(#clip142)" d="M184.006 -428.396 L184.006 -428.396 L222.496 -428.396 L260.987 -428.396 L299.478 -428.396 L337.969 -428.396 L376.46 -428.396 L414.951 -428.396 L453.441 -428.396 L491.932 -428.396 L530.423 -428.396 L568.914 -428.396 L607.405 -428.396 L645.895 -428.396 L684.386 -428.396 L722.877 -428.396 L761.368 -428.396 L799.859 -428.396 L838.35 -428.396 L876.84 -428.396 L915.331 -428.396 L953.822 -428.396 L992.313 -428.396 L1030.8 -428.396 L1069.29 -428.396 L1107.79 -428.396 L1146.28 -428.396 L1184.77 -428.396 L1223.26 -428.396 L1261.75 -428.396 L1300.24 -428.396 L1338.73 -428.396 L1377.22 -428.396 L1415.71 -428.396 L1454.2 -428.396 L1492.69 -428.396 L1531.18 -428.396 L1569.68 -428.396 L1608.17 -428.396 L1646.66 -428.396 L1685.15 -428.396 L1723.64 -428.396 L1762.13 -428.396 L1800.62 -428.396 L1839.11 -428.396 L1877.6 -428.396 L1916.09 -428.396 L1954.58 -428.396 L1993.07 -428.396 L2031.56 -428.396 L2070.06 -428.396 L2108.55 -428.396 L2108.55 -428.396 L2108.55 -428.396 L2108.55 -428.396 L2108.55 -389.568 L2108.55 -350.741 L2108.55 -311.913 L2108.55 -273.085 L2108.55 -234.257 L2108.55 -195.429 L2108.55 -156.602 L2108.55 -117.774 L2108.55 -78.9462 L2108.55 -40.1184 L2108.55 -1.29062 L2108.55 37.5372 L2108.55 76.3649 L2108.55 115.193 L2108.55 154.02 L2108.55 192.848 L2108.55 231.676 L2108.55 270.504 L2108.55 309.332 L2108.55 348.159 L2108.55 386.987 L2108.55 425.815 L2108.55 464.643 L2108.55 503.47 L2108.55 542.298 L2108.55 581.126 L2108.55 619.954 L2108.55 658.781 L2108.55 697.609 L2108.55 736.437 L2108.55 775.265 L2108.55 814.093 L2108.55 852.92 L2108.55 891.748 L2108.55 930.576 L2108.55 969.404 L2108.55 1008.23 L2108.55 1047.06 L2108.55 1085.89 L2108.55 1124.71 L2108.55 1163.54 L2108.55 1202.37 L2108.55 1241.2 L2108.55 1280.03 L2108.55 1318.85 L2108.55 1357.68 L2108.55 1396.51 L2108.55 1435.34 L2108.55 1474.16 L2108.55 1474.16 L2108.55 1474.16 L2108.55 1474.16 L2070.06 1474.16 L2031.56 1474.16 L1993.07 1474.16 L1954.58 1474.16 L1916.09 1474.16 L1877.6 1474.16 L1839.11 1474.16 L1800.62 1474.16 L1762.13 1474.16 L1723.64 1474.16 L1685.15 1474.16 L1646.66 1474.16 L1608.17 1474.16 L1569.68 1474.16 L1531.18 1474.16 L1492.69 1474.16 L1454.2 1474.16 L1415.71 1474.16 L1377.22 1474.16 L1338.73 1474.16 L1300.24 1474.16 L1261.75 1474.16 L1223.26 1474.16 L1184.77 1474.16 L1146.28 1474.16 L1107.79 1474.16 L1133.71 1474.16 L1133.48 1435.34 L1132.89 1396.51 L1131.82 1357.68 L1130.1 1318.85 L1127.55 1280.03 L1123.96 1241.2 L1119.16 1202.37 L1112.95 1163.54 L1107.79 1138.15 L1104.83 1124.71 L1093.95 1085.89 L1081.2 1047.06 L1069.29 1015.49 L1066.4 1008.23 L1047.74 969.404 L1030.8 936.584 L1027.59 930.576 L1003.5 891.748 L992.313 875.071 L977.201 852.92 L953.822 820.678 L949.006 814.093 L918.13 775.265 L915.331 772.034 L884.683 736.437 L876.84 727.809 L849.675 697.609 L838.35 685.638 L813.271 658.781 L799.859 645.057 L775.679 619.954 L761.368 605.67 L737.126 581.126 L722.877 567.155 L697.849 542.298 L684.386 529.246 L658.073 503.47 L645.895 491.723 L618.01 464.643 L607.405 454.405 L577.853 425.815 L568.914 417.135 L537.778 386.987 L530.423 379.769 L497.946 348.159 L491.932 342.167 L458.51 309.332 L453.441 304.184 L419.614 270.504 L414.951 265.657 L381.402 231.676 L376.46 226.4 L344.019 192.848 L337.969 186.192 L307.615 154.02 L299.478 144.765 L272.345 115.193 L260.987 101.793 L238.377 76.3649 L222.496 56.8759 L205.887 37.5372 L184.006 9.52306 L184.006 -1.29062 L184.006 -1.29062 L184.006 -40.1184 L184.006 -78.9462 L184.006 -117.774 L184.006 -156.602 L184.006 -195.429 L184.006 -234.257 L184.006 -273.085 L184.006 -311.913 L184.006 -350.741 L184.006 -389.568 L184.006 -428.396 L184.006 -428.396 L184.006 -428.396  Z" fill="#ff3e3e" fill-rule="evenodd" fill-opacity="1"/>
<path clip-path="url(#clip142)" d="M184.006 -428.396 L184.006 -428.396 L222.496 -428.396 L260.987 -428.396 L299.478 -428.396 L337.969 -428.396 L376.46 -428.396 L414.951 -428.396 L453.441 -428.396 L491.932 -428.396 L530.423 -428.396 L568.914 -428.396 L607.405 -428.396 L645.895 -428.396 L684.386 -428.396 L722.877 -428.396 L761.368 -428.396 L799.859 -428.396 L838.35 -428.396 L876.84 -428.396 L915.331 -428.396 L953.822 -428.396 L992.313 -428.396 L1030.8 -428.396 L1069.29 -428.396 L1107.79 -428.396 L1146.28 -428.396 L1184.77 -428.396 L1223.26 -428.396 L1261.75 -428.396 L1300.24 -428.396 L1338.73 -428.396 L1377.22 -428.396 L1415.71 -428.396 L1454.2 -428.396 L1492.69 -428.396 L1531.18 -428.396 L1569.68 -428.396 L1608.17 -428.396 L1646.66 -428.396 L1685.15 -428.396 L1723.64 -428.396 L1762.13 -428.396 L1800.62 -428.396 L1839.11 -428.396 L1877.6 -428.396 L1916.09 -428.396 L1954.58 -428.396 L1993.07 -428.396 L2031.56 -428.396 L2070.06 -428.396 L2108.55 -428.396 L2108.55 -428.396 L2108.55 -428.396 L2108.55 -428.396 L2108.55 -389.568 L2108.55 -350.741 L2108.55 -311.913 L2108.55 -273.085 L2108.55 -234.257 L2108.55 -195.429 L2108.55 -156.602 L2108.55 -117.774 L2108.55 -78.9462 L2108.55 -40.1184 L2108.55 -1.29062 L2108.55 37.5372 L2108.55 76.3649 L2108.55 115.193 L2108.55 154.02 L2108.55 192.848 L2108.55 231.676 L2108.55 270.504 L2108.55 309.332 L2108.55 348.159 L2108.55 386.987 L2108.55 425.815 L2108.55 464.643 L2108.55 503.47 L2108.55 542.298 L2108.55 581.126 L2108.55 619.954 L2108.55 658.781 L2108.55 697.609 L2108.55 736.437 L2108.55 775.265 L2108.55 814.093 L2108.55 852.92 L2108.55 891.748 L2108.55 930.576 L2108.55 969.404 L2108.55 1008.23 L2108.55 1047.06 L2108.55 1085.89 L2108.55 1124.71 L2108.55 1163.54 L2108.55 1202.37 L2108.55 1241.2 L2108.55 1280.03 L2108.55 1318.85 L2108.55 1357.68 L2108.55 1396.51 L2108.55 1435.34 L2108.55 1474.16 L2108.55 1474.16 L2108.55 1474.16 L2108.55 1474.16 L2070.06 1474.16 L2031.56 1474.16 L1993.07 1474.16 L1954.58 1474.16 L1916.09 1474.16 L1877.6 1474.16 L1839.11 1474.16 L1800.62 1474.16 L1762.13 1474.16 L1723.64 1474.16 L1685.15 1474.16 L1646.66 1474.16 L1608.17 1474.16 L1569.68 1474.16 L1531.18 1474.16 L1492.69 1474.16 L1454.2 1474.16 L1415.71 1474.16 L1377.22 1474.16 L1338.73 1474.16 L1300.24 1474.16 L1317.48 1474.16 L1314.34 1435.34 L1310.56 1396.51 L1306.02 1357.68 L1300.63 1318.85 L1300.24 1316.59 L1293.18 1280.03 L1284.37 1241.2 L1274.26 1202.37 L1262.92 1163.54 L1261.75 1160.23 L1248.09 1124.71 L1231.84 1085.89 L1223.26 1067.59 L1213.01 1047.06 L1191.85 1008.23 L1184.77 996.487 L1167.75 969.404 L1146.28 936.599 L1142.21 930.576 L1113.54 891.748 L1107.79 884.479 L1082.51 852.92 L1069.29 837.151 L1049.87 814.093 L1030.8 792.446 L1015.67 775.265 L992.313 749.846 L980.041 736.437 L953.822 708.884 L943.163 697.609 L915.331 669.156 L905.259 658.781 L876.84 630.317 L866.568 619.954 L838.35 592.077 L827.326 581.126 L799.859 554.193 L787.761 542.298 L761.368 516.462 L748.085 503.47 L722.877 478.702 L708.493 464.643 L684.386 440.749 L669.165 425.815 L645.895 402.44 L630.272 386.987 L607.405 363.607 L591.974 348.159 L568.914 324.066 L554.43 309.332 L530.423 283.603 L517.8 270.504 L491.932 241.966 L482.246 231.676 L453.441 198.855 L447.939 192.848 L415.045 154.02 L414.951 153.9 L382.925 115.193 L376.46 106.549 L352.467 76.3649 L337.969 56.0506 L323.875 37.5372 L299.478 1.61422 L297.367 -1.29062 L271.909 -40.1184 L260.987 -59.0403 L248.59 -78.9462 L227.347 -117.774 L222.496 -127.862 L207.504 -156.602 L189.93 -195.429 L184.006 -210.496 L184.006 -234.257 L184.006 -234.257 L184.006 -273.085 L184.006 -311.913 L184.006 -350.741 L184.006 -389.568 L184.006 -428.396 L184.006 -428.396 L184.006 -428.396  Z" fill="#ff5e5e" fill-rule="evenodd" fill-opacity="1"/>
<path clip-path="url(#clip142)" d="M260.987 -428.396 L299.478 -428.396 L337.969 -428.396 L376.46 -428.396 L414.951 -428.396 L453.441 -428.396 L491.932 -428.396 L530.423 -428.396 L568.914 -428.396 L607.405 -428.396 L645.895 -428.396 L684.386 -428.396 L722.877 -428.396 L761.368 -428.396 L799.859 -428.396 L838.35 -428.396 L876.84 -428.396 L915.331 -428.396 L953.822 -428.396 L992.313 -428.396 L1030.8 -428.396 L1069.29 -428.396 L1107.79 -428.396 L1146.28 -428.396 L1184.77 -428.396 L1223.26 -428.396 L1261.75 -428.396 L1300.24 -428.396 L1338.73 -428.396 L1377.22 -428.396 L1415.71 -428.396 L1454.2 -428.396 L1492.69 -428.396 L1531.18 -428.396 L1569.68 -428.396 L1608.17 -428.396 L1646.66 -428.396 L1685.15 -428.396 L1723.64 -428.396 L1762.13 -428.396 L1800.62 -428.396 L1839.11 -428.396 L1877.6 -428.396 L1916.09 -428.396 L1954.58 -428.396 L1993.07 -428.396 L2031.56 -428.396 L2070.06 -428.396 L2108.55 -428.396 L2108.55 -428.396 L2108.55 -428.396 L2108.55 -428.396 L2108.55 -389.568 L2108.55 -350.741 L2108.55 -311.913 L2108.55 -273.085 L2108.55 -234.257 L2108.55 -195.429 L2108.55 -156.602 L2108.55 -117.774 L2108.55 -78.9462 L2108.55 -40.1184 L2108.55 -1.29062 L2108.55 37.5372 L2108.55 76.3649 L2108.55 115.193 L2108.55 154.02 L2108.55 192.848 L2108.55 231.676 L2108.55 270.504 L2108.55 309.332 L2108.55 348.159 L2108.55 386.987 L2108.55 425.815 L2108.55 464.643 L2108.55 503.47 L2108.55 542.298 L2108.55 581.126 L2108.55 619.954 L2108.55 658.781 L2108.55 697.609 L2108.55 736.437 L2108.55 775.265 L2108.55 814.093 L2108.55 852.92 L2108.55 891.748 L2108.55 930.576 L2108.55 969.404 L2108.55 1008.23 L2108.55 1047.06 L2108.55 1085.89 L2108.55 1124.71 L2108.55 1163.54 L2108.55 1202.37 L2108.55 1241.2 L2108.55 1280.03 L2108.55 1318.85 L2108.55 1357.68 L2108.55 1396.51 L2108.55 1435.34 L2108.55 1474.16 L2108.55 1474.16 L2108.55 1474.16 L2108.55 1474.16 L2070.06 1474.16 L2031.56 1474.16 L1993.07 1474.16 L1954.58 1474.16 L1916.09 1474.16 L1877.6 1474.16 L1839.11 1474.16 L1800.62 1474.16 L1762.13 1474.16 L1723.64 1474.16 L1685.15 1474.16 L1646.66 1474.16 L1608.17 1474.16 L1569.68 1474.16 L1531.18 1474.16 L1492.69 1474.16 L1454.2 1474.16 L1415.71 1474.16 L1423.89 1474.16 L1419.2 1435.34 L1415.71 1410.51 L1413.4 1396.51 L1405.85 1357.68 L1397.32 1318.85 L1387.8 1280.03 L1377.37 1241.2 L1377.22 1240.73 L1363.36 1202.37 L1348.41 1163.54 L1338.73 1140.53 L1331.44 1124.71 L1311.68 1085.89 L1300.24 1064.69 L1290.06 1047.06 L1266.31 1008.23 L1261.75 1001.41 L1239.37 969.404 L1223.26 947.037 L1211.01 930.576 L1184.77 896.501 L1181.02 891.748 L1148.72 852.92 L1146.28 850.133 L1114.35 814.093 L1107.79 806.898 L1078.76 775.265 L1069.29 765.221 L1042.09 736.437 L1030.8 724.746 L1004.55 697.609 L992.313 685.165 L966.32 658.781 L953.822 646.212 L927.622 619.954 L915.331 607.657 L888.655 581.126 L876.84 569.298 L849.616 542.298 L838.35 530.953 L810.687 503.47 L799.859 492.448 L772.045 464.643 L761.368 453.606 L733.857 425.815 L722.877 414.24 L696.287 386.987 L684.386 374.142 L659.499 348.159 L645.895 333.069 L623.658 309.332 L607.405 290.736 L588.936 270.504 L568.914 246.797 L555.512 231.676 L530.423 200.835 L523.574 192.848 L493.161 154.02 L491.932 152.299 L463.677 115.193 L453.441 100.137 L436.145 76.3649 L414.951 43.5419 L410.788 37.5372 L386.686 -1.29062 L376.46 -20.0335 L364.611 -40.1184 L344.537 -78.9462 L337.969 -93.4771 L326.035 -117.774 L309.489 -156.602 L299.478 -183.807 L294.816 -195.429 L281.359 -234.257 L269.851 -273.085 L260.987 -308.124 L259.939 -311.913 L250.771 -350.741 L243.001 -389.568 L236.433 -428.396 L222.496 -428.396 L260.987 -428.396  Z" fill="#ff7e7e" fill-rule="evenodd" fill-opacity="1"/>
<path clip-path="url(#clip142)" d="M337.969 -428.396 L376.46 -428.396 L414.951 -428.396 L453.441 -428.396 L491.932 -428.396 L530.423 -428.396 L568.914 -428.396 L607.405 -428.396 L645.895 -428.396 L684.386 -428.396 L722.877 -428.396 L761.368 -428.396 L799.859 -428.396 L838.35 -428.396 L876.84 -428.396 L915.331 -428.396 L953.822 -428.396 L992.313 -428.396 L1030.8 -428.396 L1069.29 -428.396 L1107.79 -428.396 L1146.28 -428.396 L1184.77 -428.396 L1223.26 -428.396 L1261.75 -428.396 L1300.24 -428.396 L1338.73 -428.396 L1377.22 -428.396 L1415.71 -428.396 L1454.2 -428.396 L1492.69 -428.396 L1531.18 -428.396 L1569.68 -428.396 L1608.17 -428.396 L1646.66 -428.396 L1685.15 -428.396 L1723.64 -428.396 L1762.13 -428.396 L1800.62 -428.396 L1839.11 -428.396 L1877.6 -428.396 L1916.09 -428.396 L1954.58 -428.396 L1993.07 -428.396 L2031.56 -428.396 L2070.06 -428.396 L2108.55 -428.396 L2108.55 -428.396 L2108.55 -428.396 L2108.55 -428.396 L2108.55 -389.568 L2108.55 -350.741 L2108.55 -311.913 L2108.55 -273.085 L2108.55 -234.257 L2108.55 -195.429 L2108.55 -156.602 L2108.55 -117.774 L2108.55 -78.9462 L2108.55 -40.1184 L2108.55 -1.29062 L2108.55 37.5372 L2108.55 76.3649 L2108.55 115.193 L2108.55 154.02 L2108.55 192.848 L2108.55 231.676 L2108.55 270.504 L2108.55 309.332 L2108.55 348.159 L2108.55 386.987 L2108.55 425.815 L2108.55 464.643 L2108.55 503.47 L2108.55 542.298 L2108.55 581.126 L2108.55 619.954 L2108.55 658.781 L2108.55 697.609 L2108.55 736.437 L2108.55 775.265 L2108.55 814.093 L2108.55 852.92 L2108.55 891.748 L2108.55 930.576 L2108.55 969.404 L2108.55 1008.23 L2108.55 1047.06 L2108.55 1085.89 L2108.55 1124.71 L2108.55 1163.54 L2108.55 1202.37 L2108.55 1241.2 L2108.55 1280.03 L2108.55 1318.85 L2108.55 1357.68 L2108.55 1396.51 L2108.55 1435.34 L2108.55 1474.16 L2108.55 1474.16 L2108.55 1474.16 L2108.55 1474.16 L2070.06 1474.16 L2031.56 1474.16 L1993.07 1474.16 L1954.58 1474.16 L1916.09 1474.16 L1877.6 1474.16 L1839.11 1474.16 L1800.62 1474.16 L1762.13 1474.16 L1723.64 1474.16 L1685.15 1474.16 L1646.66 1474.16 L1608.17 1474.16 L1569.68 1474.16 L1531.18 1474.16 L1492.69 1474.16 L1454.2 1474.16 L1492.04 1474.16 L1485.51 1435.34 L1478.14 1396.51 L1469.92 1357.68 L1460.88 1318.85 L1454.2 1293.12 L1450.2 1280.03 L1436.71 1241.2 L1422.54 1202.37 L1415.71 1185.38 L1405.81 1163.54 L1386.97 1124.71 L1377.22 1105.79 L1366.01 1085.89 L1343.2 1047.06 L1338.73 1040.06 L1317.12 1008.23 L1300.24 983.798 L1289.81 969.404 L1261.75 931.594 L1260.97 930.576 L1228.99 891.748 L1223.26 884.975 L1195.54 852.92 L1184.77 840.734 L1160.84 814.093 L1146.28 798.202 L1125.02 775.265 L1107.79 756.995 L1088.23 736.437 L1069.29 716.772 L1050.7 697.609 L1030.8 677.239 L1012.63 658.781 L992.313 638.138 L974.241 619.954 L953.822 599.242 L935.74 581.126 L915.331 560.345 L897.325 542.298 L876.84 521.25 L859.189 503.47 L838.35 481.76 L821.513 464.643 L799.859 441.668 L784.474 425.815 L761.368 400.744 L748.249 386.987 L722.877 358.724 L713.016 348.159 L684.386 315.296 L678.957 309.332 L646.217 270.504 L645.895 270.091 L614.212 231.676 L607.405 222.557 L583.828 192.848 L568.914 171.943 L555.274 154.02 L530.423 117.464 L528.77 115.193 L503.24 76.3649 L491.932 56.8392 L479.872 37.5372 L458.531 -1.29062 L453.441 -11.8208 L438.603 -40.1184 L420.921 -78.9462 L414.951 -94.0254 L404.709 -117.774 L390.248 -156.602 L377.845 -195.429 L376.46 -200.477 L366.323 -234.257 L356.39 -273.085 L347.951 -311.913 L340.801 -350.741 L337.969 -368.925 L334.447 -389.568 L328.862 -428.396 L299.478 -428.396 L337.969 -428.396  Z" fill="#ff9f9f" fill-rule="evenodd" fill-opacity="1"/>
<path clip-path="url(#clip142)" d="M414.951 -428.396 L453.441 -428.396 L491.932 -428.396 L530.423 -428.396 L568.914 -428.396 L607.405 -428.396 L645.895 -428.396 L684.386 -428.396 L722.877 -428.396 L761.368 -428.396 L799.859 -428.396 L838.35 -428.396 L876.84 -428.396 L915.331 -428.396 L953.822 -428.396 L992.313 -428.396 L1030.8 -428.396 L1069.29 -428.396 L1107.79 -428.396 L1146.28 -428.396 L1184.77 -428.396 L1223.26 -428.396 L1261.75 -428.396 L1300.24 -428.396 L1338.73 -428.396 L1377.22 -428.396 L1415.71 -428.396 L1454.2 -428.396 L1492.69 -428.396 L1531.18 -428.396 L1569.68 -428.396 L1608.17 -428.396 L1646.66 -428.396 L1685.15 -428.396 L1723.64 -428.396 L1762.13 -428.396 L1800.62 -428.396 L1839.11 -428.396 L1877.6 -428.396 L1916.09 -428.396 L1954.58 -428.396 L1993.07 -428.396 L2031.56 -428.396 L2070.06 -428.396 L2108.55 -428.396 L2108.55 -428.396 L2108.55 -428.396 L2108.55 -428.396 L2108.55 -389.568 L2108.55 -350.741 L2108.55 -311.913 L2108.55 -273.085 L2108.55 -234.257 L2108.55 -195.429 L2108.55 -156.602 L2108.55 -117.774 L2108.55 -78.9462 L2108.55 -40.1184 L2108.55 -1.29062 L2108.55 37.5372 L2108.55 76.3649 L2108.55 115.193 L2108.55 154.02 L2108.55 192.848 L2108.55 231.676 L2108.55 270.504 L2108.55 309.332 L2108.55 348.159 L2108.55 386.987 L2108.55 425.815 L2108.55 464.643 L2108.55 503.47 L2108.55 542.298 L2108.55 581.126 L2108.55 619.954 L2108.55 658.781 L2108.55 697.609 L2108.55 736.437 L2108.55 775.265 L2108.55 814.093 L2108.55 852.92 L2108.55 891.748 L2108.55 930.576 L2108.55 969.404 L2108.55 1008.23 L2108.55 1047.06 L2108.55 1085.89 L2108.55 1124.71 L2108.55 1163.54 L2108.55 1202.37 L2108.55 1241.2 L2108.55 1280.03 L2108.55 1318.85 L2108.55 1357.68 L2108.55 1396.51 L2108.55 1435.34 L2108.55 1474.16 L2108.55 1474.16 L2108.55 1474.16 L2108.55 1474.16 L2070.06 1474.16 L2031.56 1474.16 L1993.07 1474.16 L1954.58 1474.16 L1916.09 1474.16 L1877.6 1474.16 L1839.11 1474.16 L1800.62 1474.16 L1762.13 1474.16 L1723.64 1474.16 L1685.15 1474.16 L1646.66 1474.16 L1608.17 1474.16 L1569.68 1474.16 L1531.18 1474.16 L1537.76 1474.16 L1532.22 1435.34 L1531.18 1429.16 L1524.27 1396.51 L1515.09 1357.68 L1505.1 1318.85 L1494.43 1280.03 L1492.69 1274.53 L1480.16 1241.2 L1464.85 1202.37 L1454.2 1176.79 L1447.91 1163.54 L1427.91 1124.71 L1415.71 1101.72 L1406.45 1085.89 L1382.73 1047.06 L1377.22 1038.58 L1356.09 1008.23 L1338.73 983.584 L1328.2 969.404 L1300.24 932.388 L1298.81 930.576 L1266.59 891.748 L1261.75 886.044 L1232.86 852.92 L1223.26 842.075 L1197.97 814.093 L1184.77 799.655 L1162.08 775.265 L1146.28 758.415 L1125.36 736.437 L1107.79 718.029 L1088.02 697.609 L1069.29 678.21 L1050.27 658.781 L1030.8 638.706 L1012.33 619.954 L992.313 599.286 L974.394 581.126 L953.822 559.736 L936.674 542.298 L915.331 519.842 L899.359 503.47 L876.84 479.381 L862.636 464.643 L838.35 438.112 L826.69 425.815 L799.859 395.761 L791.707 386.987 L761.368 352.008 L757.878 348.159 L725.088 309.332 L722.877 306.486 L693.271 270.504 L684.386 258.58 L663.072 231.676 L645.895 207.571 L634.702 192.848 L608.282 154.02 L607.405 152.587 L582.757 115.193 L568.914 91.3003 L559.578 76.3649 L538.15 37.5372 L530.423 21.57 L518.42 -1.29062 L500.665 -40.1184 L491.932 -62.1317 L484.667 -78.9462 L470.144 -117.774 L457.69 -156.602 L453.441 -172.036 L446.402 -195.429 L436.427 -234.257 L427.953 -273.085 L420.773 -311.913 L414.951 -349.171 L414.682 -350.741 L409.073 -389.568 L404.358 -428.396 L376.46 -428.396 L414.951 -428.396  Z" fill="#ffbfbf" fill-rule="evenodd" fill-opacity="1"/>
<path clip-path="url(#clip142)" d="M491.932 -428.396 L530.423 -428.396 L568.914 -428.396 L607.405 -428.396 L645.895 -428.396 L684.386 -428.396 L722.877 -428.396 L761.368 -428.396 L799.859 -428.396 L838.35 -428.396 L876.84 -428.396 L915.331 -428.396 L953.822 -428.396 L992.313 -428.396 L1030.8 -428.396 L1069.29 -428.396 L1107.79 -428.396 L1146.28 -428.396 L1184.77 -428.396 L1223.26 -428.396 L1261.75 -428.396 L1300.24 -428.396 L1338.73 -428.396 L1377.22 -428.396 L1415.71 -428.396 L1454.2 -428.396 L1492.69 -428.396 L1531.18 -428.396 L1569.68 -428.396 L1608.17 -428.396 L1646.66 -428.396 L1685.15 -428.396 L1723.64 -428.396 L1762.13 -428.396 L1800.62 -428.396 L1839.11 -428.396 L1877.6 -428.396 L1916.09 -428.396 L1954.58 -428.396 L1993.07 -428.396 L2031.56 -428.396 L2070.06 -428.396 L2108.55 -428.396 L2108.55 -428.396 L2108.55 -428.396 L2108.55 -428.396 L2108.55 -389.568 L2108.55 -350.741 L2108.55 -311.913 L2108.55 -273.085 L2108.55 -234.257 L2108.55 -195.429 L2108.55 -156.602 L2108.55 -117.774 L2108.55 -78.9462 L2108.55 -40.1184 L2108.55 -1.29062 L2108.55 37.5372 L2108.55 76.3649 L2108.55 115.193 L2108.55 154.02 L2108.55 192.848 L2108.55 231.676 L2108.55 270.504 L2108.55 309.332 L2108.55 348.159 L2108.55 386.987 L2108.55 425.815 L2108.55 464.643 L2108.55 503.47 L2108.55 542.298 L2108.55 581.126 L2108.55 619.954 L2108.55 658.781 L2108.55 697.609 L2108.55 736.437 L2108.55 775.265 L2108.55 814.093 L2108.55 852.92 L2108.55 891.748 L2108.55 930.576 L2108.55 969.404 L2108.55 1008.23 L2108.55 1047.06 L2108.55 1085.89 L2108.55 1124.71 L2108.55 1163.54 L2108.55 1202.37 L2108.55 1241.2 L2108.55 1280.03 L2108.55 1318.85 L2108.55 1357.68 L2108.55 1396.51 L2108.55 1435.34 L2108.55 1474.16 L2108.55 1474.16 L2108.55 1474.16 L2108.55 1474.16 L2070.06 1474.16 L2031.56 1474.16 L1993.07 1474.16 L1954.58 1474.16 L1916.09 1474.16 L1877.6 1474.16 L1839.11 1474.16 L1800.62 1474.16 L1762.13 1474.16 L1723.64 1474.16 L1685.15 1474.16 L1646.66 1474.16 L1608.17 1474.16 L1569.68 1474.16 L1572.41 1474.16 L1569.68 1454.83 L1566.05 1435.34 L1557.78 1396.51 L1548.71 1357.68 L1538.93 1318.85 L1531.18 1290.6 L1527.62 1280.03 L1512.97 1241.2 L1498.02 1202.37 L1492.69 1189.73 L1479.89 1163.54 L1460.43 1124.71 L1454.2 1113.1 L1437.92 1085.89 L1415.71 1048.49 L1414.79 1047.06 L1387.55 1008.23 L1377.22 993.646 L1358.98 969.404 L1338.73 942.762 L1329.03 930.576 L1300.24 894.911 L1297.59 891.748 L1264.14 852.92 L1261.75 850.203 L1229.13 814.093 L1223.26 807.609 L1193.25 775.265 L1184.77 766.114 L1156.67 736.437 L1146.28 725.402 L1119.58 697.609 L1107.79 685.19 L1082.19 658.781 L1069.29 645.227 L1044.71 619.954 L1030.8 605.278 L1007.34 581.126 L992.313 565.115 L970.28 542.298 L953.822 524.505 L933.725 503.47 L915.331 483.201 L897.864 464.643 L876.84 440.925 L862.888 425.815 L838.35 397.36 L828.991 386.987 L799.859 352.132 L796.37 348.159 L764.773 309.332 L761.368 304.749 L734.305 270.504 L722.877 254.435 L705.605 231.676 L684.386 200.407 L678.895 192.848 L653.527 154.02 L645.895 140.849 L629.859 115.193 L608.59 76.3649 L607.405 73.9177 L588.286 37.5372 L570.623 -1.29062 L568.914 -5.59262 L553.971 -40.1184 L539.497 -78.9462 L530.423 -107.244 L526.736 -117.774 L515.046 -156.602 L505.081 -195.429 L496.607 -234.257 L491.932 -259.506 L489.179 -273.085 L482.517 -311.913 L476.901 -350.741 L472.178 -389.568 L468.213 -428.396 L453.441 -428.396 L491.932 -428.396  Z" fill="#ffdfdf" fill-rule="evenodd" fill-opacity="1"/>
<path clip-path="url(#clip142)" d="M530.423 -428.396 L568.914 -428.396 L607.405 -428.396 L645.895 -428.396 L684.386 -428.396 L722.877 -428.396 L761.368 -428.396 L799.859 -428.396 L838.35 -428.396 L876.84 -428.396 L915.331 -428.396 L953.822 -428.396 L992.313 -428.396 L1030.8 -428.396 L1069.29 -428.396 L1107.79 -428.396 L1146.28 -428.396 L1184.77 -428.396 L1223.26 -428.396 L1261.75 -428.396 L1300.24 -428.396 L1338.73 -428.396 L1377.22 -428.396 L1415.71 -428.396 L1454.2 -428.396 L1492.69 -428.396 L1531.18 -428.396 L1569.68 -428.396 L1608.17 -428.396 L1646.66 -428.396 L1685.15 -428.396 L1723.64 -428.396 L1762.13 -428.396 L1800.62 -428.396 L1839.11 -428.396 L1877.6 -428.396 L1916.09 -428.396 L1954.58 -428.396 L1993.07 -428.396 L2031.56 -428.396 L2070.06 -428.396 L2108.55 -428.396 L2108.55 -428.396 L2108.55 -428.396 L2108.55 -428.396 L2108.55 -389.568 L2108.55 -350.741 L2108.55 -311.913 L2108.55 -273.085 L2108.55 -234.257 L2108.55 -195.429 L2108.55 -156.602 L2108.55 -117.774 L2108.55 -78.9462 L2108.55 -40.1184 L2108.55 -1.29062 L2108.55 37.5372 L2108.55 76.3649 L2108.55 115.193 L2108.55 154.02 L2108.55 192.848 L2108.55 231.676 L2108.55 270.504 L2108.55 309.332 L2108.55 348.159 L2108.55 386.987 L2108.55 425.815 L2108.55 464.643 L2108.55 503.47 L2108.55 542.298 L2108.55 581.126 L2108.55 619.954 L2108.55 658.781 L2108.55 697.609 L2108.55 736.437 L2108.55 775.265 L2108.55 814.093 L2108.55 852.92 L2108.55 891.748 L2108.55 930.576 L2108.55 969.404 L2108.55 1008.23 L2108.55 1047.06 L2108.55 1085.89 L2108.55 1124.71 L2108.55 1163.54 L2108.55 1202.37 L2108.55 1241.2 L2108.55 1280.03 L2108.55 1318.85 L2108.55 1357.68 L2108.55 1396.51 L2108.55 1435.34 L2108.55 1474.16 L2108.55 1474.16 L2108.55 1474.16 L2108.55 1474.16 L2070.06 1474.16 L2031.56 1474.16 L1993.07 1474.16 L1954.58 1474.16 L1916.09 1474.16 L1877.6 1474.16 L1839.11 1474.16 L1800.62 1474.16 L1762.13 1474.16 L1723.64 1474.16 L1685.15 1474.16 L1646.66 1474.16 L1608.17 1474.16 L1569.68 1474.16 L1598.12 1474.16 L1591.37 1435.34 L1583.9 1396.51 L1575.75 1357.68 L1569.68 1331.48 L1565.93 1318.85 L1553.03 1280.03 L1539.68 1241.2 L1531.18 1218.02 L1524.31 1202.37 L1506.03 1163.54 L1492.69 1135.57 L1486.76 1124.71 L1464.26 1085.89 L1454.2 1068.95 L1439.87 1047.06 L1415.71 1010.05 L1414.43 1008.23 L1385.35 969.404 L1377.22 958.651 L1354.8 930.576 L1338.73 910.576 L1322.94 891.748 L1300.24 864.858 L1289.81 852.92 L1261.75 820.982 L1255.53 814.093 L1223.26 778.492 L1220.26 775.265 L1184.77 736.985 L1184.25 736.437 L1147.48 697.609 L1146.28 696.317 L1110.41 658.781 L1107.79 655.953 L1073.35 619.954 L1069.29 615.565 L1036.47 581.126 L1030.8 574.913 L999.988 542.298 L992.313 533.744 L964.085 503.47 L953.822 491.785 L928.956 464.643 L915.331 448.724 L894.796 425.815 L876.84 404.202 L861.803 386.987 L838.35 357.79 L830.183 348.159 L800.116 309.332 L799.859 308.968 L770.743 270.504 L761.368 256.66 L743.253 231.676 L722.877 200.073 L717.876 192.848 L693.787 154.02 L684.386 136.833 L671.589 115.193 L651.454 76.3649 L645.895 64.1368 L632.757 37.5372 L616.113 -1.29062 L607.405 -24.7622 L601.194 -40.1184 L587.625 -78.9462 L576.008 -117.774 L568.914 -145.507 L565.81 -156.602 L556.539 -195.429 L548.677 -234.257 L542.026 -273.085 L536.414 -311.913 L531.691 -350.741 L530.423 -363.143 L527.463 -389.568 L523.817 -428.396 L491.932 -428.396 L530.423 -428.396  Z" fill="#fdfcfd" fill-rule="evenodd" fill-opacity="1"/>
<polyline clip-path="url(#clip142)" style="stroke:#ff0000; stroke-linecap:round; stroke-linejoin:round; stroke-width:0; stroke-opacity:1; fill:none" points="184.006,-428.396 184.006,-428.396 222.496,-428.396 260.987,-428.396 299.478,-428.396 337.969,-428.396 376.46,-428.396 414.951,-428.396 453.441,-428.396 491.932,-428.396 530.423,-428.396 568.914,-428.396 607.405,-428.396 645.895,-428.396 684.386,-428.396 722.877,-428.396 761.368,-428.396 799.859,-428.396 838.35,-428.396 876.84,-428.396 915.331,-428.396 953.822,-428.396 992.313,-428.396 1030.8,-428.396 1069.29,-428.396 1107.79,-428.396 1146.28,-428.396 1184.77,-428.396 1223.26,-428.396 1261.75,-428.396 1300.24,-428.396 1338.73,-428.396 1377.22,-428.396 1415.71,-428.396 1454.2,-428.396 1492.69,-428.396 1531.18,-428.396 1569.68,-428.396 1608.17,-428.396 1646.66,-428.396 1685.15,-428.396 1723.64,-428.396 1762.13,-428.396 1800.62,-428.396 1839.11,-428.396 1877.6,-428.396 1916.09,-428.396 1954.58,-428.396 1993.07,-428.396 2031.56,-428.396 2070.06,-428.396 2108.55,-428.396 2108.55,-389.568 2108.55,-350.741 2108.55,-311.913 2108.55,-273.085 2108.55,-234.257 2108.55,-195.429 2108.55,-156.602 2108.55,-117.774 2108.55,-78.9462 2108.55,-40.1184 2108.55,-1.29062 2108.55,37.5372 2108.55,76.3649 2108.55,115.193 2108.55,154.02 2108.55,192.848 2108.55,231.676 2108.55,270.504 2108.55,309.332 2108.55,348.159 2108.55,386.987 2108.55,425.815 2108.55,464.643 2108.55,503.47 2108.55,542.298 2108.55,581.126 2108.55,619.954 2108.55,658.781 2108.55,697.609 2108.55,736.437 2108.55,775.265 2108.55,814.093 2108.55,852.92 2108.55,891.748 2108.55,930.576 2108.55,969.404 2108.55,1008.23 2108.55,1047.06 2108.55,1085.89 2108.55,1124.71 2108.55,1163.54 2108.55,1202.37 2108.55,1241.2 2108.55,1280.03 2108.55,1318.85 2108.55,1357.68 2108.55,1396.51 2108.55,1435.34 2108.55,1474.16 2070.06,1474.16 2031.56,1474.16 1993.07,1474.16 1954.58,1474.16 1916.09,1474.16 1877.6,1474.16 1839.11,1474.16 1800.62,1474.16 1762.13,1474.16 1723.64,1474.16 1685.15,1474.16 1646.66,1474.16 1608.17,1474.16 1569.68,1474.16 1531.18,1474.16 1492.69,1474.16 1454.2,1474.16 1415.71,1474.16 1377.22,1474.16 1338.73,1474.16 1300.24,1474.16 1261.75,1474.16 1223.26,1474.16 1184.77,1474.16 1146.28,1474.16 1107.79,1474.16 1069.29,1474.16 1030.8,1474.16 992.313,1474.16 953.822,1474.16 915.331,1474.16 876.84,1474.16 838.35,1474.16 799.859,1474.16 761.368,1474.16 722.877,1474.16 684.386,1474.16 645.895,1474.16 607.405,1474.16 568.914,1474.16 530.423,1474.16 491.932,1474.16 453.441,1474.16 414.951,1474.16 376.46,1474.16 337.969,1474.16 299.478,1474.16 260.987,1474.16 222.496,1474.16 184.006,1474.16 184.006,1435.34 184.006,1396.51 184.006,1357.68 184.006,1318.85 184.006,1280.03 184.006,1241.2 184.006,1202.37 184.006,1163.54 184.006,1124.71 184.006,1085.89 184.006,1047.06 184.006,1008.23 184.006,969.404 184.006,930.576 184.006,891.748 184.006,852.92 184.006,814.093 184.006,775.265 184.006,736.437 184.006,697.609 184.006,658.781 184.006,619.954 184.006,581.126 184.006,542.298 184.006,503.47 184.006,464.643 184.006,425.815 184.006,386.987 184.006,348.159 184.006,309.332 184.006,270.504 184.006,231.676 184.006,192.848 184.006,154.02 184.006,115.193 184.006,76.3649 184.006,37.5372 184.006,-1.29062 184.006,-40.1184 184.006,-78.9462 184.006,-117.774 184.006,-156.602 184.006,-195.429 184.006,-234.257 184.006,-273.085 184.006,-311.913 184.006,-350.741 184.006,-389.568 184.006,-428.396 "/>
<polyline clip-path="url(#clip142)" style="stroke:#ff0000; stroke-linecap:round; stroke-linejoin:round; stroke-width:0; stroke-opacity:1; fill:none" points="184.006,-428.396 184.006,-428.396 222.496,-428.396 260.987,-428.396 299.478,-428.396 337.969,-428.396 376.46,-428.396 414.951,-428.396 453.441,-428.396 491.932,-428.396 530.423,-428.396 568.914,-428.396 607.405,-428.396 645.895,-428.396 684.386,-428.396 722.877,-428.396 761.368,-428.396 799.859,-428.396 838.35,-428.396 876.84,-428.396 915.331,-428.396 953.822,-428.396 992.313,-428.396 1030.8,-428.396 1069.29,-428.396 1107.79,-428.396 1146.28,-428.396 1184.77,-428.396 1223.26,-428.396 1261.75,-428.396 1300.24,-428.396 1338.73,-428.396 1377.22,-428.396 1415.71,-428.396 1454.2,-428.396 1492.69,-428.396 1531.18,-428.396 1569.68,-428.396 1608.17,-428.396 1646.66,-428.396 1685.15,-428.396 1723.64,-428.396 1762.13,-428.396 1800.62,-428.396 1839.11,-428.396 1877.6,-428.396 1916.09,-428.396 1954.58,-428.396 1993.07,-428.396 2031.56,-428.396 2070.06,-428.396 2108.55,-428.396 2108.55,-389.568 2108.55,-350.741 2108.55,-311.913 2108.55,-273.085 2108.55,-234.257 2108.55,-195.429 2108.55,-156.602 2108.55,-117.774 2108.55,-78.9462 2108.55,-40.1184 2108.55,-1.29062 2108.55,37.5372 2108.55,76.3649 2108.55,115.193 2108.55,154.02 2108.55,192.848 2108.55,231.676 2108.55,270.504 2108.55,309.332 2108.55,348.159 2108.55,386.987 2108.55,425.815 2108.55,464.643 2108.55,503.47 2108.55,542.298 2108.55,581.126 2108.55,619.954 2108.55,658.781 2108.55,697.609 2108.55,736.437 2108.55,775.265 2108.55,814.093 2108.55,852.92 2108.55,891.748 2108.55,930.576 2108.55,969.404 2108.55,1008.23 2108.55,1047.06 2108.55,1085.89 2108.55,1124.71 2108.55,1163.54 2108.55,1202.37 2108.55,1241.2 2108.55,1280.03 2108.55,1318.85 2108.55,1357.68 2108.55,1396.51 2108.55,1435.34 2108.55,1474.16 2070.06,1474.16 2031.56,1474.16 1993.07,1474.16 1954.58,1474.16 1916.09,1474.16 1877.6,1474.16 1839.11,1474.16 1800.62,1474.16 1762.13,1474.16 1723.64,1474.16 1685.15,1474.16 1646.66,1474.16 1608.17,1474.16 1569.68,1474.16 1531.18,1474.16 1492.69,1474.16 1454.2,1474.16 1415.71,1474.16 1377.22,1474.16 1338.73,1474.16 1300.24,1474.16 1261.75,1474.16 1223.26,1474.16 1184.77,1474.16 1146.28,1474.16 1107.79,1474.16 1069.29,1474.16 1030.8,1474.16 992.313,1474.16 953.822,1474.16 915.331,1474.16 876.84,1474.16 838.35,1474.16 799.859,1474.16 761.368,1474.16 722.877,1474.16 759.739,1474.16 761.002,1435.34 761.368,1425.17 762.317,1396.51 763.71,1357.68 765.18,1318.85 766.671,1280.03 768.098,1241.2 769.34,1202.37 770.232,1163.54 770.561,1124.71 770.069,1085.89 768.461,1047.06 765.424,1008.23 761.368,975.358 760.578,969.404 752.927,930.576 742.799,891.748 730.252,852.92 722.877,834.527 714.358,814.093 695.138,775.265 684.386,756.336 672.882,736.437 648.08,697.609 645.895,694.673 619.28,658.781 607.405,643.953 588.374,619.954 568.914,597.174 555.413,581.126 530.423,553.452 520.547,542.298 491.932,512.049 483.998,503.47 453.441,472.364 446.036,464.643 414.951,433.912 406.953,425.815 376.46,396.311 367.036,386.987 337.969,359.261 326.556,348.159 299.478,322.526 285.759,309.332 260.987,285.919 244.859,270.504 222.496,249.284 204.047,231.676 184.006,212.487 184.006,192.848 184.006,154.02 184.006,115.193 184.006,76.3649 184.006,37.5372 184.006,-1.29062 184.006,-40.1184 184.006,-78.9462 184.006,-117.774 184.006,-156.602 184.006,-195.429 184.006,-234.257 184.006,-273.085 184.006,-311.913 184.006,-350.741 184.006,-389.568 184.006,-428.396 "/>
<polyline clip-path="url(#clip142)" style="stroke:#ff0000; stroke-linecap:round; stroke-linejoin:round; stroke-width:0; stroke-opacity:1; fill:none" points="184.006,-428.396 184.006,-428.396 222.496,-428.396 260.987,-428.396 299.478,-428.396 337.969,-428.396 376.46,-428.396 414.951,-428.396 453.441,-428.396 491.932,-428.396 530.423,-428.396 568.914,-428.396 607.405,-428.396 645.895,-428.396 684.386,-428.396 722.877,-428.396 761.368,-428.396 799.859,-428.396 838.35,-428.396 876.84,-428.396 915.331,-428.396 953.822,-428.396 992.313,-428.396 1030.8,-428.396 1069.29,-428.396 1107.79,-428.396 1146.28,-428.396 1184.77,-428.396 1223.26,-428.396 1261.75,-428.396 1300.24,-428.396 1338.73,-428.396 1377.22,-428.396 1415.71,-428.396 1454.2,-428.396 1492.69,-428.396 1531.18,-428.396 1569.68,-428.396 1608.17,-428.396 1646.66,-428.396 1685.15,-428.396 1723.64,-428.396 1762.13,-428.396 1800.62,-428.396 1839.11,-428.396 1877.6,-428.396 1916.09,-428.396 1954.58,-428.396 1993.07,-428.396 2031.56,-428.396 2070.06,-428.396 2108.55,-428.396 2108.55,-389.568 2108.55,-350.741 2108.55,-311.913 2108.55,-273.085 2108.55,-234.257 2108.55,-195.429 2108.55,-156.602 2108.55,-117.774 2108.55,-78.9462 2108.55,-40.1184 2108.55,-1.29062 2108.55,37.5372 2108.55,76.3649 2108.55,115.193 2108.55,154.02 2108.55,192.848 2108.55,231.676 2108.55,270.504 2108.55,309.332 2108.55,348.159 2108.55,386.987 2108.55,425.815 2108.55,464.643 2108.55,503.47 2108.55,542.298 2108.55,581.126 2108.55,619.954 2108.55,658.781 2108.55,697.609 2108.55,736.437 2108.55,775.265 2108.55,814.093 2108.55,852.92 2108.55,891.748 2108.55,930.576 2108.55,969.404 2108.55,1008.23 2108.55,1047.06 2108.55,1085.89 2108.55,1124.71 2108.55,1163.54 2108.55,1202.37 2108.55,1241.2 2108.55,1280.03 2108.55,1318.85 2108.55,1357.68 2108.55,1396.51 2108.55,1435.34 2108.55,1474.16 2070.06,1474.16 2031.56,1474.16 1993.07,1474.16 1954.58,1474.16 1916.09,1474.16 1877.6,1474.16 1839.11,1474.16 1800.62,1474.16 1762.13,1474.16 1723.64,1474.16 1685.15,1474.16 1646.66,1474.16 1608.17,1474.16 1569.68,1474.16 1531.18,1474.16 1492.69,1474.16 1454.2,1474.16 1415.71,1474.16 1377.22,1474.16 1338.73,1474.16 1300.24,1474.16 1261.75,1474.16 1223.26,1474.16 1184.77,1474.16 1146.28,1474.16 1107.79,1474.16 1133.71,1474.16 1133.48,1435.34 1132.89,1396.51 1131.82,1357.68 1130.1,1318.85 1127.55,1280.03 1123.96,1241.2 1119.16,1202.37 1112.95,1163.54 1107.79,1138.15 1104.83,1124.71 1093.95,1085.89 1081.2,1047.06 1069.29,1015.49 1066.4,1008.23 1047.74,969.404 1030.8,936.584 1027.59,930.576 1003.5,891.748 992.313,875.071 977.201,852.92 953.822,820.678 949.006,814.093 918.13,775.265 915.331,772.034 884.683,736.437 876.84,727.809 849.675,697.609 838.35,685.638 813.271,658.781 799.859,645.057 775.679,619.954 761.368,605.67 737.126,581.126 722.877,567.155 697.849,542.298 684.386,529.246 658.073,503.47 645.895,491.723 618.01,464.643 607.405,454.405 577.853,425.815 568.914,417.135 537.778,386.987 530.423,379.769 497.946,348.159 491.932,342.167 458.51,309.332 453.441,304.184 419.614,270.504 414.951,265.657 381.402,231.676 376.46,226.4 344.019,192.848 337.969,186.192 307.615,154.02 299.478,144.765 272.345,115.193 260.987,101.793 238.377,76.3649 222.496,56.8759 205.887,37.5372 184.006,9.52306 184.006,-1.29062 184.006,-40.1184 184.006,-78.9462 184.006,-117.774 184.006,-156.602 184.006,-195.429 184.006,-234.257 184.006,-273.085 184.006,-311.913 184.006,-350.741 184.006,-389.568 184.006,-428.396 "/>
<polyline clip-path="url(#clip142)" style="stroke:#ff0000; stroke-linecap:round; stroke-linejoin:round; stroke-width:0; stroke-opacity:1; fill:none" points="184.006,-428.396 184.006,-428.396 222.496,-428.396 260.987,-428.396 299.478,-428.396 337.969,-428.396 376.46,-428.396 414.951,-428.396 453.441,-428.396 491.932,-428.396 530.423,-428.396 568.914,-428.396 607.405,-428.396 645.895,-428.396 684.386,-428.396 722.877,-428.396 761.368,-428.396 799.859,-428.396 838.35,-428.396 876.84,-428.396 915.331,-428.396 953.822,-428.396 992.313,-428.396 1030.8,-428.396 1069.29,-428.396 1107.79,-428.396 1146.28,-428.396 1184.77,-428.396 1223.26,-428.396 1261.75,-428.396 1300.24,-428.396 1338.73,-428.396 1377.22,-428.396 1415.71,-428.396 1454.2,-428.396 1492.69,-428.396 1531.18,-428.396 1569.68,-428.396 1608.17,-428.396 1646.66,-428.396 1685.15,-428.396 1723.64,-428.396 1762.13,-428.396 1800.62,-428.396 1839.11,-428.396 1877.6,-428.396 1916.09,-428.396 1954.58,-428.396 1993.07,-428.396 2031.56,-428.396 2070.06,-428.396 2108.55,-428.396 2108.55,-389.568 2108.55,-350.741 2108.55,-311.913 2108.55,-273.085 2108.55,-234.257 2108.55,-195.429 2108.55,-156.602 2108.55,-117.774 2108.55,-78.9462 2108.55,-40.1184 2108.55,-1.29062 2108.55,37.5372 2108.55,76.3649 2108.55,115.193 2108.55,154.02 2108.55,192.848 2108.55,231.676 2108.55,270.504 2108.55,309.332 2108.55,348.159 2108.55,386.987 2108.55,425.815 2108.55,464.643 2108.55,503.47 2108.55,542.298 2108.55,581.126 2108.55,619.954 2108.55,658.781 2108.55,697.609 2108.55,736.437 2108.55,775.265 2108.55,814.093 2108.55,852.92 2108.55,891.748 2108.55,930.576 2108.55,969.404 2108.55,1008.23 2108.55,1047.06 2108.55,1085.89 2108.55,1124.71 2108.55,1163.54 2108.55,1202.37 2108.55,1241.2 2108.55,1280.03 2108.55,1318.85 2108.55,1357.68 2108.55,1396.51 2108.55,1435.34 2108.55,1474.16 2070.06,1474.16 2031.56,1474.16 1993.07,1474.16 1954.58,1474.16 1916.09,1474.16 1877.6,1474.16 1839.11,1474.16 1800.62,1474.16 1762.13,1474.16 1723.64,1474.16 1685.15,1474.16 1646.66,1474.16 1608.17,1474.16 1569.68,1474.16 1531.18,1474.16 1492.69,1474.16 1454.2,1474.16 1415.71,1474.16 1377.22,1474.16 1338.73,1474.16 1300.24,1474.16 1317.48,1474.16 1314.34,1435.34 1310.56,1396.51 1306.02,1357.68 1300.63,1318.85 1300.24,1316.59 1293.18,1280.03 1284.37,1241.2 1274.26,1202.37 1262.92,1163.54 1261.75,1160.23 1248.09,1124.71 1231.84,1085.89 1223.26,1067.59 1213.01,1047.06 1191.85,1008.23 1184.77,996.487 1167.75,969.404 1146.28,936.599 1142.21,930.576 1113.54,891.748 1107.79,884.479 1082.51,852.92 1069.29,837.151 1049.87,814.093 1030.8,792.446 1015.67,775.265 992.313,749.846 980.041,736.437 953.822,708.884 943.163,697.609 915.331,669.156 905.259,658.781 876.84,630.317 866.568,619.954 838.35,592.077 827.326,581.126 799.859,554.193 787.761,542.298 761.368,516.462 748.085,503.47 722.877,478.702 708.493,464.643 684.386,440.749 669.165,425.815 645.895,402.44 630.272,386.987 607.405,363.607 591.974,348.159 568.914,324.066 554.43,309.332 530.423,283.603 517.8,270.504 491.932,241.966 482.246,231.676 453.441,198.855 447.939,192.848 415.045,154.02 414.951,153.9 382.925,115.193 376.46,106.549 352.467,76.3649 337.969,56.0506 323.875,37.5372 299.478,1.61422 297.367,-1.29062 271.909,-40.1184 260.987,-59.0403 248.59,-78.9462 227.347,-117.774 222.496,-127.862 207.504,-156.602 189.93,-195.429 184.006,-210.496 184.006,-234.257 184.006,-273.085 184.006,-311.913 184.006,-350.741 184.006,-389.568 184.006,-428.396 "/>
<polyline clip-path="url(#clip142)" style="stroke:#ff0000; stroke-linecap:round; stroke-linejoin:round; stroke-width:0; stroke-opacity:1; fill:none" points="260.987,-428.396 299.478,-428.396 337.969,-428.396 376.46,-428.396 414.951,-428.396 453.441,-428.396 491.932,-428.396 530.423,-428.396 568.914,-428.396 607.405,-428.396 645.895,-428.396 684.386,-428.396 722.877,-428.396 761.368,-428.396 799.859,-428.396 838.35,-428.396 876.84,-428.396 915.331,-428.396 953.822,-428.396 992.313,-428.396 1030.8,-428.396 1069.29,-428.396 1107.79,-428.396 1146.28,-428.396 1184.77,-428.396 1223.26,-428.396 1261.75,-428.396 1300.24,-428.396 1338.73,-428.396 1377.22,-428.396 1415.71,-428.396 1454.2,-428.396 1492.69,-428.396 1531.18,-428.396 1569.68,-428.396 1608.17,-428.396 1646.66,-428.396 1685.15,-428.396 1723.64,-428.396 1762.13,-428.396 1800.62,-428.396 1839.11,-428.396 1877.6,-428.396 1916.09,-428.396 1954.58,-428.396 1993.07,-428.396 2031.56,-428.396 2070.06,-428.396 2108.55,-428.396 2108.55,-389.568 2108.55,-350.741 2108.55,-311.913 2108.55,-273.085 2108.55,-234.257 2108.55,-195.429 2108.55,-156.602 2108.55,-117.774 2108.55,-78.9462 2108.55,-40.1184 2108.55,-1.29062 2108.55,37.5372 2108.55,76.3649 2108.55,115.193 2108.55,154.02 2108.55,192.848 2108.55,231.676 2108.55,270.504 2108.55,309.332 2108.55,348.159 2108.55,386.987 2108.55,425.815 2108.55,464.643 2108.55,503.47 2108.55,542.298 2108.55,581.126 2108.55,619.954 2108.55,658.781 2108.55,697.609 2108.55,736.437 2108.55,775.265 2108.55,814.093 2108.55,852.92 2108.55,891.748 2108.55,930.576 2108.55,969.404 2108.55,1008.23 2108.55,1047.06 2108.55,1085.89 2108.55,1124.71 2108.55,1163.54 2108.55,1202.37 2108.55,1241.2 2108.55,1280.03 2108.55,1318.85 2108.55,1357.68 2108.55,1396.51 2108.55,1435.34 2108.55,1474.16 2070.06,1474.16 2031.56,1474.16 1993.07,1474.16 1954.58,1474.16 1916.09,1474.16 1877.6,1474.16 1839.11,1474.16 1800.62,1474.16 1762.13,1474.16 1723.64,1474.16 1685.15,1474.16 1646.66,1474.16 1608.17,1474.16 1569.68,1474.16 1531.18,1474.16 1492.69,1474.16 1454.2,1474.16 1415.71,1474.16 1423.89,1474.16 1419.2,1435.34 1415.71,1410.51 1413.4,1396.51 1405.85,1357.68 1397.32,1318.85 1387.8,1280.03 1377.37,1241.2 1377.22,1240.73 1363.36,1202.37 1348.41,1163.54 1338.73,1140.53 1331.44,1124.71 1311.68,1085.89 1300.24,1064.69 1290.06,1047.06 1266.31,1008.23 1261.75,1001.41 1239.37,969.404 1223.26,947.037 1211.01,930.576 1184.77,896.501 1181.02,891.748 1148.72,852.92 1146.28,850.133 1114.35,814.093 1107.79,806.898 1078.76,775.265 1069.29,765.221 1042.09,736.437 1030.8,724.746 1004.55,697.609 992.313,685.165 966.32,658.781 953.822,646.212 927.622,619.954 915.331,607.657 888.655,581.126 876.84,569.298 849.616,542.298 838.35,530.953 810.687,503.47 799.859,492.448 772.045,464.643 761.368,453.606 733.857,425.815 722.877,414.24 696.287,386.987 684.386,374.142 659.499,348.159 645.895,333.069 623.658,309.332 607.405,290.736 588.936,270.504 568.914,246.797 555.512,231.676 530.423,200.835 523.574,192.848 493.161,154.02 491.932,152.299 463.677,115.193 453.441,100.137 436.145,76.3649 414.951,43.5419 410.788,37.5372 386.686,-1.29062 376.46,-20.0335 364.611,-40.1184 344.537,-78.9462 337.969,-93.4771 326.035,-117.774 309.489,-156.602 299.478,-183.807 294.816,-195.429 281.359,-234.257 269.851,-273.085 260.987,-308.124 259.939,-311.913 250.771,-350.741 243.001,-389.568 236.433,-428.396 222.496,-428.396 260.987,-428.396 "/>
<polyline clip-path="url(#clip142)" style="stroke:#ff0000; stroke-linecap:round; stroke-linejoin:round; stroke-width:0; stroke-opacity:1; fill:none" points="337.969,-428.396 376.46,-428.396 414.951,-428.396 453.441,-428.396 491.932,-428.396 530.423,-428.396 568.914,-428.396 607.405,-428.396 645.895,-428.396 684.386,-428.396 722.877,-428.396 761.368,-428.396 799.859,-428.396 838.35,-428.396 876.84,-428.396 915.331,-428.396 953.822,-428.396 992.313,-428.396 1030.8,-428.396 1069.29,-428.396 1107.79,-428.396 1146.28,-428.396 1184.77,-428.396 1223.26,-428.396 1261.75,-428.396 1300.24,-428.396 1338.73,-428.396 1377.22,-428.396 1415.71,-428.396 1454.2,-428.396 1492.69,-428.396 1531.18,-428.396 1569.68,-428.396 1608.17,-428.396 1646.66,-428.396 1685.15,-428.396 1723.64,-428.396 1762.13,-428.396 1800.62,-428.396 1839.11,-428.396 1877.6,-428.396 1916.09,-428.396 1954.58,-428.396 1993.07,-428.396 2031.56,-428.396 2070.06,-428.396 2108.55,-428.396 2108.55,-389.568 2108.55,-350.741 2108.55,-311.913 2108.55,-273.085 2108.55,-234.257 2108.55,-195.429 2108.55,-156.602 2108.55,-117.774 2108.55,-78.9462 2108.55,-40.1184 2108.55,-1.29062 2108.55,37.5372 2108.55,76.3649 2108.55,115.193 2108.55,154.02 2108.55,192.848 2108.55,231.676 2108.55,270.504 2108.55,309.332 2108.55,348.159 2108.55,386.987 2108.55,425.815 2108.55,464.643 2108.55,503.47 2108.55,542.298 2108.55,581.126 2108.55,619.954 2108.55,658.781 2108.55,697.609 2108.55,736.437 2108.55,775.265 2108.55,814.093 2108.55,852.92 2108.55,891.748 2108.55,930.576 2108.55,969.404 2108.55,1008.23 2108.55,1047.06 2108.55,1085.89 2108.55,1124.71 2108.55,1163.54 2108.55,1202.37 2108.55,1241.2 2108.55,1280.03 2108.55,1318.85 2108.55,1357.68 2108.55,1396.51 2108.55,1435.34 2108.55,1474.16 2070.06,1474.16 2031.56,1474.16 1993.07,1474.16 1954.58,1474.16 1916.09,1474.16 1877.6,1474.16 1839.11,1474.16 1800.62,1474.16 1762.13,1474.16 1723.64,1474.16 1685.15,1474.16 1646.66,1474.16 1608.17,1474.16 1569.68,1474.16 1531.18,1474.16 1492.69,1474.16 1454.2,1474.16 1492.04,1474.16 1485.51,1435.34 1478.14,1396.51 1469.92,1357.68 1460.88,1318.85 1454.2,1293.12 1450.2,1280.03 1436.71,1241.2 1422.54,1202.37 1415.71,1185.38 1405.81,1163.54 1386.97,1124.71 1377.22,1105.79 1366.01,1085.89 1343.2,1047.06 1338.73,1040.06 1317.12,1008.23 1300.24,983.798 1289.81,969.404 1261.75,931.594 1260.97,930.576 1228.99,891.748 1223.26,884.975 1195.54,852.92 1184.77,840.734 1160.84,814.093 1146.28,798.202 1125.02,775.265 1107.79,756.995 1088.23,736.437 1069.29,716.772 1050.7,697.609 1030.8,677.239 1012.63,658.781 992.313,638.138 974.241,619.954 953.822,599.242 935.74,581.126 915.331,560.345 897.325,542.298 876.84,521.25 859.189,503.47 838.35,481.76 821.513,464.643 799.859,441.668 784.474,425.815 761.368,400.744 748.249,386.987 722.877,358.724 713.016,348.159 684.386,315.296 678.957,309.332 646.217,270.504 645.895,270.091 614.212,231.676 607.405,222.557 583.828,192.848 568.914,171.943 555.274,154.02 530.423,117.464 528.77,115.193 503.24,76.3649 491.932,56.8392 479.872,37.5372 458.531,-1.29062 453.441,-11.8208 438.603,-40.1184 420.921,-78.9462 414.951,-94.0254 404.709,-117.774 390.248,-156.602 377.845,-195.429 376.46,-200.477 366.323,-234.257 356.39,-273.085 347.951,-311.913 340.801,-350.741 337.969,-368.925 334.447,-389.568 328.862,-428.396 299.478,-428.396 337.969,-428.396 "/>
<polyline clip-path="url(#clip142)" style="stroke:#ff0000; stroke-linecap:round; stroke-linejoin:round; stroke-width:0; stroke-opacity:1; fill:none" points="414.951,-428.396 453.441,-428.396 491.932,-428.396 530.423,-428.396 568.914,-428.396 607.405,-428.396 645.895,-428.396 684.386,-428.396 722.877,-428.396 761.368,-428.396 799.859,-428.396 838.35,-428.396 876.84,-428.396 915.331,-428.396 953.822,-428.396 992.313,-428.396 1030.8,-428.396 1069.29,-428.396 1107.79,-428.396 1146.28,-428.396 1184.77,-428.396 1223.26,-428.396 1261.75,-428.396 1300.24,-428.396 1338.73,-428.396 1377.22,-428.396 1415.71,-428.396 1454.2,-428.396 1492.69,-428.396 1531.18,-428.396 1569.68,-428.396 1608.17,-428.396 1646.66,-428.396 1685.15,-428.396 1723.64,-428.396 1762.13,-428.396 1800.62,-428.396 1839.11,-428.396 1877.6,-428.396 1916.09,-428.396 1954.58,-428.396 1993.07,-428.396 2031.56,-428.396 2070.06,-428.396 2108.55,-428.396 2108.55,-389.568 2108.55,-350.741 2108.55,-311.913 2108.55,-273.085 2108.55,-234.257 2108.55,-195.429 2108.55,-156.602 2108.55,-117.774 2108.55,-78.9462 2108.55,-40.1184 2108.55,-1.29062 2108.55,37.5372 2108.55,76.3649 2108.55,115.193 2108.55,154.02 2108.55,192.848 2108.55,231.676 2108.55,270.504 2108.55,309.332 2108.55,348.159 2108.55,386.987 2108.55,425.815 2108.55,464.643 2108.55,503.47 2108.55,542.298 2108.55,581.126 2108.55,619.954 2108.55,658.781 2108.55,697.609 2108.55,736.437 2108.55,775.265 2108.55,814.093 2108.55,852.92 2108.55,891.748 2108.55,930.576 2108.55,969.404 2108.55,1008.23 2108.55,1047.06 2108.55,1085.89 2108.55,1124.71 2108.55,1163.54 2108.55,1202.37 2108.55,1241.2 2108.55,1280.03 2108.55,1318.85 2108.55,1357.68 2108.55,1396.51 2108.55,1435.34 2108.55,1474.16 2070.06,1474.16 2031.56,1474.16 1993.07,1474.16 1954.58,1474.16 1916.09,1474.16 1877.6,1474.16 1839.11,1474.16 1800.62,1474.16 1762.13,1474.16 1723.64,1474.16 1685.15,1474.16 1646.66,1474.16 1608.17,1474.16 1569.68,1474.16 1531.18,1474.16 1537.76,1474.16 1532.22,1435.34 1531.18,1429.16 1524.27,1396.51 1515.09,1357.68 1505.1,1318.85 1494.43,1280.03 1492.69,1274.53 1480.16,1241.2 1464.85,1202.37 1454.2,1176.79 1447.91,1163.54 1427.91,1124.71 1415.71,1101.72 1406.45,1085.89 1382.73,1047.06 1377.22,1038.58 1356.09,1008.23 1338.73,983.584 1328.2,969.404 1300.24,932.388 1298.81,930.576 1266.59,891.748 1261.75,886.044 1232.86,852.92 1223.26,842.075 1197.97,814.093 1184.77,799.655 1162.08,775.265 1146.28,758.415 1125.36,736.437 1107.79,718.029 1088.02,697.609 1069.29,678.21 1050.27,658.781 1030.8,638.706 1012.33,619.954 992.313,599.286 974.394,581.126 953.822,559.736 936.674,542.298 915.331,519.842 899.359,503.47 876.84,479.381 862.636,464.643 838.35,438.112 826.69,425.815 799.859,395.761 791.707,386.987 761.368,352.008 757.878,348.159 725.088,309.332 722.877,306.486 693.271,270.504 684.386,258.58 663.072,231.676 645.895,207.571 634.702,192.848 608.282,154.02 607.405,152.587 582.757,115.193 568.914,91.3003 559.578,76.3649 538.15,37.5372 530.423,21.57 518.42,-1.29062 500.665,-40.1184 491.932,-62.1317 484.667,-78.9462 470.144,-117.774 457.69,-156.602 453.441,-172.036 446.402,-195.429 436.427,-234.257 427.953,-273.085 420.773,-311.913 414.951,-349.171 414.682,-350.741 409.073,-389.568 404.358,-428.396 376.46,-428.396 414.951,-428.396 "/>
<polyline clip-path="url(#clip142)" style="stroke:#ff0000; stroke-linecap:round; stroke-linejoin:round; stroke-width:0; stroke-opacity:1; fill:none" points="491.932,-428.396 530.423,-428.396 568.914,-428.396 607.405,-428.396 645.895,-428.396 684.386,-428.396 722.877,-428.396 761.368,-428.396 799.859,-428.396 838.35,-428.396 876.84,-428.396 915.331,-428.396 953.822,-428.396 992.313,-428.396 1030.8,-428.396 1069.29,-428.396 1107.79,-428.396 1146.28,-428.396 1184.77,-428.396 1223.26,-428.396 1261.75,-428.396 1300.24,-428.396 1338.73,-428.396 1377.22,-428.396 1415.71,-428.396 1454.2,-428.396 1492.69,-428.396 1531.18,-428.396 1569.68,-428.396 1608.17,-428.396 1646.66,-428.396 1685.15,-428.396 1723.64,-428.396 1762.13,-428.396 1800.62,-428.396 1839.11,-428.396 1877.6,-428.396 1916.09,-428.396 1954.58,-428.396 1993.07,-428.396 2031.56,-428.396 2070.06,-428.396 2108.55,-428.396 2108.55,-389.568 2108.55,-350.741 2108.55,-311.913 2108.55,-273.085 2108.55,-234.257 2108.55,-195.429 2108.55,-156.602 2108.55,-117.774 2108.55,-78.9462 2108.55,-40.1184 2108.55,-1.29062 2108.55,37.5372 2108.55,76.3649 2108.55,115.193 2108.55,154.02 2108.55,192.848 2108.55,231.676 2108.55,270.504 2108.55,309.332 2108.55,348.159 2108.55,386.987 2108.55,425.815 2108.55,464.643 2108.55,503.47 2108.55,542.298 2108.55,581.126 2108.55,619.954 2108.55,658.781 2108.55,697.609 2108.55,736.437 2108.55,775.265 2108.55,814.093 2108.55,852.92 2108.55,891.748 2108.55,930.576 2108.55,969.404 2108.55,1008.23 2108.55,1047.06 2108.55,1085.89 2108.55,1124.71 2108.55,1163.54 2108.55,1202.37 2108.55,1241.2 2108.55,1280.03 2108.55,1318.85 2108.55,1357.68 2108.55,1396.51 2108.55,1435.34 2108.55,1474.16 2070.06,1474.16 2031.56,1474.16 1993.07,1474.16 1954.58,1474.16 1916.09,1474.16 1877.6,1474.16 1839.11,1474.16 1800.62,1474.16 1762.13,1474.16 1723.64,1474.16 1685.15,1474.16 1646.66,1474.16 1608.17,1474.16 1569.68,1474.16 1572.41,1474.16 1569.68,1454.83 1566.05,1435.34 1557.78,1396.51 1548.71,1357.68 1538.93,1318.85 1531.18,1290.6 1527.62,1280.03 1512.97,1241.2 1498.02,1202.37 1492.69,1189.73 1479.89,1163.54 1460.43,1124.71 1454.2,1113.1 1437.92,1085.89 1415.71,1048.49 1414.79,1047.06 1387.55,1008.23 1377.22,993.646 1358.98,969.404 1338.73,942.762 1329.03,930.576 1300.24,894.911 1297.59,891.748 1264.14,852.92 1261.75,850.203 1229.13,814.093 1223.26,807.609 1193.25,775.265 1184.77,766.114 1156.67,736.437 1146.28,725.402 1119.58,697.609 1107.79,685.19 1082.19,658.781 1069.29,645.227 1044.71,619.954 1030.8,605.278 1007.34,581.126 992.313,565.115 970.28,542.298 953.822,524.505 933.725,503.47 915.331,483.201 897.864,464.643 876.84,440.925 862.888,425.815 838.35,397.36 828.991,386.987 799.859,352.132 796.37,348.159 764.773,309.332 761.368,304.749 734.305,270.504 722.877,254.435 705.605,231.676 684.386,200.407 678.895,192.848 653.527,154.02 645.895,140.849 629.859,115.193 608.59,76.3649 607.405,73.9177 588.286,37.5372 570.623,-1.29062 568.914,-5.59262 553.971,-40.1184 539.497,-78.9462 530.423,-107.244 526.736,-117.774 515.046,-156.602 505.081,-195.429 496.607,-234.257 491.932,-259.506 489.179,-273.085 482.517,-311.913 476.901,-350.741 472.178,-389.568 468.213,-428.396 453.441,-428.396 491.932,-428.396 "/>
<polyline clip-path="url(#clip142)" style="stroke:#ff0000; stroke-linecap:round; stroke-linejoin:round; stroke-width:0; stroke-opacity:1; fill:none" points="530.423,-428.396 568.914,-428.396 607.405,-428.396 645.895,-428.396 684.386,-428.396 722.877,-428.396 761.368,-428.396 799.859,-428.396 838.35,-428.396 876.84,-428.396 915.331,-428.396 953.822,-428.396 992.313,-428.396 1030.8,-428.396 1069.29,-428.396 1107.79,-428.396 1146.28,-428.396 1184.77,-428.396 1223.26,-428.396 1261.75,-428.396 1300.24,-428.396 1338.73,-428.396 1377.22,-428.396 1415.71,-428.396 1454.2,-428.396 1492.69,-428.396 1531.18,-428.396 1569.68,-428.396 1608.17,-428.396 1646.66,-428.396 1685.15,-428.396 1723.64,-428.396 1762.13,-428.396 1800.62,-428.396 1839.11,-428.396 1877.6,-428.396 1916.09,-428.396 1954.58,-428.396 1993.07,-428.396 2031.56,-428.396 2070.06,-428.396 2108.55,-428.396 2108.55,-389.568 2108.55,-350.741 2108.55,-311.913 2108.55,-273.085 2108.55,-234.257 2108.55,-195.429 2108.55,-156.602 2108.55,-117.774 2108.55,-78.9462 2108.55,-40.1184 2108.55,-1.29062 2108.55,37.5372 2108.55,76.3649 2108.55,115.193 2108.55,154.02 2108.55,192.848 2108.55,231.676 2108.55,270.504 2108.55,309.332 2108.55,348.159 2108.55,386.987 2108.55,425.815 2108.55,464.643 2108.55,503.47 2108.55,542.298 2108.55,581.126 2108.55,619.954 2108.55,658.781 2108.55,697.609 2108.55,736.437 2108.55,775.265 2108.55,814.093 2108.55,852.92 2108.55,891.748 2108.55,930.576 2108.55,969.404 2108.55,1008.23 2108.55,1047.06 2108.55,1085.89 2108.55,1124.71 2108.55,1163.54 2108.55,1202.37 2108.55,1241.2 2108.55,1280.03 2108.55,1318.85 2108.55,1357.68 2108.55,1396.51 2108.55,1435.34 2108.55,1474.16 2070.06,1474.16 2031.56,1474.16 1993.07,1474.16 1954.58,1474.16 1916.09,1474.16 1877.6,1474.16 1839.11,1474.16 1800.62,1474.16 1762.13,1474.16 1723.64,1474.16 1685.15,1474.16 1646.66,1474.16 1608.17,1474.16 1569.68,1474.16 1598.12,1474.16 1591.37,1435.34 1583.9,1396.51 1575.75,1357.68 1569.68,1331.48 1565.93,1318.85 1553.03,1280.03 1539.68,1241.2 1531.18,1218.02 1524.31,1202.37 1506.03,1163.54 1492.69,1135.57 1486.76,1124.71 1464.26,1085.89 1454.2,1068.95 1439.87,1047.06 1415.71,1010.05 1414.43,1008.23 1385.35,969.404 1377.22,958.651 1354.8,930.576 1338.73,910.576 1322.94,891.748 1300.24,864.858 1289.81,852.92 1261.75,820.982 1255.53,814.093 1223.26,778.492 1220.26,775.265 1184.77,736.985 1184.25,736.437 1147.48,697.609 1146.28,696.317 1110.41,658.781 1107.79,655.953 1073.35,619.954 1069.29,615.565 1036.47,581.126 1030.8,574.913 999.988,542.298 992.313,533.744 964.085,503.47 953.822,491.785 928.956,464.643 915.331,448.724 894.796,425.815 876.84,404.202 861.803,386.987 838.35,357.79 830.183,348.159 800.116,309.332 799.859,308.968 770.743,270.504 761.368,256.66 743.253,231.676 722.877,200.073 717.876,192.848 693.787,154.02 684.386,136.833 671.589,115.193 651.454,76.3649 645.895,64.1368 632.757,37.5372 616.113,-1.29062 607.405,-24.7622 601.194,-40.1184 587.625,-78.9462 576.008,-117.774 568.914,-145.507 565.81,-156.602 556.539,-195.429 548.677,-234.257 542.026,-273.085 536.414,-311.913 531.691,-350.741 530.423,-363.143 527.463,-389.568 523.817,-428.396 491.932,-428.396 530.423,-428.396 "/>
<defs>
  <clipPath id="clip143">
    <rect x="2160" y="47" width="73" height="1428"/>
  </clipPath>
</defs>
<path clip-path="url(#clip143)" d="M2160.76 1474.16 L2232.76 1474.16 L2232.76 1315.62 L2160.76 1315.62  Z" fill="#ff0000" fill-rule="evenodd" fill-opacity="1"/>
<path clip-path="url(#clip143)" d="M2160.76 1315.62 L2232.76 1315.62 L2232.76 1157.07 L2160.76 1157.07  Z" fill="#ff1f1f" fill-rule="evenodd" fill-opacity="1"/>
<path clip-path="url(#clip143)" d="M2160.76 1157.07 L2232.76 1157.07 L2232.76 998.524 L2160.76 998.524  Z" fill="#ff3f3f" fill-rule="evenodd" fill-opacity="1"/>
<path clip-path="url(#clip143)" d="M2160.76 998.524 L2232.76 998.524 L2232.76 839.978 L2160.76 839.978  Z" fill="#ff5f5f" fill-rule="evenodd" fill-opacity="1"/>
<path clip-path="url(#clip143)" d="M2160.76 839.978 L2232.76 839.978 L2232.76 681.431 L2160.76 681.431  Z" fill="#ff8080" fill-rule="evenodd" fill-opacity="1"/>
<path clip-path="url(#clip143)" d="M2160.76 681.431 L2232.76 681.431 L2232.76 522.884 L2160.76 522.884  Z" fill="#ff9f9f" fill-rule="evenodd" fill-opacity="1"/>
<path clip-path="url(#clip143)" d="M2160.76 522.884 L2232.76 522.884 L2232.76 364.338 L2160.76 364.338  Z" fill="#ffbfbf" fill-rule="evenodd" fill-opacity="1"/>
<path clip-path="url(#clip143)" d="M2160.76 364.338 L2232.76 364.338 L2232.76 205.791 L2160.76 205.791  Z" fill="#ffdfdf" fill-rule="evenodd" fill-opacity="1"/>
<path clip-path="url(#clip143)" d="M2160.76 205.791 L2232.76 205.791 L2232.76 47.2441 L2160.76 47.2441  Z" fill="#fdfcfd" fill-rule="evenodd" fill-opacity="1"/>
<g clip-path="url(#clip140)">
<text style="fill:#000000; fill-opacity:1; font-family:Arial,Helvetica Neue,Helvetica,sans-serif; font-size:48px; text-anchor:start;" transform="rotate(0, 2268.76, 1487.82)" x="2268.76" y="1487.82">-</text>
</g>
<g clip-path="url(#clip140)">
<text style="fill:#000000; fill-opacity:1; font-family:Arial,Helvetica Neue,Helvetica,sans-serif; font-size:48px; text-anchor:start;" transform="rotate(0, 2296.87, 1487.82)" x="2296.87" y="1487.82">0.08</text>
</g>
<polyline clip-path="url(#clip140)" style="stroke:#000000; stroke-linecap:round; stroke-linejoin:round; stroke-width:4; stroke-opacity:1; fill:none" points="2232.76,1474.16 2256.76,1474.16 "/>
<g clip-path="url(#clip140)">
<text style="fill:#000000; fill-opacity:1; font-family:Arial,Helvetica Neue,Helvetica,sans-serif; font-size:48px; text-anchor:start;" transform="rotate(0, 2268.76, 1309.45)" x="2268.76" y="1309.45">-</text>
</g>
<g clip-path="url(#clip140)">
<text style="fill:#000000; fill-opacity:1; font-family:Arial,Helvetica Neue,Helvetica,sans-serif; font-size:48px; text-anchor:start;" transform="rotate(0, 2296.87, 1309.45)" x="2296.87" y="1309.45">0.07</text>
</g>
<polyline clip-path="url(#clip140)" style="stroke:#000000; stroke-linecap:round; stroke-linejoin:round; stroke-width:4; stroke-opacity:1; fill:none" points="2232.76,1295.8 2256.76,1295.8 "/>
<g clip-path="url(#clip140)">
<text style="fill:#000000; fill-opacity:1; font-family:Arial,Helvetica Neue,Helvetica,sans-serif; font-size:48px; text-anchor:start;" transform="rotate(0, 2268.76, 1131.09)" x="2268.76" y="1131.09">-</text>
</g>
<g clip-path="url(#clip140)">
<text style="fill:#000000; fill-opacity:1; font-family:Arial,Helvetica Neue,Helvetica,sans-serif; font-size:48px; text-anchor:start;" transform="rotate(0, 2296.87, 1131.09)" x="2296.87" y="1131.09">0.06</text>
</g>
<polyline clip-path="url(#clip140)" style="stroke:#000000; stroke-linecap:round; stroke-linejoin:round; stroke-width:4; stroke-opacity:1; fill:none" points="2232.76,1117.43 2256.76,1117.43 "/>
<g clip-path="url(#clip140)">
<text style="fill:#000000; fill-opacity:1; font-family:Arial,Helvetica Neue,Helvetica,sans-serif; font-size:48px; text-anchor:start;" transform="rotate(0, 2268.76, 952.721)" x="2268.76" y="952.721">-</text>
</g>
<g clip-path="url(#clip140)">
<text style="fill:#000000; fill-opacity:1; font-family:Arial,Helvetica Neue,Helvetica,sans-serif; font-size:48px; text-anchor:start;" transform="rotate(0, 2296.87, 952.721)" x="2296.87" y="952.721">0.05</text>
</g>
<polyline clip-path="url(#clip140)" style="stroke:#000000; stroke-linecap:round; stroke-linejoin:round; stroke-width:4; stroke-opacity:1; fill:none" points="2232.76,939.069 2256.76,939.069 "/>
<g clip-path="url(#clip140)">
<text style="fill:#000000; fill-opacity:1; font-family:Arial,Helvetica Neue,Helvetica,sans-serif; font-size:48px; text-anchor:start;" transform="rotate(0, 2268.76, 774.356)" x="2268.76" y="774.356">-</text>
</g>
<g clip-path="url(#clip140)">
<text style="fill:#000000; fill-opacity:1; font-family:Arial,Helvetica Neue,Helvetica,sans-serif; font-size:48px; text-anchor:start;" transform="rotate(0, 2296.87, 774.356)" x="2296.87" y="774.356">0.04</text>
</g>
<polyline clip-path="url(#clip140)" style="stroke:#000000; stroke-linecap:round; stroke-linejoin:round; stroke-width:4; stroke-opacity:1; fill:none" points="2232.76,760.704 2256.76,760.704 "/>
<g clip-path="url(#clip140)">
<text style="fill:#000000; fill-opacity:1; font-family:Arial,Helvetica Neue,Helvetica,sans-serif; font-size:48px; text-anchor:start;" transform="rotate(0, 2268.76, 595.991)" x="2268.76" y="595.991">-</text>
</g>
<g clip-path="url(#clip140)">
<text style="fill:#000000; fill-opacity:1; font-family:Arial,Helvetica Neue,Helvetica,sans-serif; font-size:48px; text-anchor:start;" transform="rotate(0, 2296.87, 595.991)" x="2296.87" y="595.991">0.03</text>
</g>
<polyline clip-path="url(#clip140)" style="stroke:#000000; stroke-linecap:round; stroke-linejoin:round; stroke-width:4; stroke-opacity:1; fill:none" points="2232.76,582.339 2256.76,582.339 "/>
<g clip-path="url(#clip140)">
<text style="fill:#000000; fill-opacity:1; font-family:Arial,Helvetica Neue,Helvetica,sans-serif; font-size:48px; text-anchor:start;" transform="rotate(0, 2268.76, 417.625)" x="2268.76" y="417.625">-</text>
</g>
<g clip-path="url(#clip140)">
<text style="fill:#000000; fill-opacity:1; font-family:Arial,Helvetica Neue,Helvetica,sans-serif; font-size:48px; text-anchor:start;" transform="rotate(0, 2296.87, 417.625)" x="2296.87" y="417.625">0.02</text>
</g>
<polyline clip-path="url(#clip140)" style="stroke:#000000; stroke-linecap:round; stroke-linejoin:round; stroke-width:4; stroke-opacity:1; fill:none" points="2232.76,403.974 2256.76,403.974 "/>
<g clip-path="url(#clip140)">
<text style="fill:#000000; fill-opacity:1; font-family:Arial,Helvetica Neue,Helvetica,sans-serif; font-size:48px; text-anchor:start;" transform="rotate(0, 2268.76, 239.26)" x="2268.76" y="239.26">-</text>
</g>
<g clip-path="url(#clip140)">
<text style="fill:#000000; fill-opacity:1; font-family:Arial,Helvetica Neue,Helvetica,sans-serif; font-size:48px; text-anchor:start;" transform="rotate(0, 2296.87, 239.26)" x="2296.87" y="239.26">0.01</text>
</g>
<polyline clip-path="url(#clip140)" style="stroke:#000000; stroke-linecap:round; stroke-linejoin:round; stroke-width:4; stroke-opacity:1; fill:none" points="2232.76,225.609 2256.76,225.609 "/>
<g clip-path="url(#clip140)">
<text style="fill:#000000; fill-opacity:1; font-family:Arial,Helvetica Neue,Helvetica,sans-serif; font-size:48px; text-anchor:start;" transform="rotate(0, 2268.76, 60.8953)" x="2268.76" y="60.8953">0</text>
</g>
<polyline clip-path="url(#clip140)" style="stroke:#000000; stroke-linecap:round; stroke-linejoin:round; stroke-width:4; stroke-opacity:1; fill:none" points="2232.76,47.2441 2256.76,47.2441 "/>
<polyline clip-path="url(#clip140)" style="stroke:#000000; stroke-linecap:round; stroke-linejoin:round; stroke-width:4; stroke-opacity:1; fill:none" points="2232.76,1474.16 2232.76,47.2441 "/>
</svg>
