<?xml version="1.0" encoding="utf-8"?>
<svg xmlns="http://www.w3.org/2000/svg" xmlns:xlink="http://www.w3.org/1999/xlink" width="600" height="400" viewBox="0 0 2400 1600">
<defs>
  <clipPath id="clip180">
    <rect x="0" y="0" width="2400" height="1600"/>
  </clipPath>
</defs>
<path clip-path="url(#clip180)" d="M0 1600 L2400 1600 L2400 8.88178e-14 L0 8.88178e-14  Z" fill="#ffffff" fill-rule="evenodd" fill-opacity="1"/>
<defs>
  <clipPath id="clip181">
    <rect x="480" y="0" width="1681" height="1600"/>
  </clipPath>
</defs>
<path clip-path="url(#clip180)" d="M184.006 1474.16 L2112.76 1474.16 L2112.76 47.2441 L184.006 47.2441  Z" fill="#ffffff" fill-rule="evenodd" fill-opacity="1"/>
<defs>
  <clipPath id="clip182">
    <rect x="184" y="47" width="1930" height="1428"/>
  </clipPath>
</defs>
<polyline clip-path="url(#clip182)" style="stroke:#000000; stroke-linecap:round; stroke-linejoin:round; stroke-width:2; stroke-opacity:0.1; fill:none" points="184.006,47.2441 184.006,1474.16 "/>
<polyline clip-path="url(#clip182)" style="stroke:#000000; stroke-linecap:round; stroke-linejoin:round; stroke-width:2; stroke-opacity:0.1; fill:none" points="1148.38,47.2441 1148.38,1474.16 "/>
<polyline clip-path="url(#clip182)" style="stroke:#000000; stroke-linecap:round; stroke-linejoin:round; stroke-width:2; stroke-opacity:0.1; fill:none" points="2112.76,47.2441 2112.76,1474.16 "/>
<polyline clip-path="url(#clip182)" style="stroke:#000000; stroke-linecap:round; stroke-linejoin:round; stroke-width:2; stroke-opacity:0.1; fill:none" points="184.006,47.2441 184.006,1474.16 "/>
<polyline clip-path="url(#clip182)" style="stroke:#000000; stroke-linecap:round; stroke-linejoin:round; stroke-width:2; stroke-opacity:0.1; fill:none" points="1148.38,47.2441 1148.38,1474.16 "/>
<polyline clip-path="url(#clip182)" style="stroke:#000000; stroke-linecap:round; stroke-linejoin:round; stroke-width:2; stroke-opacity:0.1; fill:none" points="2112.76,47.2441 2112.76,1474.16 "/>
<polyline clip-path="url(#clip180)" style="stroke:#000000; stroke-linecap:round; stroke-linejoin:round; stroke-width:4; stroke-opacity:1; fill:none" points="184.006,1474.16 2112.76,1474.16 "/>
<polyline clip-path="url(#clip180)" style="stroke:#000000; stroke-linecap:round; stroke-linejoin:round; stroke-width:4; stroke-opacity:1; fill:none" points="184.006,47.2441 2112.76,47.2441 "/>
<polyline clip-path="url(#clip180)" style="stroke:#000000; stroke-linecap:round; stroke-linejoin:round; stroke-width:4; stroke-opacity:1; fill:none" points="184.006,1474.16 184.006,1493.06 "/>
<polyline clip-path="url(#clip180)" style="stroke:#000000; stroke-linecap:round; stroke-linejoin:round; stroke-width:4; stroke-opacity:1; fill:none" points="1148.38,1474.16 1148.38,1493.06 "/>
<polyline clip-path="url(#clip180)" style="stroke:#000000; stroke-linecap:round; stroke-linejoin:round; stroke-width:4; stroke-opacity:1; fill:none" points="2112.76,1474.16 2112.76,1493.06 "/>
<polyline clip-path="url(#clip180)" style="stroke:#000000; stroke-linecap:round; stroke-linejoin:round; stroke-width:4; stroke-opacity:1; fill:none" points="184.006,47.2441 184.006,28.3465 "/>
<polyline clip-path="url(#clip180)" style="stroke:#000000; stroke-linecap:round; stroke-linejoin:round; stroke-width:4; stroke-opacity:1; fill:none" points="1148.38,47.2441 1148.38,28.3465 "/>
<polyline clip-path="url(#clip180)" style="stroke:#000000; stroke-linecap:round; stroke-linejoin:round; stroke-width:4; stroke-opacity:1; fill:none" points="2112.76,47.2441 2112.76,28.3465 "/>
<g clip-path="url(#clip180)">
<text style="fill:#000000; fill-opacity:1; font-family:Arial,Helvetica Neue,Helvetica,sans-serif; font-size:48px; text-anchor:start;" transform="rotate(0, 135.499, 1561.82)" x="135.499" y="1561.82">10</text>
</g>
<g clip-path="url(#clip180)">
<text style="fill:#000000; fill-opacity:1; font-family:Arial,Helvetica Neue,Helvetica,sans-serif; font-size:38px; text-anchor:start;" transform="rotate(0, 189.024, 1534.41)" x="189.024" y="1534.41">−2</text>
</g>
<g clip-path="url(#clip180)">
<text style="fill:#000000; fill-opacity:1; font-family:Arial,Helvetica Neue,Helvetica,sans-serif; font-size:48px; text-anchor:start;" transform="rotate(0, 1099.87, 1561.82)" x="1099.87" y="1561.82">10</text>
</g>
<g clip-path="url(#clip180)">
<text style="fill:#000000; fill-opacity:1; font-family:Arial,Helvetica Neue,Helvetica,sans-serif; font-size:38px; text-anchor:start;" transform="rotate(0, 1153.4, 1534.41)" x="1153.4" y="1534.41">−1</text>
</g>
<g clip-path="url(#clip180)">
<text style="fill:#000000; fill-opacity:1; font-family:Arial,Helvetica Neue,Helvetica,sans-serif; font-size:48px; text-anchor:start;" transform="rotate(0, 2075.12, 1561.82)" x="2075.12" y="1561.82">10</text>
</g>
<g clip-path="url(#clip180)">
<text style="fill:#000000; fill-opacity:1; font-family:Arial,Helvetica Neue,Helvetica,sans-serif; font-size:38px; text-anchor:start;" transform="rotate(0, 2128.65, 1534.41)" x="2128.65" y="1534.41">0</text>
</g>
<polyline clip-path="url(#clip182)" style="stroke:#000000; stroke-linecap:round; stroke-linejoin:round; stroke-width:2; stroke-opacity:0.1; fill:none" points="184.006,47.2441 2112.76,47.2441 "/>
<polyline clip-path="url(#clip182)" style="stroke:#000000; stroke-linecap:round; stroke-linejoin:round; stroke-width:2; stroke-opacity:0.1; fill:none" points="184.006,522.884 2112.76,522.884 "/>
<polyline clip-path="url(#clip182)" style="stroke:#000000; stroke-linecap:round; stroke-linejoin:round; stroke-width:2; stroke-opacity:0.1; fill:none" points="184.006,998.524 2112.76,998.524 "/>
<polyline clip-path="url(#clip182)" style="stroke:#000000; stroke-linecap:round; stroke-linejoin:round; stroke-width:2; stroke-opacity:0.1; fill:none" points="184.006,1474.16 2112.76,1474.16 "/>
<polyline clip-path="url(#clip182)" style="stroke:#000000; stroke-linecap:round; stroke-linejoin:round; stroke-width:2; stroke-opacity:0.1; fill:none" points="184.006,47.2441 2112.76,47.2441 "/>
<polyline clip-path="url(#clip182)" style="stroke:#000000; stroke-linecap:round; stroke-linejoin:round; stroke-width:2; stroke-opacity:0.1; fill:none" points="184.006,522.884 2112.76,522.884 "/>
<polyline clip-path="url(#clip182)" style="stroke:#000000; stroke-linecap:round; stroke-linejoin:round; stroke-width:2; stroke-opacity:0.1; fill:none" points="184.006,998.524 2112.76,998.524 "/>
<polyline clip-path="url(#clip182)" style="stroke:#000000; stroke-linecap:round; stroke-linejoin:round; stroke-width:2; stroke-opacity:0.1; fill:none" points="184.006,1474.16 2112.76,1474.16 "/>
<polyline clip-path="url(#clip180)" style="stroke:#000000; stroke-linecap:round; stroke-linejoin:round; stroke-width:4; stroke-opacity:1; fill:none" points="184.006,47.2441 184.006,1474.16 "/>
<polyline clip-path="url(#clip180)" style="stroke:#000000; stroke-linecap:round; stroke-linejoin:round; stroke-width:4; stroke-opacity:1; fill:none" points="2112.76,47.2441 2112.76,1474.16 "/>
<polyline clip-path="url(#clip180)" style="stroke:#000000; stroke-linecap:round; stroke-linejoin:round; stroke-width:4; stroke-opacity:1; fill:none" points="184.006,47.2441 167.199,47.2441 "/>
<polyline clip-path="url(#clip180)" style="stroke:#000000; stroke-linecap:round; stroke-linejoin:round; stroke-width:4; stroke-opacity:1; fill:none" points="184.006,522.884 167.199,522.884 "/>
<polyline clip-path="url(#clip180)" style="stroke:#000000; stroke-linecap:round; stroke-linejoin:round; stroke-width:4; stroke-opacity:1; fill:none" points="184.006,998.524 167.199,998.524 "/>
<polyline clip-path="url(#clip180)" style="stroke:#000000; stroke-linecap:round; stroke-linejoin:round; stroke-width:4; stroke-opacity:1; fill:none" points="184.006,1474.16 167.199,1474.16 "/>
<polyline clip-path="url(#clip180)" style="stroke:#000000; stroke-linecap:round; stroke-linejoin:round; stroke-width:4; stroke-opacity:1; fill:none" points="2112.76,47.2441 2129.56,47.2441 "/>
<polyline clip-path="url(#clip180)" style="stroke:#000000; stroke-linecap:round; stroke-linejoin:round; stroke-width:4; stroke-opacity:1; fill:none" points="2112.76,522.884 2129.56,522.884 "/>
<polyline clip-path="url(#clip180)" style="stroke:#000000; stroke-linecap:round; stroke-linejoin:round; stroke-width:4; stroke-opacity:1; fill:none" points="2112.76,998.524 2129.56,998.524 "/>
<polyline clip-path="url(#clip180)" style="stroke:#000000; stroke-linecap:round; stroke-linejoin:round; stroke-width:4; stroke-opacity:1; fill:none" points="2112.76,1474.16 2129.56,1474.16 "/>
<g clip-path="url(#clip180)">
<text style="fill:#000000; fill-opacity:1; font-family:Arial,Helvetica Neue,Helvetica,sans-serif; font-size:48px; text-anchor:start;" transform="rotate(0, 32.9921, 70.9717)" x="32.9921" y="70.9717">10</text>
</g>
<g clip-path="url(#clip180)">
<text style="fill:#000000; fill-opacity:1; font-family:Arial,Helvetica Neue,Helvetica,sans-serif; font-size:38px; text-anchor:start;" transform="rotate(0, 86.5168, 43.5613)" x="86.5168" y="43.5613">−2</text>
</g>
<g clip-path="url(#clip180)">
<text style="fill:#000000; fill-opacity:1; font-family:Arial,Helvetica Neue,Helvetica,sans-serif; font-size:48px; text-anchor:start;" transform="rotate(0, 32.9921, 546.612)" x="32.9921" y="546.612">10</text>
</g>
<g clip-path="url(#clip180)">
<text style="fill:#000000; fill-opacity:1; font-family:Arial,Helvetica Neue,Helvetica,sans-serif; font-size:38px; text-anchor:start;" transform="rotate(0, 86.5168, 519.201)" x="86.5168" y="519.201">−1</text>
</g>
<g clip-path="url(#clip180)">
<text style="fill:#000000; fill-opacity:1; font-family:Arial,Helvetica Neue,Helvetica,sans-serif; font-size:48px; text-anchor:start;" transform="rotate(0, 54.7365, 1022.25)" x="54.7365" y="1022.25">10</text>
</g>
<g clip-path="url(#clip180)">
<text style="fill:#000000; fill-opacity:1; font-family:Arial,Helvetica Neue,Helvetica,sans-serif; font-size:38px; text-anchor:start;" transform="rotate(0, 108.261, 994.842)" x="108.261" y="994.842">0</text>
</g>
<g clip-path="url(#clip180)">
<text style="fill:#000000; fill-opacity:1; font-family:Arial,Helvetica Neue,Helvetica,sans-serif; font-size:48px; text-anchor:start;" transform="rotate(0, 54.7365, 1497.89)" x="54.7365" y="1497.89">10</text>
</g>
<g clip-path="url(#clip180)">
<text style="fill:#000000; fill-opacity:1; font-family:Arial,Helvetica Neue,Helvetica,sans-serif; font-size:38px; text-anchor:start;" transform="rotate(0, 108.261, 1470.48)" x="108.261" y="1470.48">1</text>
</g>
<path clip-path="url(#clip182)" d="M607.405 -428.396 L645.895 -428.396 L684.386 -428.396 L722.877 -428.396 L761.368 -428.396 L799.859 -428.396 L838.35 -428.396 L876.84 -428.396 L915.331 -428.396 L953.822 -428.396 L992.313 -428.396 L1030.8 -428.396 L1069.29 -428.396 L1107.79 -428.396 L1146.28 -428.396 L1184.77 -428.396 L1223.26 -428.396 L1261.75 -428.396 L1300.24 -428.396 L1338.73 -428.396 L1377.22 -428.396 L1415.71 -428.396 L1454.2 -428.396 L1492.69 -428.396 L1531.18 -428.396 L1569.68 -428.396 L1608.17 -428.396 L1646.66 -428.396 L1685.15 -428.396 L1723.64 -428.396 L1762.13 -428.396 L1800.62 -428.396 L1839.11 -428.396 L1877.6 -428.396 L1916.09 -428.396 L1954.58 -428.396 L1993.07 -428.396 L2031.56 -428.396 L2070.06 -428.396 L2108.55 -428.396 L2108.55 -428.396 L2108.55 -428.396 L2108.55 -428.396 L2108.55 -389.568 L2108.55 -350.741 L2108.55 -311.913 L2108.55 -273.085 L2108.55 -234.257 L2108.55 -195.429 L2108.55 -156.602 L2108.55 -117.774 L2108.55 -78.9462 L2108.55 -40.1184 L2108.55 -1.29062 L2108.55 37.5372 L2108.55 76.3649 L2108.55 115.193 L2108.55 154.02 L2108.55 192.848 L2108.55 231.676 L2108.55 270.504 L2108.55 309.332 L2108.55 348.159 L2108.55 386.987 L2108.55 425.815 L2108.55 464.643 L2108.55 503.47 L2108.55 542.298 L2108.55 581.126 L2108.55 619.954 L2108.55 658.781 L2108.55 697.609 L2108.55 736.437 L2108.55 775.265 L2108.55 814.093 L2108.55 852.92 L2108.55 891.748 L2108.55 930.576 L2108.55 969.404 L2108.55 1008.23 L2108.55 1047.06 L2108.55 1085.89 L2108.55 1124.71 L2108.55 1163.54 L2108.55 1202.37 L2108.55 1241.2 L2108.55 1280.03 L2108.55 1318.85 L2108.55 1357.68 L2108.55 1396.51 L2108.55 1435.34 L2108.55 1474.16 L2108.55 1474.16 L2108.55 1474.16 L2108.55 1474.16 L2070.06 1474.16 L2031.56 1474.16 L1993.07 1474.16 L1954.58 1474.16 L1916.09 1474.16 L1877.6 1474.16 L1839.11 1474.16 L1800.62 1474.16 L1762.13 1474.16 L1723.64 1474.16 L1685.15 1474.16 L1646.66 1474.16 L1608.17 1474.16 L1618.99 1474.16 L1613.36 1435.34 L1608.17 1403.33 L1606.67 1396.51 L1596.86 1357.68 L1586.36 1318.85 L1575.31 1280.03 L1569.68 1261.96 L1561.61 1241.2 L1545.55 1202.37 L1531.18 1167.92 L1529.03 1163.54 L1508.14 1124.71 L1492.69 1095.67 L1486.81 1085.89 L1462.35 1047.06 L1454.2 1034.44 L1435.72 1008.23 L1415.71 979.796 L1407.87 969.404 L1378.3 930.576 L1377.22 929.208 L1345.99 891.748 L1338.73 883.029 L1312.59 852.92 L1300.24 838.663 L1278.2 814.093 L1261.75 795.658 L1242.99 775.265 L1223.26 753.622 L1207.15 736.437 L1184.77 712.208 L1170.91 697.609 L1146.28 671.106 L1134.5 658.781 L1107.79 630.03 L1098.15 619.954 L1069.29 588.708 L1062.07 581.126 L1030.8 546.865 L1026.49 542.298 L992.313 504.213 L991.621 503.47 L957.173 464.643 L953.822 460.577 L923.666 425.815 L915.331 415.373 L891.396 386.987 L876.84 368.085 L860.573 348.159 L838.35 318.138 L831.414 309.332 L803.68 270.504 L799.859 264.564 L777.137 231.676 L761.368 205.879 L752.794 192.848 L730.096 154.02 L722.877 140.013 L709.022 115.193 L690.096 76.3649 L684.386 62.959 L672.607 37.5372 L657.022 -1.29062 L645.895 -33.4623 L643.384 -40.1184 L630.734 -78.9462 L619.926 -117.774 L610.717 -156.602 L607.405 -173.015 L602.453 -195.429 L595.182 -234.257 L589.043 -273.085 L583.872 -311.913 L579.526 -350.741 L575.88 -389.568 L572.828 -428.396 L568.914 -428.396 L607.405 -428.396  Z" fill="#fdfcfd" fill-rule="evenodd" fill-opacity="1"/>
<path clip-path="url(#clip182)" d="M1261.75 -428.396 L1300.24 -428.396 L1338.73 -428.396 L1377.22 -428.396 L1415.71 -428.396 L1454.2 -428.396 L1492.69 -428.396 L1531.18 -428.396 L1569.68 -428.396 L1608.17 -428.396 L1646.66 -428.396 L1685.15 -428.396 L1723.64 -428.396 L1762.13 -428.396 L1800.62 -428.396 L1839.11 -428.396 L1877.6 -428.396 L1916.09 -428.396 L1954.58 -428.396 L1993.07 -428.396 L2031.56 -428.396 L2070.06 -428.396 L2108.55 -428.396 L2108.55 -428.396 L2108.55 -428.396 L2108.55 -428.396 L2108.55 -389.568 L2108.55 -350.741 L2108.55 -311.913 L2108.55 -273.085 L2108.55 -234.257 L2108.55 -195.429 L2108.55 -156.602 L2108.55 -117.774 L2108.55 -78.9462 L2108.55 -40.1184 L2108.55 -1.29062 L2108.55 37.5372 L2108.55 76.3649 L2108.55 115.193 L2108.55 154.02 L2108.55 192.848 L2108.55 231.676 L2108.55 270.504 L2108.55 309.332 L2108.55 348.159 L2108.55 386.987 L2108.55 425.815 L2108.55 464.643 L2108.55 503.47 L2108.55 542.298 L2108.55 581.126 L2108.55 619.954 L2108.55 658.781 L2108.55 697.609 L2108.55 736.437 L2108.55 775.265 L2108.55 814.093 L2108.55 852.92 L2108.55 891.748 L2108.55 930.576 L2108.55 969.404 L2108.55 1008.23 L2108.55 1047.06 L2108.55 1085.89 L2108.55 1124.71 L2108.55 1163.54 L2108.55 1202.37 L2108.55 1241.2 L2108.55 1280.03 L2108.55 1318.85 L2108.55 1357.68 L2108.55 1396.51 L2108.55 1435.34 L2108.55 1474.16 L2108.55 1474.16 L2108.55 1474.16 L2108.55 1474.16 L2070.06 1474.16 L2031.56 1474.16 L1993.07 1474.16 L1954.58 1474.16 L1916.09 1474.16 L1877.6 1474.16 L1839.11 1474.16 L1800.62 1474.16 L1813.85 1474.16 L1811.72 1435.34 L1809.17 1396.51 L1806.13 1357.68 L1802.53 1318.85 L1800.62 1301.35 L1797.41 1280.03 L1790.73 1241.2 L1783.16 1202.37 L1774.65 1163.54 L1765.12 1124.71 L1762.13 1113.79 L1752.5 1085.89 L1738.19 1047.06 L1723.64 1009.56 L1723.02 1008.23 L1703.99 969.404 L1685.15 931.132 L1684.83 930.576 L1662.33 891.748 L1646.66 864.163 L1639.52 852.92 L1615.31 814.093 L1608.17 802.305 L1590.17 775.265 L1569.68 742.744 L1565.34 736.437 L1539.94 697.609 L1531.18 683.291 L1514.93 658.781 L1492.69 622.272 L1491.16 619.954 L1467.4 581.126 L1454.2 557.241 L1445.25 542.298 L1424.25 503.47 L1415.71 485.813 L1404.58 464.643 L1386.47 425.815 L1377.22 403.298 L1369.92 386.987 L1354.65 348.159 L1341.41 309.332 L1338.73 300.298 L1329.08 270.504 L1318.25 231.676 L1308.97 192.848 L1301.06 154.02 L1300.24 149.322 L1293.75 115.193 L1287.49 76.3649 L1282.2 37.5372 L1277.74 -1.29062 L1274 -40.1184 L1270.86 -78.9462 L1268.23 -117.774 L1266.03 -156.602 L1264.2 -195.429 L1262.67 -234.257 L1261.75 -262.275 L1261.36 -273.085 L1260.2 -311.913 L1259.23 -350.741 L1258.43 -389.568 L1257.76 -428.396 L1223.26 -428.396 L1261.75 -428.396  Z" fill="#f7f6fd" fill-rule="evenodd" fill-opacity="1"/>
<path clip-path="url(#clip182)" d="M1531.18 -428.396 L1569.68 -428.396 L1608.17 -428.396 L1646.66 -428.396 L1685.15 -428.396 L1723.64 -428.396 L1762.13 -428.396 L1800.62 -428.396 L1839.11 -428.396 L1877.6 -428.396 L1916.09 -428.396 L1954.58 -428.396 L1993.07 -428.396 L2031.56 -428.396 L2070.06 -428.396 L2108.55 -428.396 L2108.55 -428.396 L2108.55 -428.396 L2108.55 -428.396 L2108.55 -389.568 L2108.55 -350.741 L2108.55 -311.913 L2108.55 -273.085 L2108.55 -234.257 L2108.55 -195.429 L2108.55 -156.602 L2108.55 -117.774 L2108.55 -78.9462 L2108.55 -40.1184 L2108.55 -1.29062 L2108.55 37.5372 L2108.55 76.3649 L2108.55 115.193 L2108.55 154.02 L2108.55 192.848 L2108.55 231.676 L2108.55 270.504 L2108.55 309.332 L2108.55 348.159 L2108.55 386.987 L2108.55 425.815 L2108.55 464.643 L2108.55 503.47 L2108.55 542.298 L2108.55 581.126 L2108.55 619.954 L2108.55 658.781 L2108.55 697.609 L2108.55 736.437 L2108.55 775.265 L2108.55 814.093 L2108.55 852.92 L2108.55 891.748 L2108.55 930.576 L2108.55 969.404 L2108.55 1008.23 L2108.55 1047.06 L2108.55 1085.89 L2108.55 1124.71 L2108.55 1163.54 L2108.55 1202.37 L2108.55 1241.2 L2108.55 1280.03 L2108.55 1318.85 L2108.55 1357.68 L2108.55 1396.51 L2108.55 1435.34 L2108.55 1474.16 L2108.55 1474.16 L2108.55 1474.16 L2108.55 1474.16 L2070.06 1474.16 L2031.56 1474.16 L1993.07 1474.16 L1954.58 1474.16 L1916.09 1474.16 L1877.6 1474.16 L1839.11 1474.16 L1876.89 1474.16 L1875.85 1435.34 L1874.55 1396.51 L1872.94 1357.68 L1870.94 1318.85 L1868.47 1280.03 L1865.43 1241.2 L1861.72 1202.37 L1857.23 1163.54 L1851.84 1124.71 L1845.45 1085.89 L1839.11 1052.9 L1837.7 1047.06 L1827.25 1008.23 L1815.67 969.404 L1803.06 930.576 L1800.62 923.524 L1787.69 891.748 L1771.46 852.92 L1762.13 830.93 L1754 814.093 L1735.5 775.265 L1723.64 749.629 L1716.84 736.437 L1697.74 697.609 L1685.15 670.321 L1679.28 658.781 L1660.96 619.954 L1646.66 586.699 L1644.03 581.126 L1627.39 542.298 L1612.55 503.47 L1608.17 490.599 L1598.5 464.643 L1585.78 425.815 L1574.68 386.987 L1569.68 366.866 L1564.59 348.159 L1555.46 309.332 L1547.64 270.504 L1540.96 231.676 L1535.27 192.848 L1531.18 159.894 L1530.39 154.02 L1525.93 115.193 L1522.17 76.3649 L1519.01 37.5372 L1516.37 -1.29062 L1514.16 -40.1184 L1512.31 -78.9462 L1510.76 -117.774 L1509.48 -156.602 L1508.41 -195.429 L1507.52 -234.257 L1506.78 -273.085 L1506.16 -311.913 L1505.65 -350.741 L1505.22 -389.568 L1504.87 -428.396 L1492.69 -428.396 L1531.18 -428.396  Z" fill="#d5d5ff" fill-rule="evenodd" fill-opacity="1"/>
<path clip-path="url(#clip182)" d="M1685.15 -428.396 L1723.64 -428.396 L1762.13 -428.396 L1800.62 -428.396 L1839.11 -428.396 L1877.6 -428.396 L1916.09 -428.396 L1954.58 -428.396 L1993.07 -428.396 L2031.56 -428.396 L2070.06 -428.396 L2108.55 -428.396 L2108.55 -428.396 L2108.55 -428.396 L2108.55 -428.396 L2108.55 -389.568 L2108.55 -350.741 L2108.55 -311.913 L2108.55 -273.085 L2108.55 -234.257 L2108.55 -195.429 L2108.55 -156.602 L2108.55 -117.774 L2108.55 -78.9462 L2108.55 -40.1184 L2108.55 -1.29062 L2108.55 37.5372 L2108.55 76.3649 L2108.55 115.193 L2108.55 154.02 L2108.55 192.848 L2108.55 231.676 L2108.55 270.504 L2108.55 309.332 L2108.55 348.159 L2108.55 386.987 L2108.55 425.815 L2108.55 464.643 L2108.55 503.47 L2108.55 542.298 L2108.55 581.126 L2108.55 619.954 L2108.55 658.781 L2108.55 697.609 L2108.55 736.437 L2108.55 775.265 L2108.55 814.093 L2108.55 852.92 L2108.55 891.748 L2108.55 930.576 L2108.55 969.404 L2108.55 1008.23 L2108.55 1047.06 L2108.55 1085.89 L2108.55 1124.71 L2108.55 1163.54 L2108.55 1202.37 L2108.55 1241.2 L2108.55 1280.03 L2108.55 1318.85 L2108.55 1357.68 L2108.55 1396.51 L2108.55 1435.34 L2108.55 1474.16 L2108.55 1474.16 L2108.55 1474.16 L2108.55 1474.16 L2070.06 1474.16 L2031.56 1474.16 L1993.07 1474.16 L1954.58 1474.16 L1916.09 1474.16 L1921.46 1474.16 L1921.07 1435.34 L1920.58 1396.51 L1919.96 1357.68 L1919.18 1318.85 L1918.18 1280.03 L1916.91 1241.2 L1916.09 1221.34 L1915.13 1202.37 L1912.66 1163.54 L1909.54 1124.71 L1905.66 1085.89 L1900.88 1047.06 L1895.11 1008.23 L1888.27 969.404 L1880.33 930.576 L1877.6 918.609 L1870.22 891.748 L1858.69 852.92 L1846.47 814.093 L1839.11 791.378 L1833.1 775.265 L1818.7 736.437 L1804.64 697.609 L1800.62 686.03 L1790.06 658.781 L1775.99 619.954 L1763.01 581.126 L1762.13 578.227 L1750.07 542.298 L1738.38 503.47 L1728.01 464.643 L1723.64 446.06 L1718.41 425.815 L1709.67 386.987 L1702.11 348.159 L1695.6 309.332 L1690.03 270.504 L1685.29 231.676 L1685.15 230.329 L1680.89 192.848 L1677.16 154.02 L1674.02 115.193 L1671.39 76.3649 L1669.17 37.5372 L1667.32 -1.29062 L1665.78 -40.1184 L1664.49 -78.9462 L1663.41 -117.774 L1662.52 -156.602 L1661.77 -195.429 L1661.15 -234.257 L1660.64 -273.085 L1660.21 -311.913 L1659.86 -350.741 L1659.56 -389.568 L1659.32 -428.396 L1646.66 -428.396 L1685.15 -428.396  Z" fill="#b1b1ff" fill-rule="evenodd" fill-opacity="1"/>
<path clip-path="url(#clip182)" d="M1800.62 -428.396 L1839.11 -428.396 L1877.6 -428.396 L1916.09 -428.396 L1954.58 -428.396 L1993.07 -428.396 L2031.56 -428.396 L2070.06 -428.396 L2108.55 -428.396 L2108.55 -428.396 L2108.55 -428.396 L2108.55 -428.396 L2108.55 -389.568 L2108.55 -350.741 L2108.55 -311.913 L2108.55 -273.085 L2108.55 -234.257 L2108.55 -195.429 L2108.55 -156.602 L2108.55 -117.774 L2108.55 -78.9462 L2108.55 -40.1184 L2108.55 -1.29062 L2108.55 37.5372 L2108.55 76.3649 L2108.55 115.193 L2108.55 154.02 L2108.55 192.848 L2108.55 231.676 L2108.55 270.504 L2108.55 309.332 L2108.55 348.159 L2108.55 386.987 L2108.55 425.815 L2108.55 464.643 L2108.55 503.47 L2108.55 542.298 L2108.55 581.126 L2108.55 619.954 L2108.55 658.781 L2108.55 697.609 L2108.55 736.437 L2108.55 775.265 L2108.55 814.093 L2108.55 852.92 L2108.55 891.748 L2108.55 930.576 L2108.55 969.404 L2108.55 1008.23 L2108.55 1047.06 L2108.55 1085.89 L2108.55 1124.71 L2108.55 1163.54 L2108.55 1202.37 L2108.55 1241.2 L2108.55 1280.03 L2108.55 1318.85 L2108.55 1357.68 L2108.55 1396.51 L2108.55 1435.34 L2108.55 1474.16 L2108.55 1474.16 L2108.55 1474.16 L2108.55 1474.16 L2070.06 1474.16 L2031.56 1474.16 L1993.07 1474.16 L1954.58 1474.16 L1959.42 1474.16 L1959.25 1435.34 L1959.03 1396.51 L1958.74 1357.68 L1958.38 1318.85 L1957.92 1280.03 L1957.32 1241.2 L1956.55 1202.37 L1955.54 1163.54 L1954.58 1134.86 L1954.17 1124.71 L1952.16 1085.89 L1949.55 1047.06 L1946.24 1008.23 L1942.09 969.404 L1937.03 930.576 L1931 891.748 L1924.02 852.92 L1916.15 814.093 L1916.09 813.838 L1906.23 775.265 L1895.88 736.437 L1885.37 697.609 L1877.6 668.514 L1874.65 658.781 L1863.47 619.954 L1852.99 581.126 L1843.33 542.298 L1839.11 523.593 L1834.09 503.47 L1825.46 464.643 L1817.84 425.815 L1811.18 386.987 L1805.4 348.159 L1800.62 310.819 L1800.41 309.332 L1795.74 270.504 L1791.76 231.676 L1788.39 192.848 L1785.55 154.02 L1783.15 115.193 L1781.14 76.3649 L1779.46 37.5372 L1778.05 -1.29062 L1776.87 -40.1184 L1775.89 -78.9462 L1775.07 -117.774 L1774.39 -156.602 L1773.83 -195.429 L1773.36 -234.257 L1772.96 -273.085 L1772.64 -311.913 L1772.37 -350.741 L1772.15 -389.568 L1771.96 -428.396 L1762.13 -428.396 L1800.62 -428.396  Z" fill="#8e8eff" fill-rule="evenodd" fill-opacity="1"/>
<path clip-path="url(#clip182)" d="M1877.6 -428.396 L1916.09 -428.396 L1954.58 -428.396 L1993.07 -428.396 L2031.56 -428.396 L2070.06 -428.396 L2108.55 -428.396 L2108.55 -428.396 L2108.55 -428.396 L2108.55 -428.396 L2108.55 -389.568 L2108.55 -350.741 L2108.55 -311.913 L2108.55 -273.085 L2108.55 -234.257 L2108.55 -195.429 L2108.55 -156.602 L2108.55 -117.774 L2108.55 -78.9462 L2108.55 -40.1184 L2108.55 -1.29062 L2108.55 37.5372 L2108.55 76.3649 L2108.55 115.193 L2108.55 154.02 L2108.55 192.848 L2108.55 231.676 L2108.55 270.504 L2108.55 309.332 L2108.55 348.159 L2108.55 386.987 L2108.55 425.815 L2108.55 464.643 L2108.55 503.47 L2108.55 542.298 L2108.55 581.126 L2108.55 619.954 L2108.55 658.781 L2108.55 697.609 L2108.55 736.437 L2108.55 775.265 L2108.55 814.093 L2108.55 852.92 L2108.55 891.748 L2108.55 930.576 L2108.55 969.404 L2108.55 1008.23 L2108.55 1047.06 L2108.55 1085.89 L2108.55 1124.71 L2108.55 1163.54 L2108.55 1202.37 L2108.55 1241.2 L2108.55 1280.03 L2108.55 1318.85 L2108.55 1357.68 L2108.55 1396.51 L2108.55 1435.34 L2108.55 1474.16 L2108.55 1474.16 L2108.55 1474.16 L2108.55 1474.16 L2070.06 1474.16 L2031.56 1474.16 L1993.07 1474.16 L1993.38 1474.16 L1993.3 1435.34 L1993.21 1396.51 L1993.09 1357.68 L1993.07 1354.58 L1992.92 1318.85 L1992.7 1280.03 L1992.42 1241.2 L1992.05 1202.37 L1991.55 1163.54 L1990.89 1124.71 L1990 1085.89 L1988.8 1047.06 L1987.2 1008.23 L1985.09 969.404 L1982.37 930.576 L1978.94 891.748 L1974.73 852.92 L1969.73 814.093 L1963.96 775.265 L1957.53 736.437 L1954.58 719.601 L1950.01 697.609 L1941.81 658.781 L1933.66 619.954 L1925.76 581.126 L1918.3 542.298 L1916.09 529.832 L1910.89 503.47 L1903.97 464.643 L1897.8 425.815 L1892.37 386.987 L1887.63 348.159 L1883.54 309.332 L1880.02 270.504 L1877.6 239.192 L1876.96 231.676 L1874.17 192.848 L1871.81 154.02 L1869.82 115.193 L1868.15 76.3649 L1866.75 37.5372 L1865.58 -1.29062 L1864.6 -40.1184 L1863.78 -78.9462 L1863.1 -117.774 L1862.54 -156.602 L1862.06 -195.429 L1861.67 -234.257 L1861.35 -273.085 L1861.08 -311.913 L1860.85 -350.741 L1860.67 -389.568 L1860.51 -428.396 L1839.11 -428.396 L1877.6 -428.396  Z" fill="#6a6aff" fill-rule="evenodd" fill-opacity="1"/>
<path clip-path="url(#clip182)" d="M1954.58 -428.396 L1993.07 -428.396 L2031.56 -428.396 L2070.06 -428.396 L2108.55 -428.396 L2108.55 -428.396 L2108.55 -428.396 L2108.55 -428.396 L2108.55 -389.568 L2108.55 -350.741 L2108.55 -311.913 L2108.55 -273.085 L2108.55 -234.257 L2108.55 -195.429 L2108.55 -156.602 L2108.55 -117.774 L2108.55 -78.9462 L2108.55 -40.1184 L2108.55 -1.29062 L2108.55 37.5372 L2108.55 76.3649 L2108.55 115.193 L2108.55 154.02 L2108.55 192.848 L2108.55 231.676 L2108.55 270.504 L2108.55 309.332 L2108.55 348.159 L2108.55 386.987 L2108.55 425.815 L2108.55 464.643 L2108.55 503.47 L2108.55 542.298 L2108.55 581.126 L2108.55 619.954 L2108.55 658.781 L2108.55 697.609 L2108.55 736.437 L2108.55 775.265 L2108.55 814.093 L2108.55 852.92 L2108.55 891.748 L2108.55 930.576 L2108.55 969.404 L2108.55 1008.23 L2108.55 1047.06 L2108.55 1085.89 L2108.55 1124.71 L2108.55 1163.54 L2108.55 1202.37 L2108.55 1241.2 L2108.55 1280.03 L2108.55 1318.85 L2108.55 1357.68 L2108.55 1396.51 L2108.55 1435.34 L2108.55 1474.16 L2108.55 1474.16 L2108.55 1474.16 L2108.55 1474.16 L2070.06 1474.16 L2031.56 1474.16 L1993.07 1474.16 L2023.8 1474.16 L2023.76 1435.34 L2023.72 1396.51 L2023.66 1357.68 L2023.59 1318.85 L2023.51 1280.03 L2023.41 1241.2 L2023.27 1202.37 L2023.09 1163.54 L2022.84 1124.71 L2022.51 1085.89 L2022.05 1047.06 L2021.41 1008.23 L2020.54 969.404 L2019.36 930.576 L2017.8 891.748 L2015.76 852.92 L2013.19 814.093 L2010.03 775.265 L2006.27 736.437 L2001.96 697.609 L1997.19 658.781 L1993.07 627.164 L1991.95 619.954 L1985.94 581.126 L1980.05 542.298 L1974.45 503.47 L1969.24 464.643 L1964.48 425.815 L1960.22 386.987 L1956.45 348.159 L1954.58 326.151 L1953.01 309.332 L1949.88 270.504 L1947.2 231.676 L1944.91 192.848 L1942.98 154.02 L1941.34 115.193 L1939.96 76.3649 L1938.8 37.5372 L1937.83 -1.29062 L1937.02 -40.1184 L1936.34 -78.9462 L1935.78 -117.774 L1935.31 -156.602 L1934.92 -195.429 L1934.59 -234.257 L1934.32 -273.085 L1934.1 -311.913 L1933.91 -350.741 L1933.76 -389.568 L1933.63 -428.396 L1916.09 -428.396 L1954.58 -428.396  Z" fill="#4747ff" fill-rule="evenodd" fill-opacity="1"/>
<path clip-path="url(#clip182)" d="M2031.56 -428.396 L2070.06 -428.396 L2108.55 -428.396 L2108.55 -428.396 L2108.55 -428.396 L2108.55 -428.396 L2108.55 -389.568 L2108.55 -350.741 L2108.55 -311.913 L2108.55 -273.085 L2108.55 -234.257 L2108.55 -195.429 L2108.55 -156.602 L2108.55 -117.774 L2108.55 -78.9462 L2108.55 -40.1184 L2108.55 -1.29062 L2108.55 37.5372 L2108.55 76.3649 L2108.55 115.193 L2108.55 154.02 L2108.55 192.848 L2108.55 231.676 L2108.55 270.504 L2108.55 309.332 L2108.55 348.159 L2108.55 386.987 L2108.55 425.815 L2108.55 464.643 L2108.55 503.47 L2108.55 542.298 L2108.55 581.126 L2108.55 619.954 L2108.55 658.781 L2108.55 697.609 L2108.55 736.437 L2108.55 775.265 L2108.55 814.093 L2108.55 852.92 L2108.55 891.748 L2108.55 930.576 L2108.55 969.404 L2108.55 1008.23 L2108.55 1047.06 L2108.55 1085.89 L2108.55 1124.71 L2108.55 1163.54 L2108.55 1202.37 L2108.55 1241.2 L2108.55 1280.03 L2108.55 1318.85 L2108.55 1357.68 L2108.55 1396.51 L2108.55 1435.34 L2108.55 1474.16 L2108.55 1474.16 L2108.55 1474.16 L2108.55 1474.16 L2070.06 1474.16 L2031.56 1474.16 L2052.02 1474.16 L2052.01 1435.34 L2052 1396.51 L2051.99 1357.68 L2051.98 1318.85 L2051.97 1280.03 L2051.95 1241.2 L2051.93 1202.37 L2051.89 1163.54 L2051.83 1124.71 L2051.74 1085.89 L2051.62 1047.06 L2051.43 1008.23 L2051.15 969.404 L2050.76 930.576 L2050.22 891.748 L2049.49 852.92 L2048.52 814.093 L2047.26 775.265 L2045.66 736.437 L2043.7 697.609 L2041.36 658.781 L2038.65 619.954 L2035.63 581.126 L2032.39 542.298 L2031.56 532.523 L2028.57 503.47 L2024.69 464.643 L2021 425.815 L2017.59 386.987 L2014.5 348.159 L2011.74 309.332 L2009.32 270.504 L2007.21 231.676 L2005.39 192.848 L2003.83 154.02 L2002.5 115.193 L2001.38 76.3649 L2000.44 37.5372 L1999.64 -1.29062 L1998.97 -40.1184 L1998.42 -78.9462 L1997.95 -117.774 L1997.56 -156.602 L1997.24 -195.429 L1996.97 -234.257 L1996.74 -273.085 L1996.56 -311.913 L1996.4 -350.741 L1996.28 -389.568 L1996.17 -428.396 L1993.07 -428.396 L2031.56 -428.396  Z" fill="#2323ff" fill-rule="evenodd" fill-opacity="1"/>
<path clip-path="url(#clip182)" d="M2070.06 -428.396 L2108.55 -428.396 L2108.55 -428.396 L2108.55 -428.396 L2108.55 -428.396 L2108.55 -389.568 L2108.55 -350.741 L2108.55 -311.913 L2108.55 -273.085 L2108.55 -234.257 L2108.55 -195.429 L2108.55 -156.602 L2108.55 -117.774 L2108.55 -78.9462 L2108.55 -40.1184 L2108.55 -1.29062 L2108.55 37.5372 L2108.55 76.3649 L2108.55 115.193 L2108.55 154.02 L2108.55 192.848 L2108.55 231.676 L2108.55 270.504 L2108.55 309.332 L2108.55 348.159 L2108.55 386.987 L2108.55 425.815 L2108.55 464.643 L2108.55 503.47 L2108.55 542.298 L2108.55 581.126 L2108.55 619.954 L2108.55 658.781 L2108.55 697.609 L2108.55 736.437 L2108.55 775.265 L2108.55 814.093 L2108.55 852.92 L2108.55 891.748 L2108.55 930.576 L2108.55 969.404 L2108.55 1008.23 L2108.55 1047.06 L2108.55 1085.89 L2108.55 1124.71 L2108.55 1163.54 L2108.55 1202.37 L2108.55 1241.2 L2108.55 1280.03 L2108.55 1318.85 L2108.55 1357.68 L2108.55 1396.51 L2108.55 1435.34 L2108.55 1474.16 L2108.55 1474.16 L2108.55 1474.16 L2108.55 1474.16 L2070.06 1474.16 L2078.77 1474.16 L2078.78 1435.34 L2078.79 1396.51 L2078.8 1357.68 L2078.81 1318.85 L2078.83 1280.03 L2078.85 1241.2 L2078.87 1202.37 L2078.89 1163.54 L2078.9 1124.71 L2078.91 1085.89 L2078.92 1047.06 L2078.91 1008.23 L2078.88 969.404 L2078.83 930.576 L2078.75 891.748 L2078.61 852.92 L2078.41 814.093 L2078.12 775.265 L2077.72 736.437 L2077.19 697.609 L2076.52 658.781 L2075.7 619.954 L2074.71 581.126 L2073.56 542.298 L2072.26 503.47 L2070.84 464.643 L2070.06 444.315 L2069.04 425.815 L2066.9 386.987 L2064.83 348.159 L2062.87 309.332 L2061.06 270.504 L2059.42 231.676 L2057.97 192.848 L2056.69 154.02 L2055.58 115.193 L2054.63 76.3649 L2053.82 37.5372 L2053.13 -1.29062 L2052.54 -40.1184 L2052.05 -78.9462 L2051.63 -117.774 L2051.29 -156.602 L2051 -195.429 L2050.75 -234.257 L2050.55 -273.085 L2050.38 -311.913 L2050.24 -350.741 L2050.13 -389.568 L2050.03 -428.396 L2031.56 -428.396 L2070.06 -428.396  Z" fill="#0000ff" fill-rule="evenodd" fill-opacity="1"/>
<polyline clip-path="url(#clip182)" style="stroke:#fdfcfd; stroke-linecap:round; stroke-linejoin:round; stroke-width:0; stroke-opacity:1; fill:none" points="607.405,-428.396 645.895,-428.396 684.386,-428.396 722.877,-428.396 761.368,-428.396 799.859,-428.396 838.35,-428.396 876.84,-428.396 915.331,-428.396 953.822,-428.396 992.313,-428.396 1030.8,-428.396 1069.29,-428.396 1107.79,-428.396 1146.28,-428.396 1184.77,-428.396 1223.26,-428.396 1261.75,-428.396 1300.24,-428.396 1338.73,-428.396 1377.22,-428.396 1415.71,-428.396 1454.2,-428.396 1492.69,-428.396 1531.18,-428.396 1569.68,-428.396 1608.17,-428.396 1646.66,-428.396 1685.15,-428.396 1723.64,-428.396 1762.13,-428.396 1800.62,-428.396 1839.11,-428.396 1877.6,-428.396 1916.09,-428.396 1954.58,-428.396 1993.07,-428.396 2031.56,-428.396 2070.06,-428.396 2108.55,-428.396 2108.55,-389.568 2108.55,-350.741 2108.55,-311.913 2108.55,-273.085 2108.55,-234.257 2108.55,-195.429 2108.55,-156.602 2108.55,-117.774 2108.55,-78.9462 2108.55,-40.1184 2108.55,-1.29062 2108.55,37.5372 2108.55,76.3649 2108.55,115.193 2108.55,154.02 2108.55,192.848 2108.55,231.676 2108.55,270.504 2108.55,309.332 2108.55,348.159 2108.55,386.987 2108.55,425.815 2108.55,464.643 2108.55,503.47 2108.55,542.298 2108.55,581.126 2108.55,619.954 2108.55,658.781 2108.55,697.609 2108.55,736.437 2108.55,775.265 2108.55,814.093 2108.55,852.92 2108.55,891.748 2108.55,930.576 2108.55,969.404 2108.55,1008.23 2108.55,1047.06 2108.55,1085.89 2108.55,1124.71 2108.55,1163.54 2108.55,1202.37 2108.55,1241.2 2108.55,1280.03 2108.55,1318.85 2108.55,1357.68 2108.55,1396.51 2108.55,1435.34 2108.55,1474.16 2070.06,1474.16 2031.56,1474.16 1993.07,1474.16 1954.58,1474.16 1916.09,1474.16 1877.6,1474.16 1839.11,1474.16 1800.62,1474.16 1762.13,1474.16 1723.64,1474.16 1685.15,1474.16 1646.66,1474.16 1608.17,1474.16 1618.99,1474.16 1613.36,1435.34 1608.17,1403.33 1606.67,1396.51 1596.86,1357.68 1586.36,1318.85 1575.31,1280.03 1569.68,1261.96 1561.61,1241.2 1545.55,1202.37 1531.18,1167.92 1529.03,1163.54 1508.14,1124.71 1492.69,1095.67 1486.81,1085.89 1462.35,1047.06 1454.2,1034.44 1435.72,1008.23 1415.71,979.796 1407.87,969.404 1378.3,930.576 1377.22,929.208 1345.99,891.748 1338.73,883.029 1312.59,852.92 1300.24,838.663 1278.2,814.093 1261.75,795.658 1242.99,775.265 1223.26,753.622 1207.15,736.437 1184.77,712.208 1170.91,697.609 1146.28,671.106 1134.5,658.781 1107.79,630.03 1098.15,619.954 1069.29,588.708 1062.07,581.126 1030.8,546.865 1026.49,542.298 992.313,504.213 991.621,503.47 957.173,464.643 953.822,460.577 923.666,425.815 915.331,415.373 891.396,386.987 876.84,368.085 860.573,348.159 838.35,318.138 831.414,309.332 803.68,270.504 799.859,264.564 777.137,231.676 761.368,205.879 752.794,192.848 730.096,154.02 722.877,140.013 709.022,115.193 690.096,76.3649 684.386,62.959 672.607,37.5372 657.022,-1.29062 645.895,-33.4623 643.384,-40.1184 630.734,-78.9462 619.926,-117.774 610.717,-156.602 607.405,-173.015 602.453,-195.429 595.182,-234.257 589.043,-273.085 583.872,-311.913 579.526,-350.741 575.88,-389.568 572.828,-428.396 568.914,-428.396 607.405,-428.396 "/>
<polyline clip-path="url(#clip182)" style="stroke:#fdfcfd; stroke-linecap:round; stroke-linejoin:round; stroke-width:0; stroke-opacity:1; fill:none" points="1261.75,-428.396 1300.24,-428.396 1338.73,-428.396 1377.22,-428.396 1415.71,-428.396 1454.2,-428.396 1492.69,-428.396 1531.18,-428.396 1569.68,-428.396 1608.17,-428.396 1646.66,-428.396 1685.15,-428.396 1723.64,-428.396 1762.13,-428.396 1800.62,-428.396 1839.11,-428.396 1877.6,-428.396 1916.09,-428.396 1954.58,-428.396 1993.07,-428.396 2031.56,-428.396 2070.06,-428.396 2108.55,-428.396 2108.55,-389.568 2108.55,-350.741 2108.55,-311.913 2108.55,-273.085 2108.55,-234.257 2108.55,-195.429 2108.55,-156.602 2108.55,-117.774 2108.55,-78.9462 2108.55,-40.1184 2108.55,-1.29062 2108.55,37.5372 2108.55,76.3649 2108.55,115.193 2108.55,154.02 2108.55,192.848 2108.55,231.676 2108.55,270.504 2108.55,309.332 2108.55,348.159 2108.55,386.987 2108.55,425.815 2108.55,464.643 2108.55,503.47 2108.55,542.298 2108.55,581.126 2108.55,619.954 2108.55,658.781 2108.55,697.609 2108.55,736.437 2108.55,775.265 2108.55,814.093 2108.55,852.92 2108.55,891.748 2108.55,930.576 2108.55,969.404 2108.55,1008.23 2108.55,1047.06 2108.55,1085.89 2108.55,1124.71 2108.55,1163.54 2108.55,1202.37 2108.55,1241.2 2108.55,1280.03 2108.55,1318.85 2108.55,1357.68 2108.55,1396.51 2108.55,1435.34 2108.55,1474.16 2070.06,1474.16 2031.56,1474.16 1993.07,1474.16 1954.58,1474.16 1916.09,1474.16 1877.6,1474.16 1839.11,1474.16 1800.62,1474.16 1813.85,1474.16 1811.72,1435.34 1809.17,1396.51 1806.13,1357.68 1802.53,1318.85 1800.62,1301.35 1797.41,1280.03 1790.73,1241.2 1783.16,1202.37 1774.65,1163.54 1765.12,1124.71 1762.13,1113.79 1752.5,1085.89 1738.19,1047.06 1723.64,1009.56 1723.02,1008.23 1703.99,969.404 1685.15,931.132 1684.83,930.576 1662.33,891.748 1646.66,864.163 1639.52,852.92 1615.31,814.093 1608.17,802.305 1590.17,775.265 1569.68,742.744 1565.34,736.437 1539.94,697.609 1531.18,683.291 1514.93,658.781 1492.69,622.272 1491.16,619.954 1467.4,581.126 1454.2,557.241 1445.25,542.298 1424.25,503.47 1415.71,485.813 1404.58,464.643 1386.47,425.815 1377.22,403.298 1369.92,386.987 1354.65,348.159 1341.41,309.332 1338.73,300.298 1329.08,270.504 1318.25,231.676 1308.97,192.848 1301.06,154.02 1300.24,149.322 1293.75,115.193 1287.49,76.3649 1282.2,37.5372 1277.74,-1.29062 1274,-40.1184 1270.86,-78.9462 1268.23,-117.774 1266.03,-156.602 1264.2,-195.429 1262.67,-234.257 1261.75,-262.275 1261.36,-273.085 1260.2,-311.913 1259.23,-350.741 1258.43,-389.568 1257.76,-428.396 1223.26,-428.396 1261.75,-428.396 "/>
<polyline clip-path="url(#clip182)" style="stroke:#fdfcfd; stroke-linecap:round; stroke-linejoin:round; stroke-width:0; stroke-opacity:1; fill:none" points="1531.18,-428.396 1569.68,-428.396 1608.17,-428.396 1646.66,-428.396 1685.15,-428.396 1723.64,-428.396 1762.13,-428.396 1800.62,-428.396 1839.11,-428.396 1877.6,-428.396 1916.09,-428.396 1954.58,-428.396 1993.07,-428.396 2031.56,-428.396 2070.06,-428.396 2108.55,-428.396 2108.55,-389.568 2108.55,-350.741 2108.55,-311.913 2108.55,-273.085 2108.55,-234.257 2108.55,-195.429 2108.55,-156.602 2108.55,-117.774 2108.55,-78.9462 2108.55,-40.1184 2108.55,-1.29062 2108.55,37.5372 2108.55,76.3649 2108.55,115.193 2108.55,154.02 2108.55,192.848 2108.55,231.676 2108.55,270.504 2108.55,309.332 2108.55,348.159 2108.55,386.987 2108.55,425.815 2108.55,464.643 2108.55,503.47 2108.55,542.298 2108.55,581.126 2108.55,619.954 2108.55,658.781 2108.55,697.609 2108.55,736.437 2108.55,775.265 2108.55,814.093 2108.55,852.92 2108.55,891.748 2108.55,930.576 2108.55,969.404 2108.55,1008.23 2108.55,1047.06 2108.55,1085.89 2108.55,1124.71 2108.55,1163.54 2108.55,1202.37 2108.55,1241.2 2108.55,1280.03 2108.55,1318.85 2108.55,1357.68 2108.55,1396.51 2108.55,1435.34 2108.55,1474.16 2070.06,1474.16 2031.56,1474.16 1993.07,1474.16 1954.58,1474.16 1916.09,1474.16 1877.6,1474.16 1839.11,1474.16 1876.89,1474.16 1875.85,1435.34 1874.55,1396.51 1872.94,1357.68 1870.94,1318.85 1868.47,1280.03 1865.43,1241.2 1861.72,1202.37 1857.23,1163.54 1851.84,1124.71 1845.45,1085.89 1839.11,1052.9 1837.7,1047.06 1827.25,1008.23 1815.67,969.404 1803.06,930.576 1800.62,923.524 1787.69,891.748 1771.46,852.92 1762.13,830.93 1754,814.093 1735.5,775.265 1723.64,749.629 1716.84,736.437 1697.74,697.609 1685.15,670.321 1679.28,658.781 1660.96,619.954 1646.66,586.699 1644.03,581.126 1627.39,542.298 1612.55,503.47 1608.17,490.599 1598.5,464.643 1585.78,425.815 1574.68,386.987 1569.68,366.866 1564.59,348.159 1555.46,309.332 1547.64,270.504 1540.96,231.676 1535.27,192.848 1531.18,159.894 1530.39,154.02 1525.93,115.193 1522.17,76.3649 1519.01,37.5372 1516.37,-1.29062 1514.16,-40.1184 1512.31,-78.9462 1510.76,-117.774 1509.48,-156.602 1508.41,-195.429 1507.52,-234.257 1506.78,-273.085 1506.16,-311.913 1505.65,-350.741 1505.22,-389.568 1504.87,-428.396 1492.69,-428.396 1531.18,-428.396 "/>
<polyline clip-path="url(#clip182)" style="stroke:#fdfcfd; stroke-linecap:round; stroke-linejoin:round; stroke-width:0; stroke-opacity:1; fill:none" points="1685.15,-428.396 1723.64,-428.396 1762.13,-428.396 1800.62,-428.396 1839.11,-428.396 1877.6,-428.396 1916.09,-428.396 1954.58,-428.396 1993.07,-428.396 2031.56,-428.396 2070.06,-428.396 2108.55,-428.396 2108.55,-389.568 2108.55,-350.741 2108.55,-311.913 2108.55,-273.085 2108.55,-234.257 2108.55,-195.429 2108.55,-156.602 2108.55,-117.774 2108.55,-78.9462 2108.55,-40.1184 2108.55,-1.29062 2108.55,37.5372 2108.55,76.3649 2108.55,115.193 2108.55,154.02 2108.55,192.848 2108.55,231.676 2108.55,270.504 2108.55,309.332 2108.55,348.159 2108.55,386.987 2108.55,425.815 2108.55,464.643 2108.55,503.47 2108.55,542.298 2108.55,581.126 2108.55,619.954 2108.55,658.781 2108.55,697.609 2108.55,736.437 2108.55,775.265 2108.55,814.093 2108.55,852.92 2108.55,891.748 2108.55,930.576 2108.55,969.404 2108.55,1008.23 2108.55,1047.06 2108.55,1085.89 2108.55,1124.71 2108.55,1163.54 2108.55,1202.37 2108.55,1241.2 2108.55,1280.03 2108.55,1318.85 2108.55,1357.68 2108.55,1396.51 2108.55,1435.34 2108.55,1474.16 2070.06,1474.16 2031.56,1474.16 1993.07,1474.16 1954.58,1474.16 1916.09,1474.16 1921.46,1474.16 1921.07,1435.34 1920.58,1396.51 1919.96,1357.68 1919.18,1318.85 1918.18,1280.03 1916.91,1241.2 1916.09,1221.34 1915.13,1202.37 1912.66,1163.54 1909.54,1124.71 1905.66,1085.89 1900.88,1047.06 1895.11,1008.23 1888.27,969.404 1880.33,930.576 1877.6,918.609 1870.22,891.748 1858.69,852.92 1846.47,814.093 1839.11,791.378 1833.1,775.265 1818.7,736.437 1804.64,697.609 1800.62,686.03 1790.06,658.781 1775.99,619.954 1763.01,581.126 1762.13,578.227 1750.07,542.298 1738.38,503.47 1728.01,464.643 1723.64,446.06 1718.41,425.815 1709.67,386.987 1702.11,348.159 1695.6,309.332 1690.03,270.504 1685.29,231.676 1685.15,230.329 1680.89,192.848 1677.16,154.02 1674.02,115.193 1671.39,76.3649 1669.17,37.5372 1667.32,-1.29062 1665.78,-40.1184 1664.49,-78.9462 1663.41,-117.774 1662.52,-156.602 1661.77,-195.429 1661.15,-234.257 1660.64,-273.085 1660.21,-311.913 1659.86,-350.741 1659.56,-389.568 1659.32,-428.396 1646.66,-428.396 1685.15,-428.396 "/>
<polyline clip-path="url(#clip182)" style="stroke:#fdfcfd; stroke-linecap:round; stroke-linejoin:round; stroke-width:0; stroke-opacity:1; fill:none" points="1800.62,-428.396 1839.11,-428.396 1877.6,-428.396 1916.09,-428.396 1954.58,-428.396 1993.07,-428.396 2031.56,-428.396 2070.06,-428.396 2108.55,-428.396 2108.55,-389.568 2108.55,-350.741 2108.55,-311.913 2108.55,-273.085 2108.55,-234.257 2108.55,-195.429 2108.55,-156.602 2108.55,-117.774 2108.55,-78.9462 2108.55,-40.1184 2108.55,-1.29062 2108.55,37.5372 2108.55,76.3649 2108.55,115.193 2108.55,154.02 2108.55,192.848 2108.55,231.676 2108.55,270.504 2108.55,309.332 2108.55,348.159 2108.55,386.987 2108.55,425.815 2108.55,464.643 2108.55,503.47 2108.55,542.298 2108.55,581.126 2108.55,619.954 2108.55,658.781 2108.55,697.609 2108.55,736.437 2108.55,775.265 2108.55,814.093 2108.55,852.92 2108.55,891.748 2108.55,930.576 2108.55,969.404 2108.55,1008.23 2108.55,1047.06 2108.55,1085.89 2108.55,1124.71 2108.55,1163.54 2108.55,1202.37 2108.55,1241.2 2108.55,1280.03 2108.55,1318.85 2108.55,1357.68 2108.55,1396.51 2108.55,1435.34 2108.55,1474.16 2070.06,1474.16 2031.56,1474.16 1993.07,1474.16 1954.58,1474.16 1959.42,1474.16 1959.25,1435.34 1959.03,1396.51 1958.74,1357.68 1958.38,1318.85 1957.92,1280.03 1957.32,1241.2 1956.55,1202.37 1955.54,1163.54 1954.58,1134.86 1954.17,1124.71 1952.16,1085.89 1949.55,1047.06 1946.24,1008.23 1942.09,969.404 1937.03,930.576 1931,891.748 1924.02,852.92 1916.15,814.093 1916.09,813.838 1906.23,775.265 1895.88,736.437 1885.37,697.609 1877.6,668.514 1874.65,658.781 1863.47,619.954 1852.99,581.126 1843.33,542.298 1839.11,523.593 1834.09,503.47 1825.46,464.643 1817.84,425.815 1811.18,386.987 1805.4,348.159 1800.62,310.819 1800.41,309.332 1795.74,270.504 1791.76,231.676 1788.39,192.848 1785.55,154.02 1783.15,115.193 1781.14,76.3649 1779.46,37.5372 1778.05,-1.29062 1776.87,-40.1184 1775.89,-78.9462 1775.07,-117.774 1774.39,-156.602 1773.83,-195.429 1773.36,-234.257 1772.96,-273.085 1772.64,-311.913 1772.37,-350.741 1772.15,-389.568 1771.96,-428.396 1762.13,-428.396 1800.62,-428.396 "/>
<polyline clip-path="url(#clip182)" style="stroke:#fdfcfd; stroke-linecap:round; stroke-linejoin:round; stroke-width:0; stroke-opacity:1; fill:none" points="1877.6,-428.396 1916.09,-428.396 1954.58,-428.396 1993.07,-428.396 2031.56,-428.396 2070.06,-428.396 2108.55,-428.396 2108.55,-389.568 2108.55,-350.741 2108.55,-311.913 2108.55,-273.085 2108.55,-234.257 2108.55,-195.429 2108.55,-156.602 2108.55,-117.774 2108.55,-78.9462 2108.55,-40.1184 2108.55,-1.29062 2108.55,37.5372 2108.55,76.3649 2108.55,115.193 2108.55,154.02 2108.55,192.848 2108.55,231.676 2108.55,270.504 2108.55,309.332 2108.55,348.159 2108.55,386.987 2108.55,425.815 2108.55,464.643 2108.55,503.47 2108.55,542.298 2108.55,581.126 2108.55,619.954 2108.55,658.781 2108.55,697.609 2108.55,736.437 2108.55,775.265 2108.55,814.093 2108.55,852.92 2108.55,891.748 2108.55,930.576 2108.55,969.404 2108.55,1008.23 2108.55,1047.06 2108.55,1085.89 2108.55,1124.71 2108.55,1163.54 2108.55,1202.37 2108.55,1241.2 2108.55,1280.03 2108.55,1318.85 2108.55,1357.68 2108.55,1396.51 2108.55,1435.34 2108.55,1474.16 2070.06,1474.16 2031.56,1474.16 1993.07,1474.16 1993.38,1474.16 1993.3,1435.34 1993.21,1396.51 1993.09,1357.68 1993.07,1354.58 1992.92,1318.85 1992.7,1280.03 1992.42,1241.2 1992.05,1202.37 1991.55,1163.54 1990.89,1124.71 1990,1085.89 1988.8,1047.06 1987.2,1008.23 1985.09,969.404 1982.37,930.576 1978.94,891.748 1974.73,852.92 1969.73,814.093 1963.96,775.265 1957.53,736.437 1954.58,719.601 1950.01,697.609 1941.81,658.781 1933.66,619.954 1925.76,581.126 1918.3,542.298 1916.09,529.832 1910.89,503.47 1903.97,464.643 1897.8,425.815 1892.37,386.987 1887.63,348.159 1883.54,309.332 1880.02,270.504 1877.6,239.192 1876.96,231.676 1874.17,192.848 1871.81,154.02 1869.82,115.193 1868.15,76.3649 1866.75,37.5372 1865.58,-1.29062 1864.6,-40.1184 1863.78,-78.9462 1863.1,-117.774 1862.54,-156.602 1862.06,-195.429 1861.67,-234.257 1861.35,-273.085 1861.08,-311.913 1860.85,-350.741 1860.67,-389.568 1860.51,-428.396 1839.11,-428.396 1877.6,-428.396 "/>
<polyline clip-path="url(#clip182)" style="stroke:#fdfcfd; stroke-linecap:round; stroke-linejoin:round; stroke-width:0; stroke-opacity:1; fill:none" points="1954.58,-428.396 1993.07,-428.396 2031.56,-428.396 2070.06,-428.396 2108.55,-428.396 2108.55,-389.568 2108.55,-350.741 2108.55,-311.913 2108.55,-273.085 2108.55,-234.257 2108.55,-195.429 2108.55,-156.602 2108.55,-117.774 2108.55,-78.9462 2108.55,-40.1184 2108.55,-1.29062 2108.55,37.5372 2108.55,76.3649 2108.55,115.193 2108.55,154.02 2108.55,192.848 2108.55,231.676 2108.55,270.504 2108.55,309.332 2108.55,348.159 2108.55,386.987 2108.55,425.815 2108.55,464.643 2108.55,503.47 2108.55,542.298 2108.55,581.126 2108.55,619.954 2108.55,658.781 2108.55,697.609 2108.55,736.437 2108.55,775.265 2108.55,814.093 2108.55,852.92 2108.55,891.748 2108.55,930.576 2108.55,969.404 2108.55,1008.23 2108.55,1047.06 2108.55,1085.89 2108.55,1124.71 2108.55,1163.54 2108.55,1202.37 2108.55,1241.2 2108.55,1280.03 2108.55,1318.85 2108.55,1357.68 2108.55,1396.51 2108.55,1435.34 2108.55,1474.16 2070.06,1474.16 2031.56,1474.16 1993.07,1474.16 2023.8,1474.16 2023.76,1435.34 2023.72,1396.51 2023.66,1357.68 2023.59,1318.85 2023.51,1280.03 2023.41,1241.2 2023.27,1202.37 2023.09,1163.54 2022.84,1124.71 2022.51,1085.89 2022.05,1047.06 2021.41,1008.23 2020.54,969.404 2019.36,930.576 2017.8,891.748 2015.76,852.92 2013.19,814.093 2010.03,775.265 2006.27,736.437 2001.96,697.609 1997.19,658.781 1993.07,627.164 1991.95,619.954 1985.94,581.126 1980.05,542.298 1974.45,503.47 1969.24,464.643 1964.48,425.815 1960.22,386.987 1956.45,348.159 1954.58,326.151 1953.01,309.332 1949.88,270.504 1947.2,231.676 1944.91,192.848 1942.98,154.02 1941.34,115.193 1939.96,76.3649 1938.8,37.5372 1937.83,-1.29062 1937.02,-40.1184 1936.34,-78.9462 1935.78,-117.774 1935.31,-156.602 1934.92,-195.429 1934.59,-234.257 1934.32,-273.085 1934.1,-311.913 1933.91,-350.741 1933.76,-389.568 1933.63,-428.396 1916.09,-428.396 1954.58,-428.396 "/>
<polyline clip-path="url(#clip182)" style="stroke:#fdfcfd; stroke-linecap:round; stroke-linejoin:round; stroke-width:0; stroke-opacity:1; fill:none" points="2031.56,-428.396 2070.06,-428.396 2108.55,-428.396 2108.55,-389.568 2108.55,-350.741 2108.55,-311.913 2108.55,-273.085 2108.55,-234.257 2108.55,-195.429 2108.55,-156.602 2108.55,-117.774 2108.55,-78.9462 2108.55,-40.1184 2108.55,-1.29062 2108.55,37.5372 2108.55,76.3649 2108.55,115.193 2108.55,154.02 2108.55,192.848 2108.55,231.676 2108.55,270.504 2108.55,309.332 2108.55,348.159 2108.55,386.987 2108.55,425.815 2108.55,464.643 2108.55,503.47 2108.55,542.298 2108.55,581.126 2108.55,619.954 2108.55,658.781 2108.55,697.609 2108.55,736.437 2108.55,775.265 2108.55,814.093 2108.55,852.92 2108.55,891.748 2108.55,930.576 2108.55,969.404 2108.55,1008.23 2108.55,1047.06 2108.55,1085.89 2108.55,1124.71 2108.55,1163.54 2108.55,1202.37 2108.55,1241.2 2108.55,1280.03 2108.55,1318.85 2108.55,1357.68 2108.55,1396.51 2108.55,1435.34 2108.55,1474.16 2070.06,1474.16 2031.56,1474.16 2052.02,1474.16 2052.01,1435.34 2052,1396.51 2051.99,1357.68 2051.98,1318.85 2051.97,1280.03 2051.95,1241.2 2051.93,1202.37 2051.89,1163.54 2051.83,1124.71 2051.74,1085.89 2051.62,1047.06 2051.43,1008.23 2051.15,969.404 2050.76,930.576 2050.22,891.748 2049.49,852.92 2048.52,814.093 2047.26,775.265 2045.66,736.437 2043.7,697.609 2041.36,658.781 2038.65,619.954 2035.63,581.126 2032.39,542.298 2031.56,532.523 2028.57,503.47 2024.69,464.643 2021,425.815 2017.59,386.987 2014.5,348.159 2011.74,309.332 2009.32,270.504 2007.21,231.676 2005.39,192.848 2003.83,154.02 2002.5,115.193 2001.38,76.3649 2000.44,37.5372 1999.64,-1.29062 1998.97,-40.1184 1998.42,-78.9462 1997.95,-117.774 1997.56,-156.602 1997.24,-195.429 1996.97,-234.257 1996.74,-273.085 1996.56,-311.913 1996.4,-350.741 1996.28,-389.568 1996.17,-428.396 1993.07,-428.396 2031.56,-428.396 "/>
<polyline clip-path="url(#clip182)" style="stroke:#fdfcfd; stroke-linecap:round; stroke-linejoin:round; stroke-width:0; stroke-opacity:1; fill:none" points="2070.06,-428.396 2108.55,-428.396 2108.55,-389.568 2108.55,-350.741 2108.55,-311.913 2108.55,-273.085 2108.55,-234.257 2108.55,-195.429 2108.55,-156.602 2108.55,-117.774 2108.55,-78.9462 2108.55,-40.1184 2108.55,-1.29062 2108.55,37.5372 2108.55,76.3649 2108.55,115.193 2108.55,154.02 2108.55,192.848 2108.55,231.676 2108.55,270.504 2108.55,309.332 2108.55,348.159 2108.55,386.987 2108.55,425.815 2108.55,464.643 2108.55,503.47 2108.55,542.298 2108.55,581.126 2108.55,619.954 2108.55,658.781 2108.55,697.609 2108.55,736.437 2108.55,775.265 2108.55,814.093 2108.55,852.92 2108.55,891.748 2108.55,930.576 2108.55,969.404 2108.55,1008.23 2108.55,1047.06 2108.55,1085.89 2108.55,1124.71 2108.55,1163.54 2108.55,1202.37 2108.55,1241.2 2108.55,1280.03 2108.55,1318.85 2108.55,1357.68 2108.55,1396.51 2108.55,1435.34 2108.55,1474.16 2070.06,1474.16 2078.77,1474.16 2078.78,1435.34 2078.79,1396.51 2078.8,1357.68 2078.81,1318.85 2078.83,1280.03 2078.85,1241.2 2078.87,1202.37 2078.89,1163.54 2078.9,1124.71 2078.91,1085.89 2078.92,1047.06 2078.91,1008.23 2078.88,969.404 2078.83,930.576 2078.75,891.748 2078.61,852.92 2078.41,814.093 2078.12,775.265 2077.72,736.437 2077.19,697.609 2076.52,658.781 2075.7,619.954 2074.71,581.126 2073.56,542.298 2072.26,503.47 2070.84,464.643 2070.06,444.315 2069.04,425.815 2066.9,386.987 2064.83,348.159 2062.87,309.332 2061.06,270.504 2059.42,231.676 2057.97,192.848 2056.69,154.02 2055.58,115.193 2054.63,76.3649 2053.82,37.5372 2053.13,-1.29062 2052.54,-40.1184 2052.05,-78.9462 2051.63,-117.774 2051.29,-156.602 2051,-195.429 2050.75,-234.257 2050.55,-273.085 2050.38,-311.913 2050.24,-350.741 2050.13,-389.568 2050.03,-428.396 2031.56,-428.396 2070.06,-428.396 "/>
<defs>
  <clipPath id="clip183">
    <rect x="2160" y="47" width="73" height="1428"/>
  </clipPath>
</defs>
<path clip-path="url(#clip183)" d="M2160.76 1474.16 L2232.76 1474.16 L2232.76 1315.62 L2160.76 1315.62  Z" fill="#fdfcfd" fill-rule="evenodd" fill-opacity="1"/>
<path clip-path="url(#clip183)" d="M2160.76 1315.62 L2232.76 1315.62 L2232.76 1157.07 L2160.76 1157.07  Z" fill="#f6f5fe" fill-rule="evenodd" fill-opacity="1"/>
<path clip-path="url(#clip183)" d="M2160.76 1157.07 L2232.76 1157.07 L2232.76 998.524 L2160.76 998.524  Z" fill="#d4d4ff" fill-rule="evenodd" fill-opacity="1"/>
<path clip-path="url(#clip183)" d="M2160.76 998.524 L2232.76 998.524 L2232.76 839.978 L2160.76 839.978  Z" fill="#b0b0ff" fill-rule="evenodd" fill-opacity="1"/>
<path clip-path="url(#clip183)" d="M2160.76 839.978 L2232.76 839.978 L2232.76 681.431 L2160.76 681.431  Z" fill="#8d8dff" fill-rule="evenodd" fill-opacity="1"/>
<path clip-path="url(#clip183)" d="M2160.76 681.431 L2232.76 681.431 L2232.76 522.884 L2160.76 522.884  Z" fill="#6a6aff" fill-rule="evenodd" fill-opacity="1"/>
<path clip-path="url(#clip183)" d="M2160.76 522.884 L2232.76 522.884 L2232.76 364.338 L2160.76 364.338  Z" fill="#4747ff" fill-rule="evenodd" fill-opacity="1"/>
<path clip-path="url(#clip183)" d="M2160.76 364.338 L2232.76 364.338 L2232.76 205.791 L2160.76 205.791  Z" fill="#2323ff" fill-rule="evenodd" fill-opacity="1"/>
<path clip-path="url(#clip183)" d="M2160.76 205.791 L2232.76 205.791 L2232.76 47.2441 L2160.76 47.2441  Z" fill="#0000ff" fill-rule="evenodd" fill-opacity="1"/>
<g clip-path="url(#clip180)">
<text style="fill:#000000; fill-opacity:1; font-family:Arial,Helvetica Neue,Helvetica,sans-serif; font-size:48px; text-anchor:start;" transform="rotate(0, 2268.76, 1487.82)" x="2268.76" y="1487.82">0</text>
</g>
<polyline clip-path="url(#clip180)" style="stroke:#000000; stroke-linecap:round; stroke-linejoin:round; stroke-width:4; stroke-opacity:1; fill:none" points="2232.76,1474.16 2256.76,1474.16 "/>
<g clip-path="url(#clip180)">
<text style="fill:#000000; fill-opacity:1; font-family:Arial,Helvetica Neue,Helvetica,sans-serif; font-size:48px; text-anchor:start;" transform="rotate(0, 2268.76, 1250)" x="2268.76" y="1250">0.5</text>
</g>
<polyline clip-path="url(#clip180)" style="stroke:#000000; stroke-linecap:round; stroke-linejoin:round; stroke-width:4; stroke-opacity:1; fill:none" points="2232.76,1236.34 2256.76,1236.34 "/>
<g clip-path="url(#clip180)">
<text style="fill:#000000; fill-opacity:1; font-family:Arial,Helvetica Neue,Helvetica,sans-serif; font-size:48px; text-anchor:start;" transform="rotate(0, 2268.76, 1012.18)" x="2268.76" y="1012.18">1.0</text>
</g>
<polyline clip-path="url(#clip180)" style="stroke:#000000; stroke-linecap:round; stroke-linejoin:round; stroke-width:4; stroke-opacity:1; fill:none" points="2232.76,998.524 2256.76,998.524 "/>
<g clip-path="url(#clip180)">
<text style="fill:#000000; fill-opacity:1; font-family:Arial,Helvetica Neue,Helvetica,sans-serif; font-size:48px; text-anchor:start;" transform="rotate(0, 2268.76, 774.356)" x="2268.76" y="774.356">1.5</text>
</g>
<polyline clip-path="url(#clip180)" style="stroke:#000000; stroke-linecap:round; stroke-linejoin:round; stroke-width:4; stroke-opacity:1; fill:none" points="2232.76,760.704 2256.76,760.704 "/>
<g clip-path="url(#clip180)">
<text style="fill:#000000; fill-opacity:1; font-family:Arial,Helvetica Neue,Helvetica,sans-serif; font-size:48px; text-anchor:start;" transform="rotate(0, 2268.76, 536.535)" x="2268.76" y="536.535">2.0</text>
</g>
<polyline clip-path="url(#clip180)" style="stroke:#000000; stroke-linecap:round; stroke-linejoin:round; stroke-width:4; stroke-opacity:1; fill:none" points="2232.76,522.884 2256.76,522.884 "/>
<g clip-path="url(#clip180)">
<text style="fill:#000000; fill-opacity:1; font-family:Arial,Helvetica Neue,Helvetica,sans-serif; font-size:48px; text-anchor:start;" transform="rotate(0, 2268.76, 298.715)" x="2268.76" y="298.715">2.5</text>
</g>
<polyline clip-path="url(#clip180)" style="stroke:#000000; stroke-linecap:round; stroke-linejoin:round; stroke-width:4; stroke-opacity:1; fill:none" points="2232.76,285.064 2256.76,285.064 "/>
<g clip-path="url(#clip180)">
<text style="fill:#000000; fill-opacity:1; font-family:Arial,Helvetica Neue,Helvetica,sans-serif; font-size:48px; text-anchor:start;" transform="rotate(0, 2268.76, 60.8953)" x="2268.76" y="60.8953">3.0</text>
</g>
<polyline clip-path="url(#clip180)" style="stroke:#000000; stroke-linecap:round; stroke-linejoin:round; stroke-width:4; stroke-opacity:1; fill:none" points="2232.76,47.2441 2256.76,47.2441 "/>
<polyline clip-path="url(#clip180)" style="stroke:#000000; stroke-linecap:round; stroke-linejoin:round; stroke-width:4; stroke-opacity:1; fill:none" points="2232.76,1474.16 2232.76,47.2441 "/>
</svg>
