<?xml version="1.0" encoding="utf-8"?>
<svg xmlns="http://www.w3.org/2000/svg" xmlns:xlink="http://www.w3.org/1999/xlink" width="700" height="180" viewBox="0 0 2800 720">
<defs>
  <clipPath id="clip610">
    <rect x="0" y="0" width="2800" height="720"/>
  </clipPath>
</defs>
<path clip-path="url(#clip610)" d="M0 720 L2800 720 L2800 -4.58808e-14 L0 -4.58808e-14  Z" fill="#ffffff" fill-rule="evenodd" fill-opacity="1"/>
<defs>
  <clipPath id="clip611">
    <rect x="560" y="0" width="1961" height="720"/>
  </clipPath>
</defs>
<path clip-path="url(#clip610)" d="M174.816 606.575 L881.629 606.575 L881.629 79.1599 L174.816 79.1599  Z" fill="#ffffff" fill-rule="evenodd" fill-opacity="1"/>
<defs>
  <clipPath id="clip612">
    <rect x="174" y="79" width="708" height="528"/>
  </clipPath>
</defs>
<polyline clip-path="url(#clip612)" style="stroke:#000000; stroke-linecap:round; stroke-linejoin:round; stroke-width:2; stroke-opacity:0.1; fill:none" points="194.82,606.575 194.82,79.1599 "/>
<polyline clip-path="url(#clip612)" style="stroke:#000000; stroke-linecap:round; stroke-linejoin:round; stroke-width:2; stroke-opacity:0.1; fill:none" points="328.181,606.575 328.181,79.1599 "/>
<polyline clip-path="url(#clip612)" style="stroke:#000000; stroke-linecap:round; stroke-linejoin:round; stroke-width:2; stroke-opacity:0.1; fill:none" points="461.542,606.575 461.542,79.1599 "/>
<polyline clip-path="url(#clip612)" style="stroke:#000000; stroke-linecap:round; stroke-linejoin:round; stroke-width:2; stroke-opacity:0.1; fill:none" points="594.903,606.575 594.903,79.1599 "/>
<polyline clip-path="url(#clip612)" style="stroke:#000000; stroke-linecap:round; stroke-linejoin:round; stroke-width:2; stroke-opacity:0.1; fill:none" points="728.264,606.575 728.264,79.1599 "/>
<polyline clip-path="url(#clip612)" style="stroke:#000000; stroke-linecap:round; stroke-linejoin:round; stroke-width:2; stroke-opacity:0.1; fill:none" points="861.625,606.575 861.625,79.1599 "/>
<polyline clip-path="url(#clip612)" style="stroke:#000000; stroke-linecap:round; stroke-linejoin:round; stroke-width:2; stroke-opacity:0.1; fill:none" points="194.82,606.575 194.82,79.1599 "/>
<polyline clip-path="url(#clip612)" style="stroke:#000000; stroke-linecap:round; stroke-linejoin:round; stroke-width:2; stroke-opacity:0.1; fill:none" points="328.181,606.575 328.181,79.1599 "/>
<polyline clip-path="url(#clip612)" style="stroke:#000000; stroke-linecap:round; stroke-linejoin:round; stroke-width:2; stroke-opacity:0.1; fill:none" points="461.542,606.575 461.542,79.1599 "/>
<polyline clip-path="url(#clip612)" style="stroke:#000000; stroke-linecap:round; stroke-linejoin:round; stroke-width:2; stroke-opacity:0.1; fill:none" points="594.903,606.575 594.903,79.1599 "/>
<polyline clip-path="url(#clip612)" style="stroke:#000000; stroke-linecap:round; stroke-linejoin:round; stroke-width:2; stroke-opacity:0.1; fill:none" points="728.264,606.575 728.264,79.1599 "/>
<polyline clip-path="url(#clip612)" style="stroke:#000000; stroke-linecap:round; stroke-linejoin:round; stroke-width:2; stroke-opacity:0.1; fill:none" points="861.625,606.575 861.625,79.1599 "/>
<polyline clip-path="url(#clip610)" style="stroke:#000000; stroke-linecap:round; stroke-linejoin:round; stroke-width:4; stroke-opacity:1; fill:none" points="174.816,606.575 881.629,606.575 "/>
<polyline clip-path="url(#clip610)" style="stroke:#000000; stroke-linecap:round; stroke-linejoin:round; stroke-width:4; stroke-opacity:1; fill:none" points="174.816,79.1599 881.629,79.1599 "/>
<polyline clip-path="url(#clip610)" style="stroke:#000000; stroke-linecap:round; stroke-linejoin:round; stroke-width:4; stroke-opacity:1; fill:none" points="194.82,606.575 194.82,625.472 "/>
<polyline clip-path="url(#clip610)" style="stroke:#000000; stroke-linecap:round; stroke-linejoin:round; stroke-width:4; stroke-opacity:1; fill:none" points="328.181,606.575 328.181,625.472 "/>
<polyline clip-path="url(#clip610)" style="stroke:#000000; stroke-linecap:round; stroke-linejoin:round; stroke-width:4; stroke-opacity:1; fill:none" points="461.542,606.575 461.542,625.472 "/>
<polyline clip-path="url(#clip610)" style="stroke:#000000; stroke-linecap:round; stroke-linejoin:round; stroke-width:4; stroke-opacity:1; fill:none" points="594.903,606.575 594.903,625.472 "/>
<polyline clip-path="url(#clip610)" style="stroke:#000000; stroke-linecap:round; stroke-linejoin:round; stroke-width:4; stroke-opacity:1; fill:none" points="728.264,606.575 728.264,625.472 "/>
<polyline clip-path="url(#clip610)" style="stroke:#000000; stroke-linecap:round; stroke-linejoin:round; stroke-width:4; stroke-opacity:1; fill:none" points="861.625,606.575 861.625,625.472 "/>
<polyline clip-path="url(#clip610)" style="stroke:#000000; stroke-linecap:round; stroke-linejoin:round; stroke-width:4; stroke-opacity:1; fill:none" points="194.82,79.1599 194.82,60.2623 "/>
<polyline clip-path="url(#clip610)" style="stroke:#000000; stroke-linecap:round; stroke-linejoin:round; stroke-width:4; stroke-opacity:1; fill:none" points="328.181,79.1599 328.181,60.2623 "/>
<polyline clip-path="url(#clip610)" style="stroke:#000000; stroke-linecap:round; stroke-linejoin:round; stroke-width:4; stroke-opacity:1; fill:none" points="461.542,79.1599 461.542,60.2623 "/>
<polyline clip-path="url(#clip610)" style="stroke:#000000; stroke-linecap:round; stroke-linejoin:round; stroke-width:4; stroke-opacity:1; fill:none" points="594.903,79.1599 594.903,60.2623 "/>
<polyline clip-path="url(#clip610)" style="stroke:#000000; stroke-linecap:round; stroke-linejoin:round; stroke-width:4; stroke-opacity:1; fill:none" points="728.264,79.1599 728.264,60.2623 "/>
<polyline clip-path="url(#clip610)" style="stroke:#000000; stroke-linecap:round; stroke-linejoin:round; stroke-width:4; stroke-opacity:1; fill:none" points="861.625,79.1599 861.625,60.2623 "/>
<g clip-path="url(#clip610)">
<text style="fill:#000000; fill-opacity:1; font-family:Arial,Helvetica Neue,Helvetica,sans-serif; font-size:48px; text-anchor:middle;" transform="rotate(0, 194.82, 682.824)" x="194.82" y="682.824">0</text>
</g>
<g clip-path="url(#clip610)">
<text style="fill:#000000; fill-opacity:1; font-family:Arial,Helvetica Neue,Helvetica,sans-serif; font-size:48px; text-anchor:middle;" transform="rotate(0, 328.181, 682.824)" x="328.181" y="682.824">2</text>
</g>
<g clip-path="url(#clip610)">
<text style="fill:#000000; fill-opacity:1; font-family:Arial,Helvetica Neue,Helvetica,sans-serif; font-size:48px; text-anchor:middle;" transform="rotate(0, 461.542, 682.824)" x="461.542" y="682.824">4</text>
</g>
<g clip-path="url(#clip610)">
<text style="fill:#000000; fill-opacity:1; font-family:Arial,Helvetica Neue,Helvetica,sans-serif; font-size:48px; text-anchor:middle;" transform="rotate(0, 594.903, 682.824)" x="594.903" y="682.824">6</text>
</g>
<g clip-path="url(#clip610)">
<text style="fill:#000000; fill-opacity:1; font-family:Arial,Helvetica Neue,Helvetica,sans-serif; font-size:48px; text-anchor:middle;" transform="rotate(0, 728.264, 682.824)" x="728.264" y="682.824">8</text>
</g>
<g clip-path="url(#clip610)">
<text style="fill:#000000; fill-opacity:1; font-family:Arial,Helvetica Neue,Helvetica,sans-serif; font-size:48px; text-anchor:middle;" transform="rotate(0, 861.625, 682.824)" x="861.625" y="682.824">10</text>
</g>
<g clip-path="url(#clip610)">
<text style="fill:#000000; fill-opacity:1; font-family:Arial,Helvetica Neue,Helvetica,sans-serif; font-size:53px; text-anchor:middle;" transform="rotate(0, 528.222, 747.662)" x="528.222" y="747.662">Time [h]</text>
</g>
<polyline clip-path="url(#clip612)" style="stroke:#000000; stroke-linecap:round; stroke-linejoin:round; stroke-width:2; stroke-opacity:0.1; fill:none" points="174.816,591.648 881.629,591.648 "/>
<polyline clip-path="url(#clip612)" style="stroke:#000000; stroke-linecap:round; stroke-linejoin:round; stroke-width:2; stroke-opacity:0.1; fill:none" points="174.816,508.721 881.629,508.721 "/>
<polyline clip-path="url(#clip612)" style="stroke:#000000; stroke-linecap:round; stroke-linejoin:round; stroke-width:2; stroke-opacity:0.1; fill:none" points="174.816,425.794 881.629,425.794 "/>
<polyline clip-path="url(#clip612)" style="stroke:#000000; stroke-linecap:round; stroke-linejoin:round; stroke-width:2; stroke-opacity:0.1; fill:none" points="174.816,342.867 881.629,342.867 "/>
<polyline clip-path="url(#clip612)" style="stroke:#000000; stroke-linecap:round; stroke-linejoin:round; stroke-width:2; stroke-opacity:0.1; fill:none" points="174.816,259.94 881.629,259.94 "/>
<polyline clip-path="url(#clip612)" style="stroke:#000000; stroke-linecap:round; stroke-linejoin:round; stroke-width:2; stroke-opacity:0.1; fill:none" points="174.816,177.014 881.629,177.014 "/>
<polyline clip-path="url(#clip612)" style="stroke:#000000; stroke-linecap:round; stroke-linejoin:round; stroke-width:2; stroke-opacity:0.1; fill:none" points="174.816,94.0867 881.629,94.0867 "/>
<polyline clip-path="url(#clip612)" style="stroke:#000000; stroke-linecap:round; stroke-linejoin:round; stroke-width:2; stroke-opacity:0.1; fill:none" points="174.816,591.648 881.629,591.648 "/>
<polyline clip-path="url(#clip612)" style="stroke:#000000; stroke-linecap:round; stroke-linejoin:round; stroke-width:2; stroke-opacity:0.1; fill:none" points="174.816,508.721 881.629,508.721 "/>
<polyline clip-path="url(#clip612)" style="stroke:#000000; stroke-linecap:round; stroke-linejoin:round; stroke-width:2; stroke-opacity:0.1; fill:none" points="174.816,425.794 881.629,425.794 "/>
<polyline clip-path="url(#clip612)" style="stroke:#000000; stroke-linecap:round; stroke-linejoin:round; stroke-width:2; stroke-opacity:0.1; fill:none" points="174.816,342.867 881.629,342.867 "/>
<polyline clip-path="url(#clip612)" style="stroke:#000000; stroke-linecap:round; stroke-linejoin:round; stroke-width:2; stroke-opacity:0.1; fill:none" points="174.816,259.94 881.629,259.94 "/>
<polyline clip-path="url(#clip612)" style="stroke:#000000; stroke-linecap:round; stroke-linejoin:round; stroke-width:2; stroke-opacity:0.1; fill:none" points="174.816,177.014 881.629,177.014 "/>
<polyline clip-path="url(#clip612)" style="stroke:#000000; stroke-linecap:round; stroke-linejoin:round; stroke-width:2; stroke-opacity:0.1; fill:none" points="174.816,94.0867 881.629,94.0867 "/>
<polyline clip-path="url(#clip610)" style="stroke:#000000; stroke-linecap:round; stroke-linejoin:round; stroke-width:4; stroke-opacity:1; fill:none" points="174.816,606.575 174.816,79.1599 "/>
<polyline clip-path="url(#clip610)" style="stroke:#000000; stroke-linecap:round; stroke-linejoin:round; stroke-width:4; stroke-opacity:1; fill:none" points="881.629,606.575 881.629,79.1599 "/>
<polyline clip-path="url(#clip610)" style="stroke:#000000; stroke-linecap:round; stroke-linejoin:round; stroke-width:4; stroke-opacity:1; fill:none" points="174.816,591.648 155.918,591.648 "/>
<polyline clip-path="url(#clip610)" style="stroke:#000000; stroke-linecap:round; stroke-linejoin:round; stroke-width:4; stroke-opacity:1; fill:none" points="174.816,508.721 155.918,508.721 "/>
<polyline clip-path="url(#clip610)" style="stroke:#000000; stroke-linecap:round; stroke-linejoin:round; stroke-width:4; stroke-opacity:1; fill:none" points="174.816,425.794 155.918,425.794 "/>
<polyline clip-path="url(#clip610)" style="stroke:#000000; stroke-linecap:round; stroke-linejoin:round; stroke-width:4; stroke-opacity:1; fill:none" points="174.816,342.867 155.918,342.867 "/>
<polyline clip-path="url(#clip610)" style="stroke:#000000; stroke-linecap:round; stroke-linejoin:round; stroke-width:4; stroke-opacity:1; fill:none" points="174.816,259.94 155.918,259.94 "/>
<polyline clip-path="url(#clip610)" style="stroke:#000000; stroke-linecap:round; stroke-linejoin:round; stroke-width:4; stroke-opacity:1; fill:none" points="174.816,177.014 155.918,177.014 "/>
<polyline clip-path="url(#clip610)" style="stroke:#000000; stroke-linecap:round; stroke-linejoin:round; stroke-width:4; stroke-opacity:1; fill:none" points="174.816,94.0867 155.918,94.0867 "/>
<polyline clip-path="url(#clip610)" style="stroke:#000000; stroke-linecap:round; stroke-linejoin:round; stroke-width:4; stroke-opacity:1; fill:none" points="881.629,591.648 900.526,591.648 "/>
<polyline clip-path="url(#clip610)" style="stroke:#000000; stroke-linecap:round; stroke-linejoin:round; stroke-width:4; stroke-opacity:1; fill:none" points="881.629,508.721 900.526,508.721 "/>
<polyline clip-path="url(#clip610)" style="stroke:#000000; stroke-linecap:round; stroke-linejoin:round; stroke-width:4; stroke-opacity:1; fill:none" points="881.629,425.794 900.526,425.794 "/>
<polyline clip-path="url(#clip610)" style="stroke:#000000; stroke-linecap:round; stroke-linejoin:round; stroke-width:4; stroke-opacity:1; fill:none" points="881.629,342.867 900.526,342.867 "/>
<polyline clip-path="url(#clip610)" style="stroke:#000000; stroke-linecap:round; stroke-linejoin:round; stroke-width:4; stroke-opacity:1; fill:none" points="881.629,259.94 900.526,259.94 "/>
<polyline clip-path="url(#clip610)" style="stroke:#000000; stroke-linecap:round; stroke-linejoin:round; stroke-width:4; stroke-opacity:1; fill:none" points="881.629,177.014 900.526,177.014 "/>
<polyline clip-path="url(#clip610)" style="stroke:#000000; stroke-linecap:round; stroke-linejoin:round; stroke-width:4; stroke-opacity:1; fill:none" points="881.629,94.0867 900.526,94.0867 "/>
<g clip-path="url(#clip610)">
<text style="fill:#000000; fill-opacity:1; font-family:Arial,Helvetica Neue,Helvetica,sans-serif; font-size:48px; text-anchor:middle;" transform="rotate(0, 85.0535, 609.148)" x="85.0535" y="609.148">−2</text>
</g>
<g clip-path="url(#clip610)">
<text style="fill:#000000; fill-opacity:1; font-family:Arial,Helvetica Neue,Helvetica,sans-serif; font-size:48px; text-anchor:middle;" transform="rotate(0, 85.0535, 526.221)" x="85.0535" y="526.221">−1</text>
</g>
<g clip-path="url(#clip610)">
<text style="fill:#000000; fill-opacity:1; font-family:Arial,Helvetica Neue,Helvetica,sans-serif; font-size:48px; text-anchor:middle;" transform="rotate(0, 98.4347, 443.294)" x="98.4347" y="443.294">0</text>
</g>
<g clip-path="url(#clip610)">
<text style="fill:#000000; fill-opacity:1; font-family:Arial,Helvetica Neue,Helvetica,sans-serif; font-size:48px; text-anchor:middle;" transform="rotate(0, 98.4347, 360.367)" x="98.4347" y="360.367">1</text>
</g>
<g clip-path="url(#clip610)">
<text style="fill:#000000; fill-opacity:1; font-family:Arial,Helvetica Neue,Helvetica,sans-serif; font-size:48px; text-anchor:middle;" transform="rotate(0, 98.4347, 277.44)" x="98.4347" y="277.44">2</text>
</g>
<g clip-path="url(#clip610)">
<text style="fill:#000000; fill-opacity:1; font-family:Arial,Helvetica Neue,Helvetica,sans-serif; font-size:48px; text-anchor:middle;" transform="rotate(0, 98.4347, 194.514)" x="98.4347" y="194.514">3</text>
</g>
<g clip-path="url(#clip610)">
<text style="fill:#000000; fill-opacity:1; font-family:Arial,Helvetica Neue,Helvetica,sans-serif; font-size:48px; text-anchor:middle;" transform="rotate(0, 98.4347, 111.587)" x="98.4347" y="111.587">4</text>
</g>
<g clip-path="url(#clip610)">
<text style="fill:#000000; fill-opacity:1; font-family:Arial,Helvetica Neue,Helvetica,sans-serif; font-size:53px; text-anchor:middle;" transform="rotate(-90, 27.504, 342.867)" x="27.504" y="342.867">Growth rate</text>
</g>
<g clip-path="url(#clip610)">
<text style="fill:#000000; fill-opacity:1; font-family:Arial,Helvetica Neue,Helvetica,sans-serif; font-size:59px; text-anchor:start;" transform="rotate(0, 174.816, 51.6)" x="174.816" y="51.6">(a)</text>
</g>
<polyline clip-path="url(#clip612)" style="stroke:#0000ff; stroke-linecap:round; stroke-linejoin:round; stroke-width:8; stroke-opacity:1; fill:none" points="128.139,236.226 129.743,356.96 131.347,340.427 132.95,408.57 134.554,317.071 136.157,380.801 137.761,308.892 139.364,460.496 140.968,443.706 142.571,303.326 144.175,339.661 145.778,334.922 147.382,248.985 148.985,359.33 150.589,364.577 152.193,297.725 153.796,344.564 155.4,342.995 157.003,257.941 158.607,295.569 160.21,415.975 161.814,449.949 163.417,311.354 165.021,208.118 166.624,507.268 168.228,321.135 169.831,202.145 171.435,343.386 173.039,304.947 174.642,324.895 176.246,406.07 177.849,333.859 179.453,353.288 181.056,465.267 182.66,345.387 184.263,341.681 185.867,400.649 187.47,216.85 189.074,281.338 190.677,254.349 192.281,329.725 193.885,430.421 195.488,415.968 197.092,432.16 198.695,273.665 200.299,378.524 201.902,557.834 203.506,294.958 205.109,374.197 206.713,249.518 208.316,322.281 209.92,312.448 211.523,304.722 213.127,420.966 214.731,256.501 216.334,306.412 217.938,327.196 219.541,314.529 221.145,264.981 222.748,389.161 224.352,270.143 225.955,384.568 227.559,222.134 229.162,352.121 230.766,464.696 232.369,287.934 233.973,333.497 235.577,328.524 237.18,337.669 238.784,315.005 240.387,300.637 241.991,237.409 243.594,436.181 245.198,419.856 246.801,293.373 248.405,463.527 250.008,362.863 251.612,442.093 253.215,150.244 254.819,352.391 256.423,443.347 258.026,322.385 259.63,300.874 261.233,294.894 262.837,228.708 264.44,305.084 266.044,450.624 267.647,250.997 269.251,363.882 270.854,280.749 272.458,320.989 274.061,369.966 275.665,336.707 277.269,487.217 278.872,332.126 280.476,479.208 282.079,338.808 283.683,481.538 285.286,315.536 286.89,270.427 288.493,260.72 290.097,322.23 291.7,468.496 293.304,393.525 294.907,456.425 296.511,261.86 298.115,274.228 299.718,317.027 301.322,318.197 302.925,430.871 304.529,434.401 306.132,308.19 307.736,246.376 309.339,445.296 310.943,348.195 312.546,345.997 314.15,250.443 315.753,413.11 317.357,302.538 318.961,426.676 320.564,212.649 322.168,349.674 323.771,423.733 325.375,403.312 326.978,432.557 328.582,203.356 330.185,240.412 331.789,305.733 333.392,280.453 334.996,368.014 336.599,158.65 338.203,291.812 339.807,425.521 341.41,276.761 343.014,377.084 344.617,468.797 346.221,441.945 347.824,256.205 349.428,334.651 351.031,309.121 352.635,329.935 354.238,385.651 355.842,335.384 357.445,398.074 359.049,324.641 360.653,413.458 362.256,343.534 363.86,347.949 365.463,285.44 367.067,407.066 368.67,403.679 370.274,417.171 371.877,396.792 373.481,418.101 375.084,304.577 376.688,332.854 378.291,235.64 379.895,322.08 381.499,271.78 383.102,253.658 384.706,226.215 386.309,457.834 387.913,173.473 389.516,310.864 391.12,361.981 392.723,396.914 394.327,515.663 395.93,357.374 397.534,421.421 399.137,223.468 400.741,415.659 402.345,413.217 403.948,313.351 405.552,372.707 407.155,302.221 408.759,443.127 410.362,401.011 411.966,250.928 413.569,376.908 415.173,417.602 416.776,329.631 418.38,469.262 419.983,381.734 421.587,409.745 423.191,349.179 424.794,277.172 426.398,438.058 428.001,391.563 429.605,435.768 431.208,283.941 432.812,173.129 434.415,296.512 436.019,410.307 437.622,385.212 439.226,440.051 440.829,364.008 442.433,406.774 444.037,351.385 445.64,348.72 447.244,385.333 448.847,320.934 450.451,295.747 452.054,467.122 453.658,405.913 455.261,332.674 456.865,405.726 458.468,311.894 460.072,359.734 461.675,207.411 463.279,226.843 464.883,408.416 466.486,143.942 468.09,341.416 469.693,350.558 471.297,354.067 472.9,394.535 474.504,349.357 476.107,505.735 477.711,431.149 479.314,307.951 480.918,448.677 482.521,507.369 484.125,279.38 485.729,379.471 487.332,438.028 488.936,347.08 490.539,413.062 492.143,336.194 493.746,418.151 495.35,335.982 496.953,370.079 498.557,293.107 500.16,361.499 501.764,365.767 503.367,321.945 504.971,331.595 506.575,400.884 508.178,257.651 509.782,324.591 511.385,90.6726 512.989,285.855 514.592,330.498 516.196,232.256 517.799,401.421 519.403,398.977 521.006,342.986 522.61,411.071 524.213,346.218 525.817,345.787 527.421,311.522 529.024,386.838 530.628,327.126 532.231,418.784 533.835,369.529 535.438,269.784 537.042,306.826 538.645,399.116 540.249,224.639 541.852,437.236 543.456,426.832 545.059,314.243 546.663,422.03 548.267,327.705 549.87,455.031 551.474,289.397 553.077,376.099 554.681,421.257 556.284,270.313 557.888,395.386 559.491,133.614 561.095,373.214 562.698,386.71 564.302,397.713 565.905,415.96 567.509,346.925 569.113,393.34 570.716,320.371 572.32,253.913 573.923,150.96 575.527,324.09 577.13,451.857 578.734,324.611 580.337,524.07 581.941,267.547 583.544,334.41 585.148,219.297 586.751,363.318 588.355,437.763 589.959,268.922 591.562,364.335 593.166,409.224 594.769,271.795 596.373,406.87 597.976,305.923 599.58,272.538 601.183,342.632 602.787,273.894 604.39,205.561 605.994,201.263 607.597,329.805 609.201,239.219 610.805,354.533 612.408,432.297 614.012,267.681 615.615,463.689 617.219,534.798 618.822,327.441 620.426,375.01 622.029,508.333 623.633,216.227 625.236,380.889 626.84,196.973 628.443,451.98 630.047,315.121 631.651,285.892 633.254,249.292 634.858,375.406 636.461,136.236 638.065,161.077 639.668,119.964 641.272,233.478 642.875,308.19 644.479,411.703 646.082,422.173 647.686,300.133 649.289,243.225 650.893,431.312 652.497,319.893 654.1,383.185 655.704,341.336 657.307,504.796 658.911,452.178 660.514,269.606 662.118,334.973 663.721,302.745 665.325,299.072 666.928,255.683 668.532,308.414 670.135,446.58 671.739,302.634 673.343,221.937 674.946,472.683 676.55,278.043 678.153,191.296 679.757,375.839 681.36,380.859 682.964,296.851 684.567,233.426 686.171,283.851 687.774,446.652 689.378,265.605 690.981,242.986 692.585,414.016 694.189,311.083 695.792,260.962 697.396,273.036 698.999,510.557 700.603,306.384 702.206,418.548 703.81,325.863 705.413,225.114 707.017,408.864 708.62,332.965 710.224,395.907 711.827,388.72 713.431,293.762 715.035,282.704 716.638,248.606 718.242,478.683 719.845,264.836 721.449,444.84 723.052,422.179 724.656,352.628 726.259,324.517 727.863,206.111 729.466,347.596 731.07,423.329 732.673,238.268 734.277,349.356 735.881,320.134 737.484,274.938 739.088,234.739 740.691,307.292 742.295,389.823 743.898,415.371 745.502,428.951 747.105,323.068 748.709,401.093 750.312,270.063 751.916,330.447 753.519,311.526 755.123,311.231 756.727,373.269 758.33,262.821 759.934,412.074 761.537,145.377 763.141,445.098 764.744,274.255 766.348,233.889 767.951,361.418 769.555,301.816 771.158,293.097 772.762,224.524 774.365,271.524 775.969,239.341 777.573,170.429 779.176,373.69 780.78,373.004 782.383,307.063 783.987,298.943 785.59,456.805 787.194,279.422 788.797,331.849 790.401,288.844 792.004,425.34 793.608,374.593 795.211,509.917 796.815,401.598 798.419,257.39 800.022,250.952 801.626,377.468 803.229,384.524 804.833,472.165 806.436,329.809 808.04,410.272 809.643,458.945 811.247,421.753 812.85,379.21 814.454,188.595 816.057,407.142 817.661,315.985 819.265,209.908 820.868,195.416 822.472,342.581 824.075,339.471 825.679,475.52 827.282,385.825 828.886,315.853 830.489,412.871 832.093,377.314 833.696,420.186 835.3,332.443 836.903,260.835 838.507,397.937 840.111,334.291 841.714,286.968 843.318,356.8 844.921,342.804 846.525,325.152 848.128,342.9 849.732,167.351 851.335,280.024 852.939,311.335 854.542,348.087 856.146,337.975 857.749,289.378 859.353,255.888 860.957,392.634 862.56,376.545 864.164,395.968 865.767,242.041 867.371,342.586 868.974,397.768 870.578,387.057 872.181,366.8 873.785,387.769 875.388,396.794 876.992,345.285 878.595,386.944 880.199,264.912 881.803,417.051 883.406,208.383 885.01,310.62 886.613,391.019 888.217,438.92 889.82,399.327 891.424,301.442 893.027,262.708 894.631,412.469 896.234,322.944 897.838,322.288 899.441,282.732 901.045,382.931 902.649,330.848 904.252,414.109 905.856,328.404 907.459,439.455 909.063,364.05 910.666,327.001 912.27,411.081 913.873,350.288 915.477,277.555 917.08,269.177 918.684,317.424 920.287,474.468 921.891,405.202 923.495,502.347 925.098,516.173 926.702,384.741 928.305,348.018 "/>
<polyline clip-path="url(#clip612)" style="stroke:#ff0000; stroke-linecap:round; stroke-linejoin:round; stroke-width:8; stroke-opacity:1; fill:none" points="128.139,411 129.743,396.9 131.347,406.653 132.95,396.029 134.554,396.206 136.157,396.615 137.761,402.418 139.364,381.415 140.968,390.421 142.571,402.357 144.175,400.902 145.778,402.166 147.382,414.962 148.985,402.07 150.589,403.588 152.193,405.641 153.796,400.916 155.4,400.864 157.003,398.204 158.607,393.806 160.21,406.96 161.814,397.602 163.417,400.875 165.021,402.37 166.624,404.836 168.228,397.707 169.831,409.182 171.435,392.679 173.039,395.384 174.642,389.753 176.246,392.783 177.849,403.15 179.453,407.708 181.056,390.308 182.66,411.292 184.263,386.749 185.867,386.957 187.47,413.409 189.074,399.903 190.677,406.26 192.281,398.005 193.885,401.701 195.488,404.593 197.092,395.32 198.695,408.059 200.299,394.828 201.902,392.62 203.506,400.212 205.109,396.408 206.713,407.074 208.316,408.914 209.92,415.471 211.523,404.534 213.127,408.72 214.731,405.615 216.334,400.614 217.938,401.127 219.541,401.556 221.145,415.064 222.748,386.706 224.352,404.021 225.955,390.089 227.559,405.085 229.162,395.779 230.766,394.763 232.369,404.674 233.973,410.815 235.577,413.094 237.18,390.647 238.784,397.522 240.387,404.436 241.991,416.31 243.594,395.592 245.198,383.703 246.801,411.62 248.405,395.236 250.008,401.735 251.612,391.596 253.215,405.556 254.819,414.815 256.423,384.723 258.026,395.596 259.63,396.65 261.233,397.222 262.837,391.264 264.44,404.126 266.044,393.388 267.647,404.124 269.251,394.599 270.854,403.9 272.458,398.328 274.061,394.384 275.665,407.33 277.269,400.038 278.872,406.803 280.476,390.431 282.079,380.048 283.683,398.33 285.286,395.43 286.89,398.236 288.493,413.267 290.097,412.212 291.7,395.754 293.304,396.377 294.907,404.428 296.511,410.548 298.115,404.765 299.718,399.083 301.322,402.054 302.925,396.027 304.529,393.171 306.132,387.398 307.736,407.908 309.339,382.876 310.943,406.736 312.546,396.32 314.15,403.13 315.753,389.934 317.357,412.688 318.961,390.077 320.564,406.681 322.168,407.953 323.771,391.697 325.375,402.152 326.978,386.874 328.582,398.839 330.185,395.766 331.789,403.237 333.392,404.664 334.996,398.492 336.599,406.911 338.203,403.223 339.807,395.326 341.41,401.2 343.014,397.239 344.617,398.57 346.221,385.643 347.824,413.246 349.428,401.92 351.031,403.941 352.635,413.075 354.238,399.719 355.842,401.251 357.445,398.99 359.049,391.762 360.653,393.573 362.256,398.321 363.86,405.498 365.463,394.47 367.067,395.831 368.67,394.836 370.274,396.387 371.877,392.238 373.481,394.43 375.084,392.303 376.688,404.383 378.291,399.776 379.895,403.247 381.499,410.928 383.102,408.768 384.706,409.065 386.309,396.711 387.913,395.627 389.516,402.629 391.12,400.731 392.723,413.631 394.327,399.212 395.93,399.129 397.534,400.237 399.137,401.215 400.741,412.579 402.345,387.738 403.948,404.811 405.552,405.462 407.155,405.34 408.759,401.694 410.362,398.286 411.966,402.501 413.569,392.871 415.173,395.861 416.776,408.362 418.38,385.972 419.983,393.991 421.587,398.279 423.191,405.498 424.794,397.347 426.398,395.653 428.001,402.505 429.605,394.947 431.208,400.693 432.812,412.72 434.415,400.124 436.019,392.537 437.622,408.102 439.226,391.877 440.829,406.148 442.433,384.195 444.037,403.495 445.64,403.872 447.244,390.714 448.847,397.921 450.451,406.584 452.054,389.835 453.658,395.1 455.261,395.697 456.865,393.74 458.468,392.105 460.072,411.482 461.675,404.586 463.279,397.072 464.883,398.115 466.486,411.834 468.09,405.032 469.693,405.908 471.297,404.931 472.9,387.395 474.504,391.71 476.107,389.544 477.711,394.227 479.314,407.627 480.918,376.771 482.521,396.175 484.125,406.366 485.729,399.613 487.332,395.338 488.936,405.125 490.539,395.228 492.143,403.005 493.746,401.905 495.35,392.711 496.953,401.907 498.557,413.591 500.16,391.507 501.764,402.863 503.367,395.135 504.971,401.359 506.575,390.853 508.178,407.88 509.782,399.586 511.385,410.503 512.989,404.776 514.592,399.686 516.196,405.892 517.799,394.76 519.403,374.666 521.006,401.965 522.61,393.271 524.213,400.207 525.817,406.179 527.421,401.999 529.024,400.537 530.628,398.991 532.231,388.997 533.835,402.186 535.438,396.18 537.042,401.596 538.645,399.398 540.249,405.551 541.852,409.244 543.456,385.108 545.059,412.47 546.663,395.779 548.267,402.553 549.87,409.34 551.474,408.686 553.077,406.178 554.681,402.805 556.284,412.967 557.888,392.106 559.491,404.545 561.095,392.584 562.698,396.427 564.302,391.952 565.905,395.535 567.509,395.412 569.113,403.395 570.716,408.141 572.32,412.81 573.923,410.284 575.527,405.001 577.13,392.9 578.734,415.527 580.337,386.49 581.941,417.05 583.544,414.255 585.148,396.82 586.751,405.808 588.355,394.557 589.959,388.7 591.562,402.365 593.166,396.846 594.769,409.874 596.373,389.642 597.976,398.431 599.58,400.088 601.183,410.582 602.787,406.029 604.39,407.218 605.994,413.091 607.597,405.13 609.201,392.262 610.805,384.864 612.408,396.265 614.012,408.841 615.615,392.991 617.219,396.599 618.822,389.173 620.426,392.442 622.029,400.874 623.633,414.857 625.236,393.691 626.84,398.887 628.443,392.773 630.047,396.66 631.651,400.558 633.254,408.947 634.858,402.728 636.461,400.76 638.065,431.228 639.668,412.944 641.272,406.71 642.875,397.621 644.479,387.754 646.082,387.752 647.686,404.557 649.289,410.457 650.893,414.485 652.497,398.76 654.1,397.407 655.704,390.704 657.307,392.803 658.911,393.969 660.514,400.72 662.118,401.581 663.721,400.894 665.325,402.111 666.928,399.011 668.532,408.019 670.135,397.122 671.739,409.222 673.343,400.552 674.946,400.345 676.55,400.241 678.153,416.08 679.757,388.568 681.36,407.023 682.964,405.191 684.567,408.901 686.171,402.948 687.774,391.682 689.378,393.836 690.981,407.316 692.585,412.369 694.189,409.355 695.792,404.814 697.396,401.994 698.999,383.342 700.603,401.316 702.206,400.087 703.81,393.979 705.413,410.153 707.017,395.685 708.62,401.703 710.224,389.086 711.827,388.322 713.431,404.653 715.035,414.167 716.638,409.831 718.242,400.688 719.845,410.774 721.449,400.977 723.052,396.382 724.656,391.166 726.259,415.467 727.863,404.065 729.466,400.071 731.07,394.647 732.673,408.349 734.277,403.683 735.881,422.134 737.484,415.789 739.088,397.558 740.691,392.262 742.295,404.673 743.898,407.474 745.502,381.78 747.105,388.781 748.709,402.406 750.312,414.231 751.916,398.31 753.519,399.714 755.123,409.498 756.727,408.024 758.33,406.724 759.934,397.71 761.537,415.624 763.141,400.21 764.744,406.909 766.348,419.836 767.951,392.452 769.555,395.317 771.158,398.352 772.762,397.903 774.365,397.751 775.969,409.542 777.573,417.574 779.176,390.077 780.78,396.443 782.383,402.184 783.987,399.144 785.59,400.891 787.194,400.743 788.797,399.811 790.401,406.867 792.004,391.215 793.608,397.551 795.211,385.562 796.815,398.085 798.419,406.779 800.022,400.752 801.626,393.55 803.229,398.723 804.833,382.049 806.436,402.876 808.04,399.685 809.643,403.996 811.247,408.558 812.85,393.999 814.454,413.169 816.057,399.319 817.661,402.636 819.265,407.339 820.868,396.404 822.472,396.353 824.075,403.821 825.679,397.994 827.282,401.64 828.886,398.667 830.489,399.981 832.093,410.059 833.696,395.579 835.3,405.728 836.903,407.005 838.507,402.04 840.111,409.726 841.714,409.927 843.318,394.538 844.921,389.229 846.525,400.875 848.128,400.857 849.732,414.216 851.335,398.278 852.939,392.956 854.542,392.557 856.146,399.708 857.749,394.213 859.353,386.918 860.957,391.962 862.56,401.891 864.164,390.761 865.767,400.032 867.371,407.673 868.974,376.835 870.578,394.996 872.181,385.362 873.785,396.625 875.388,404.842 876.992,402.067 878.595,400.851 880.199,407.912 881.803,397.994 883.406,400.432 885.01,414.981 886.613,393.186 888.217,383.295 889.82,385.612 891.424,402.455 893.027,391.449 894.631,405.127 896.234,414.014 897.838,410.844 899.441,412.651 901.045,400.885 902.649,399.218 904.252,393.849 905.856,403.411 907.459,394.368 909.063,407.511 910.666,405.312 912.27,406.672 913.873,406.211 915.477,418.102 917.08,399.644 918.684,400.327 920.287,389.524 921.891,397.409 923.495,390.798 925.098,403.636 926.702,407.096 928.305,393.873 "/>
<path clip-path="url(#clip610)" d="M363.281 588.994 L858.068 588.994 L858.068 438.095 L363.281 438.095  Z" fill="#ffffff" fill-rule="evenodd" fill-opacity="1"/>
<polyline clip-path="url(#clip610)" style="stroke:#000000; stroke-linecap:round; stroke-linejoin:round; stroke-width:4; stroke-opacity:1; fill:none" points="363.281,588.994 858.068,588.994 858.068,438.095 363.281,438.095 363.281,588.994 "/>
<polyline clip-path="url(#clip610)" style="stroke:#0000ff; stroke-linecap:round; stroke-linejoin:round; stroke-width:8; stroke-opacity:1; fill:none" points="371.135,488.395 418.255,488.395 "/>
<g clip-path="url(#clip610)">
<text style="fill:#000000; fill-opacity:1; font-family:Arial,Helvetica Neue,Helvetica,sans-serif; font-size:48px; text-anchor:start;" transform="rotate(0, 426.109, 505.895)" x="426.109" y="505.895">Phenotype 1 (ε = 1)</text>
</g>
<polyline clip-path="url(#clip610)" style="stroke:#ff0000; stroke-linecap:round; stroke-linejoin:round; stroke-width:8; stroke-opacity:1; fill:none" points="371.135,538.694 418.255,538.694 "/>
<g clip-path="url(#clip610)">
<text style="fill:#000000; fill-opacity:1; font-family:Arial,Helvetica Neue,Helvetica,sans-serif; font-size:48px; text-anchor:start;" transform="rotate(0, 426.109, 556.194)" x="426.109" y="556.194">Phenotype 2 (ε = 0)</text>
</g>
<path clip-path="url(#clip610)" d="M1076.93 606.575 L1783.74 606.575 L1783.74 79.1599 L1076.93 79.1599  Z" fill="#ffffff" fill-rule="evenodd" fill-opacity="1"/>
<defs>
  <clipPath id="clip613">
    <rect x="1076" y="79" width="708" height="528"/>
  </clipPath>
</defs>
<polyline clip-path="url(#clip613)" style="stroke:#000000; stroke-linecap:round; stroke-linejoin:round; stroke-width:2; stroke-opacity:0.1; fill:none" points="1110.42,606.575 1110.42,79.1599 "/>
<polyline clip-path="url(#clip613)" style="stroke:#000000; stroke-linecap:round; stroke-linejoin:round; stroke-width:2; stroke-opacity:0.1; fill:none" points="1273.75,606.575 1273.75,79.1599 "/>
<polyline clip-path="url(#clip613)" style="stroke:#000000; stroke-linecap:round; stroke-linejoin:round; stroke-width:2; stroke-opacity:0.1; fill:none" points="1437.08,606.575 1437.08,79.1599 "/>
<polyline clip-path="url(#clip613)" style="stroke:#000000; stroke-linecap:round; stroke-linejoin:round; stroke-width:2; stroke-opacity:0.1; fill:none" points="1600.41,606.575 1600.41,79.1599 "/>
<polyline clip-path="url(#clip613)" style="stroke:#000000; stroke-linecap:round; stroke-linejoin:round; stroke-width:2; stroke-opacity:0.1; fill:none" points="1763.74,606.575 1763.74,79.1599 "/>
<polyline clip-path="url(#clip613)" style="stroke:#000000; stroke-linecap:round; stroke-linejoin:round; stroke-width:2; stroke-opacity:0.1; fill:none" points="1110.42,606.575 1110.42,79.1599 "/>
<polyline clip-path="url(#clip613)" style="stroke:#000000; stroke-linecap:round; stroke-linejoin:round; stroke-width:2; stroke-opacity:0.1; fill:none" points="1273.75,606.575 1273.75,79.1599 "/>
<polyline clip-path="url(#clip613)" style="stroke:#000000; stroke-linecap:round; stroke-linejoin:round; stroke-width:2; stroke-opacity:0.1; fill:none" points="1437.08,606.575 1437.08,79.1599 "/>
<polyline clip-path="url(#clip613)" style="stroke:#000000; stroke-linecap:round; stroke-linejoin:round; stroke-width:2; stroke-opacity:0.1; fill:none" points="1600.41,606.575 1600.41,79.1599 "/>
<polyline clip-path="url(#clip613)" style="stroke:#000000; stroke-linecap:round; stroke-linejoin:round; stroke-width:2; stroke-opacity:0.1; fill:none" points="1763.74,606.575 1763.74,79.1599 "/>
<polyline clip-path="url(#clip610)" style="stroke:#000000; stroke-linecap:round; stroke-linejoin:round; stroke-width:4; stroke-opacity:1; fill:none" points="1076.93,606.575 1783.74,606.575 "/>
<polyline clip-path="url(#clip610)" style="stroke:#000000; stroke-linecap:round; stroke-linejoin:round; stroke-width:4; stroke-opacity:1; fill:none" points="1076.93,79.1599 1783.74,79.1599 "/>
<polyline clip-path="url(#clip610)" style="stroke:#000000; stroke-linecap:round; stroke-linejoin:round; stroke-width:4; stroke-opacity:1; fill:none" points="1110.42,606.575 1110.42,625.472 "/>
<polyline clip-path="url(#clip610)" style="stroke:#000000; stroke-linecap:round; stroke-linejoin:round; stroke-width:4; stroke-opacity:1; fill:none" points="1273.75,606.575 1273.75,625.472 "/>
<polyline clip-path="url(#clip610)" style="stroke:#000000; stroke-linecap:round; stroke-linejoin:round; stroke-width:4; stroke-opacity:1; fill:none" points="1437.08,606.575 1437.08,625.472 "/>
<polyline clip-path="url(#clip610)" style="stroke:#000000; stroke-linecap:round; stroke-linejoin:round; stroke-width:4; stroke-opacity:1; fill:none" points="1600.41,606.575 1600.41,625.472 "/>
<polyline clip-path="url(#clip610)" style="stroke:#000000; stroke-linecap:round; stroke-linejoin:round; stroke-width:4; stroke-opacity:1; fill:none" points="1763.74,606.575 1763.74,625.472 "/>
<polyline clip-path="url(#clip610)" style="stroke:#000000; stroke-linecap:round; stroke-linejoin:round; stroke-width:4; stroke-opacity:1; fill:none" points="1110.42,79.1599 1110.42,60.2623 "/>
<polyline clip-path="url(#clip610)" style="stroke:#000000; stroke-linecap:round; stroke-linejoin:round; stroke-width:4; stroke-opacity:1; fill:none" points="1273.75,79.1599 1273.75,60.2623 "/>
<polyline clip-path="url(#clip610)" style="stroke:#000000; stroke-linecap:round; stroke-linejoin:round; stroke-width:4; stroke-opacity:1; fill:none" points="1437.08,79.1599 1437.08,60.2623 "/>
<polyline clip-path="url(#clip610)" style="stroke:#000000; stroke-linecap:round; stroke-linejoin:round; stroke-width:4; stroke-opacity:1; fill:none" points="1600.41,79.1599 1600.41,60.2623 "/>
<polyline clip-path="url(#clip610)" style="stroke:#000000; stroke-linecap:round; stroke-linejoin:round; stroke-width:4; stroke-opacity:1; fill:none" points="1763.74,79.1599 1763.74,60.2623 "/>
<g clip-path="url(#clip610)">
<text style="fill:#000000; fill-opacity:1; font-family:Arial,Helvetica Neue,Helvetica,sans-serif; font-size:48px; text-anchor:middle;" transform="rotate(0, 1110.42, 682.824)" x="1110.42" y="682.824">0.00</text>
</g>
<g clip-path="url(#clip610)">
<text style="fill:#000000; fill-opacity:1; font-family:Arial,Helvetica Neue,Helvetica,sans-serif; font-size:48px; text-anchor:middle;" transform="rotate(0, 1273.75, 682.824)" x="1273.75" y="682.824">0.25</text>
</g>
<g clip-path="url(#clip610)">
<text style="fill:#000000; fill-opacity:1; font-family:Arial,Helvetica Neue,Helvetica,sans-serif; font-size:48px; text-anchor:middle;" transform="rotate(0, 1437.08, 682.824)" x="1437.08" y="682.824">0.50</text>
</g>
<g clip-path="url(#clip610)">
<text style="fill:#000000; fill-opacity:1; font-family:Arial,Helvetica Neue,Helvetica,sans-serif; font-size:48px; text-anchor:middle;" transform="rotate(0, 1600.41, 682.824)" x="1600.41" y="682.824">0.75</text>
</g>
<g clip-path="url(#clip610)">
<text style="fill:#000000; fill-opacity:1; font-family:Arial,Helvetica Neue,Helvetica,sans-serif; font-size:48px; text-anchor:middle;" transform="rotate(0, 1763.74, 682.824)" x="1763.74" y="682.824">1.00</text>
</g>
<g clip-path="url(#clip610)">
<text style="fill:#000000; fill-opacity:1; font-family:Arial,Helvetica Neue,Helvetica,sans-serif; font-size:53px; text-anchor:middle;" transform="rotate(0, 1430.33, 747.662)" x="1430.33" y="747.662">x(t)</text>
</g>
<polyline clip-path="url(#clip613)" style="stroke:#000000; stroke-linecap:round; stroke-linejoin:round; stroke-width:2; stroke-opacity:0.1; fill:none" points="1076.93,591.648 1783.74,591.648 "/>
<polyline clip-path="url(#clip613)" style="stroke:#000000; stroke-linecap:round; stroke-linejoin:round; stroke-width:2; stroke-opacity:0.1; fill:none" points="1076.93,433.583 1783.74,433.583 "/>
<polyline clip-path="url(#clip613)" style="stroke:#000000; stroke-linecap:round; stroke-linejoin:round; stroke-width:2; stroke-opacity:0.1; fill:none" points="1076.93,275.518 1783.74,275.518 "/>
<polyline clip-path="url(#clip613)" style="stroke:#000000; stroke-linecap:round; stroke-linejoin:round; stroke-width:2; stroke-opacity:0.1; fill:none" points="1076.93,117.454 1783.74,117.454 "/>
<polyline clip-path="url(#clip613)" style="stroke:#000000; stroke-linecap:round; stroke-linejoin:round; stroke-width:2; stroke-opacity:0.1; fill:none" points="1076.93,591.648 1783.74,591.648 "/>
<polyline clip-path="url(#clip613)" style="stroke:#000000; stroke-linecap:round; stroke-linejoin:round; stroke-width:2; stroke-opacity:0.1; fill:none" points="1076.93,433.583 1783.74,433.583 "/>
<polyline clip-path="url(#clip613)" style="stroke:#000000; stroke-linecap:round; stroke-linejoin:round; stroke-width:2; stroke-opacity:0.1; fill:none" points="1076.93,275.518 1783.74,275.518 "/>
<polyline clip-path="url(#clip613)" style="stroke:#000000; stroke-linecap:round; stroke-linejoin:round; stroke-width:2; stroke-opacity:0.1; fill:none" points="1076.93,117.454 1783.74,117.454 "/>
<polyline clip-path="url(#clip610)" style="stroke:#000000; stroke-linecap:round; stroke-linejoin:round; stroke-width:4; stroke-opacity:1; fill:none" points="1076.93,606.575 1076.93,79.1599 "/>
<polyline clip-path="url(#clip610)" style="stroke:#000000; stroke-linecap:round; stroke-linejoin:round; stroke-width:4; stroke-opacity:1; fill:none" points="1783.74,606.575 1783.74,79.1599 "/>
<polyline clip-path="url(#clip610)" style="stroke:#000000; stroke-linecap:round; stroke-linejoin:round; stroke-width:4; stroke-opacity:1; fill:none" points="1076.93,591.648 1058.03,591.648 "/>
<polyline clip-path="url(#clip610)" style="stroke:#000000; stroke-linecap:round; stroke-linejoin:round; stroke-width:4; stroke-opacity:1; fill:none" points="1076.93,433.583 1058.03,433.583 "/>
<polyline clip-path="url(#clip610)" style="stroke:#000000; stroke-linecap:round; stroke-linejoin:round; stroke-width:4; stroke-opacity:1; fill:none" points="1076.93,275.518 1058.03,275.518 "/>
<polyline clip-path="url(#clip610)" style="stroke:#000000; stroke-linecap:round; stroke-linejoin:round; stroke-width:4; stroke-opacity:1; fill:none" points="1076.93,117.454 1058.03,117.454 "/>
<polyline clip-path="url(#clip610)" style="stroke:#000000; stroke-linecap:round; stroke-linejoin:round; stroke-width:4; stroke-opacity:1; fill:none" points="1783.74,591.648 1802.64,591.648 "/>
<polyline clip-path="url(#clip610)" style="stroke:#000000; stroke-linecap:round; stroke-linejoin:round; stroke-width:4; stroke-opacity:1; fill:none" points="1783.74,433.583 1802.64,433.583 "/>
<polyline clip-path="url(#clip610)" style="stroke:#000000; stroke-linecap:round; stroke-linejoin:round; stroke-width:4; stroke-opacity:1; fill:none" points="1783.74,275.518 1802.64,275.518 "/>
<polyline clip-path="url(#clip610)" style="stroke:#000000; stroke-linecap:round; stroke-linejoin:round; stroke-width:4; stroke-opacity:1; fill:none" points="1783.74,117.454 1802.64,117.454 "/>
<g clip-path="url(#clip610)">
<text style="fill:#000000; fill-opacity:1; font-family:Arial,Helvetica Neue,Helvetica,sans-serif; font-size:48px; text-anchor:middle;" transform="rotate(0, 1000.55, 609.148)" x="1000.55" y="609.148">0</text>
</g>
<g clip-path="url(#clip610)">
<text style="fill:#000000; fill-opacity:1; font-family:Arial,Helvetica Neue,Helvetica,sans-serif; font-size:48px; text-anchor:middle;" transform="rotate(0, 1000.55, 451.083)" x="1000.55" y="451.083">1</text>
</g>
<g clip-path="url(#clip610)">
<text style="fill:#000000; fill-opacity:1; font-family:Arial,Helvetica Neue,Helvetica,sans-serif; font-size:48px; text-anchor:middle;" transform="rotate(0, 1000.55, 293.018)" x="1000.55" y="293.018">2</text>
</g>
<g clip-path="url(#clip610)">
<text style="fill:#000000; fill-opacity:1; font-family:Arial,Helvetica Neue,Helvetica,sans-serif; font-size:48px; text-anchor:middle;" transform="rotate(0, 1000.55, 134.954)" x="1000.55" y="134.954">3</text>
</g>
<g clip-path="url(#clip610)">
<text style="fill:#000000; fill-opacity:1; font-family:Arial,Helvetica Neue,Helvetica,sans-serif; font-size:53px; text-anchor:middle;" transform="rotate(-90, 956.377, 342.867)" x="956.377" y="342.867">Density</text>
</g>
<g clip-path="url(#clip610)">
<text style="fill:#000000; fill-opacity:1; font-family:Arial,Helvetica Neue,Helvetica,sans-serif; font-size:59px; text-anchor:start;" transform="rotate(0, 1076.93, 51.6)" x="1076.93" y="51.6">(b)</text>
</g>
<path clip-path="url(#clip613)" d="M1110.42 591.648 L1111.49 591.648 L1112.55 591.648 L1113.61 591.648 L1114.68 591.648 L1124.51 591.648 L1134.34 591.586 L1136.8 591.435 L1139.26 591.061 L1141.72 590.289 L1144.17 588.899 L1146.63 586.648 L1149.09 583.299 L1150.32 581.147 L1151.55 578.646 L1152.78 575.779 L1154.01 572.531 L1155.48 568.11 L1156.96 563.112 L1158.44 557.537 L1159.92 551.388 L1161.39 544.678 L1162.87 537.425 L1164.35 529.652 L1165.82 521.388 L1167.3 512.665 L1168.78 503.518 L1170.26 493.985 L1171.73 484.105 L1174.69 463.467 L1177.64 441.928 L1182.64 404.336 L1187.63 366.468 L1190.13 347.806 L1192.63 329.495 L1195.13 311.64 L1197.62 294.333 L1200.34 276.24 L1203.05 258.962 L1205.77 242.558 L1208.48 227.074 L1211.19 212.543 L1213.91 198.983 L1216.62 186.403 L1219.33 174.802 L1221.83 164.968 L1224.34 155.948 L1226.84 147.728 L1229.34 140.289 L1231.84 133.61 L1234.34 127.668 L1236.84 122.439 L1239.34 117.897 L1242.03 113.759 L1244.71 110.348 L1247.39 107.627 L1250.07 105.565 L1252.75 104.126 L1255.44 103.278 L1258.12 102.988 L1260.8 103.225 L1263.91 104.117 L1267.01 105.627 L1270.12 107.711 L1273.23 110.325 L1276.34 113.43 L1279.44 116.985 L1282.55 120.955 L1285.66 125.304 L1291.18 133.867 L1296.7 143.354 L1302.23 153.611 L1307.75 164.501 L1317.43 184.767 L1327.12 206.054 L1348.24 253.972 L1369.49 301.731 L1381.23 327.19 L1392.98 351.7 L1404.15 374.007 L1415.33 395.242 L1426.95 416.124 L1438.57 435.751 L1448.35 451.285 L1458.13 465.913 L1470.07 482.547 L1482.01 497.845 L1487.48 504.411 L1492.95 510.704 L1498.42 516.724 L1503.89 522.474 L1513.99 532.397 L1524.1 541.427 L1534.33 549.685 L1544.56 557.069 L1550.3 560.834 L1556.03 564.338 L1561.77 567.586 L1567.5 570.582 L1577.9 575.394 L1588.29 579.442 L1600.19 583.199 L1612.09 586.098 L1623.11 588.1 L1634.13 589.534 L1655.85 591.079 L1676.95 591.561 L1698.57 591.644 L1722.26 591.648 L1756.67 591.648 L1763.74 591.648 L1763.74 591.648 L1756.67 591.648 L1722.26 591.648 L1698.57 591.648 L1676.95 591.648 L1655.85 591.648 L1634.13 591.648 L1623.11 591.648 L1612.09 591.648 L1600.19 591.648 L1588.29 591.648 L1577.9 591.648 L1567.5 591.648 L1561.77 591.648 L1556.03 591.648 L1550.3 591.648 L1544.56 591.648 L1534.33 591.648 L1524.1 591.648 L1513.99 591.648 L1503.89 591.648 L1498.42 591.648 L1492.95 591.648 L1487.48 591.648 L1482.01 591.648 L1470.07 591.648 L1458.13 591.648 L1448.35 591.648 L1438.57 591.648 L1426.95 591.648 L1415.33 591.648 L1404.15 591.648 L1392.98 591.648 L1381.23 591.648 L1369.49 591.648 L1348.24 591.648 L1327.12 591.648 L1317.43 591.648 L1307.75 591.648 L1302.23 591.648 L1296.7 591.648 L1291.18 591.648 L1285.66 591.648 L1282.55 591.648 L1279.44 591.648 L1276.34 591.648 L1273.23 591.648 L1270.12 591.648 L1267.01 591.648 L1263.91 591.648 L1260.8 591.648 L1258.12 591.648 L1255.44 591.648 L1252.75 591.648 L1250.07 591.648 L1247.39 591.648 L1244.71 591.648 L1242.03 591.648 L1239.34 591.648 L1236.84 591.648 L1234.34 591.648 L1231.84 591.648 L1229.34 591.648 L1226.84 591.648 L1224.34 591.648 L1221.83 591.648 L1219.33 591.648 L1216.62 591.648 L1213.91 591.648 L1211.19 591.648 L1208.48 591.648 L1205.77 591.648 L1203.05 591.648 L1200.34 591.648 L1197.62 591.648 L1195.13 591.648 L1192.63 591.648 L1190.13 591.648 L1187.63 591.648 L1182.64 591.648 L1177.64 591.648 L1174.69 591.648 L1171.73 591.648 L1170.26 591.648 L1168.78 591.648 L1167.3 591.648 L1165.82 591.648 L1164.35 591.648 L1162.87 591.648 L1161.39 591.648 L1159.92 591.648 L1158.44 591.648 L1156.96 591.648 L1155.48 591.648 L1154.01 591.648 L1152.78 591.648 L1151.55 591.648 L1150.32 591.648 L1149.09 591.648 L1146.63 591.648 L1144.17 591.648 L1141.72 591.648 L1139.26 591.648 L1136.8 591.648 L1134.34 591.648 L1124.51 591.648 L1114.68 591.648 L1113.61 591.648 L1112.55 591.648 L1111.49 591.648 L1110.42 591.648  Z" fill="#0000ff" fill-rule="evenodd" fill-opacity="0.2"/>
<polyline clip-path="url(#clip613)" style="stroke:#0000ff; stroke-linecap:round; stroke-linejoin:round; stroke-width:8; stroke-opacity:1; fill:none" points="1110.42,591.648 1111.49,591.648 1112.55,591.648 1113.61,591.648 1114.68,591.648 1124.51,591.648 1134.34,591.586 1136.8,591.435 1139.26,591.061 1141.72,590.289 1144.17,588.899 1146.63,586.648 1149.09,583.299 1150.32,581.147 1151.55,578.646 1152.78,575.779 1154.01,572.531 1155.48,568.11 1156.96,563.112 1158.44,557.537 1159.92,551.388 1161.39,544.678 1162.87,537.425 1164.35,529.652 1165.82,521.388 1167.3,512.665 1168.78,503.518 1170.26,493.985 1171.73,484.105 1174.69,463.467 1177.64,441.928 1182.64,404.336 1187.63,366.468 1190.13,347.806 1192.63,329.495 1195.13,311.64 1197.62,294.333 1200.34,276.24 1203.05,258.962 1205.77,242.558 1208.48,227.074 1211.19,212.543 1213.91,198.983 1216.62,186.403 1219.33,174.802 1221.83,164.968 1224.34,155.948 1226.84,147.728 1229.34,140.289 1231.84,133.61 1234.34,127.668 1236.84,122.439 1239.34,117.897 1242.03,113.759 1244.71,110.348 1247.39,107.627 1250.07,105.565 1252.75,104.126 1255.44,103.278 1258.12,102.988 1260.8,103.225 1263.91,104.117 1267.01,105.627 1270.12,107.711 1273.23,110.325 1276.34,113.43 1279.44,116.985 1282.55,120.955 1285.66,125.304 1291.18,133.867 1296.7,143.354 1302.23,153.611 1307.75,164.501 1317.43,184.767 1327.12,206.054 1348.24,253.972 1369.49,301.731 1381.23,327.19 1392.98,351.7 1404.15,374.007 1415.33,395.242 1426.95,416.124 1438.57,435.751 1448.35,451.285 1458.13,465.913 1470.07,482.547 1482.01,497.845 1487.48,504.411 1492.95,510.704 1498.42,516.724 1503.89,522.474 1513.99,532.397 1524.1,541.427 1534.33,549.685 1544.56,557.069 1550.3,560.834 1556.03,564.338 1561.77,567.586 1567.5,570.582 1577.9,575.394 1588.29,579.442 1600.19,583.199 1612.09,586.098 1623.11,588.1 1634.13,589.534 1655.85,591.079 1676.95,591.561 1698.57,591.644 1722.26,591.648 1756.67,591.648 1763.74,591.648 "/>
<polyline clip-path="url(#clip613)" style="stroke:#ffa500; stroke-linecap:round; stroke-linejoin:round; stroke-width:8; stroke-opacity:1; fill:none" points="1096.93,591.647 1099.99,591.647 1103.05,591.646 1106.1,591.642 1109.16,591.635 1112.22,591.619 1115.28,591.585 1118.34,591.52 1121.39,591.399 1124.45,591.184 1127.51,590.822 1130.57,590.239 1133.63,589.338 1136.68,588.002 1139.74,586.089 1142.8,583.444 1145.86,579.897 1148.92,575.278 1151.97,569.424 1155.03,562.192 1158.09,553.478 1161.15,543.219 1164.21,531.404 1167.26,518.07 1170.32,503.292 1173.38,487.173 1176.44,469.828 1179.49,451.378 1182.55,431.94 1185.61,411.628 1188.67,390.554 1191.73,368.845 1194.78,346.663 1197.84,324.232 1200.9,301.847 1203.96,279.877 1207.02,258.723 1210.07,238.776 1213.13,220.355 1216.19,203.67 1219.25,188.807 1222.31,175.739 1225.36,164.348 1228.42,154.449 1231.48,145.81 1234.54,138.18 1237.6,131.316 1240.65,125.022 1243.71,119.18 1246.77,113.77 1249.83,108.848 1252.89,104.517 1255.94,100.881 1259,98.0099 1262.06,95.9297 1265.12,94.6305 1268.17,94.0867 1271.23,94.2752 1274.29,95.1809 1277.35,96.79 1280.41,99.0746 1283.46,101.982 1286.52,105.438 1289.58,109.368 1292.64,113.724 1295.7,118.516 1298.75,123.817 1301.81,129.74 1304.87,136.392 1307.93,143.818 1310.99,151.96 1314.04,160.641 1317.1,169.583 1320.16,178.466 1323.22,186.997 1326.28,194.974 1329.33,202.338 1332.39,209.181 1335.45,215.719 1338.51,222.233 1341.57,228.988 1344.62,236.157 1347.68,243.764 1350.74,251.673 1353.8,259.623 1356.85,267.3 1359.91,274.431 1362.97,280.863 1366.03,286.614 1369.09,291.867 1372.14,296.922 1375.2,302.126 1378.26,307.79 1381.32,314.134 1384.38,321.257 1387.43,329.133 1390.49,337.635 1393.55,346.559 1396.61,355.658 1399.67,364.666 1402.72,373.332 1405.78,381.444 1408.84,388.858 1411.9,395.514 1414.96,401.435 1418.01,406.719 1421.07,411.524 1424.13,416.033 1427.19,420.425 1430.25,424.841 1433.3,429.363 1436.36,434.002 1439.42,438.708 1442.48,443.397 1445.53,447.985 1448.59,452.422 1451.65,456.701 1454.71,460.855 1457.77,464.939 1460.82,469.001 1463.88,473.072 1466.94,477.156 1470,481.245 1473.06,485.327 1476.11,489.406 1479.17,493.497 1482.23,497.622 1485.29,501.8 1488.35,506.03 1491.4,510.29 1494.46,514.535 1497.52,518.703 1500.58,522.726 1503.64,526.537 1506.69,530.083 1509.75,533.328 1512.81,536.263 1515.87,538.903 1518.93,541.285 1521.98,543.465 1525.04,545.503 1528.1,547.46 1531.16,549.387 1534.21,551.323 1537.27,553.288 1540.33,555.288 1543.39,557.312 1546.45,559.34 1549.5,561.352 1552.56,563.333 1555.62,565.276 1558.68,567.188 1561.74,569.082 1564.79,570.969 1567.85,572.847 1570.91,574.698 1573.97,576.482 1577.03,578.151 1580.08,579.652 1583.14,580.946 1586.2,582.016 1589.26,582.872 1592.32,583.55 1595.37,584.101 1598.43,584.582 1601.49,585.042 1604.55,585.515 1607.61,586.015 1610.66,586.538 1613.72,587.07 1616.78,587.593 1619.84,588.091 1622.89,588.55 1625.95,588.965 1629.01,589.332 1632.07,589.65 1635.13,589.919 1638.18,590.138 1641.24,590.312 1644.3,590.445 1647.36,590.547 1650.42,590.63 1653.47,590.707 1656.53,590.791 1659.59,590.887 1662.65,590.997 1665.71,591.114 1668.76,591.232 1671.82,591.34 1674.88,591.433 1677.94,591.506 1681,591.56 1684.05,591.596 1687.11,591.619 1690.17,591.633 1693.23,591.641 1696.29,591.644 1699.34,591.646 1702.4,591.647 1705.46,591.647 "/>
<polyline clip-path="url(#clip613)" style="stroke:#000000; stroke-linecap:round; stroke-linejoin:round; stroke-width:8; stroke-opacity:1; fill:none" stroke-dasharray="32, 20" points="1316.42,1133.99 1316.42,-448.255 "/>
<path clip-path="url(#clip610)" d="M1590.53 297.939 L1760.18 297.939 L1760.18 96.7404 L1590.53 96.7404  Z" fill="#ffffff" fill-rule="evenodd" fill-opacity="1"/>
<polyline clip-path="url(#clip610)" style="stroke:#000000; stroke-linecap:round; stroke-linejoin:round; stroke-width:4; stroke-opacity:1; fill:none" points="1590.53,297.939 1760.18,297.939 1760.18,96.7404 1590.53,96.7404 1590.53,297.939 "/>
<path clip-path="url(#clip610)" d="M1598.39 167.16 L1645.51 167.16 L1645.51 126.92 L1598.39 126.92 L1598.39 167.16  Z" fill="#0000ff" fill-rule="evenodd" fill-opacity="0.2"/>
<polyline clip-path="url(#clip610)" style="stroke:#0000ff; stroke-linecap:round; stroke-linejoin:round; stroke-width:8; stroke-opacity:1; fill:none" points="1598.39,126.92 1645.51,126.92 "/>
<g clip-path="url(#clip610)">
<text style="fill:#000000; fill-opacity:1; font-family:Arial,Helvetica Neue,Helvetica,sans-serif; font-size:48px; text-anchor:start;" transform="rotate(0, 1653.36, 164.54)" x="1653.36" y="164.54">PDE</text>
</g>
<polyline clip-path="url(#clip610)" style="stroke:#ffa500; stroke-linecap:round; stroke-linejoin:round; stroke-width:8; stroke-opacity:1; fill:none" points="1598.39,197.34 1645.51,197.34 "/>
<g clip-path="url(#clip610)">
<text style="fill:#000000; fill-opacity:1; font-family:Arial,Helvetica Neue,Helvetica,sans-serif; font-size:48px; text-anchor:start;" transform="rotate(0, 1653.36, 214.84)" x="1653.36" y="214.84">SDE</text>
</g>
<polyline clip-path="url(#clip610)" style="stroke:#000000; stroke-linecap:round; stroke-linejoin:round; stroke-width:8; stroke-opacity:1; fill:none" stroke-dasharray="32, 20" points="1598.39,247.64 1645.51,247.64 "/>
<g clip-path="url(#clip610)">
<text style="fill:#000000; fill-opacity:1; font-family:Arial,Helvetica Neue,Helvetica,sans-serif; font-size:48px; text-anchor:start;" transform="rotate(0, 1653.36, 265.14)" x="1653.36" y="265.14">q̂</text>
</g>
<path clip-path="url(#clip610)" d="M2045.94 606.575 L2752.76 606.575 L2752.76 79.1599 L2045.94 79.1599  Z" fill="#ffffff" fill-rule="evenodd" fill-opacity="1"/>
<defs>
  <clipPath id="clip614">
    <rect x="2045" y="79" width="708" height="528"/>
  </clipPath>
</defs>
<polyline clip-path="url(#clip614)" style="stroke:#000000; stroke-linecap:round; stroke-linejoin:round; stroke-width:2; stroke-opacity:0.1; fill:none" points="2065.95,606.575 2065.95,79.1599 "/>
<polyline clip-path="url(#clip614)" style="stroke:#000000; stroke-linecap:round; stroke-linejoin:round; stroke-width:2; stroke-opacity:0.1; fill:none" points="2232.65,606.575 2232.65,79.1599 "/>
<polyline clip-path="url(#clip614)" style="stroke:#000000; stroke-linecap:round; stroke-linejoin:round; stroke-width:2; stroke-opacity:0.1; fill:none" points="2399.35,606.575 2399.35,79.1599 "/>
<polyline clip-path="url(#clip614)" style="stroke:#000000; stroke-linecap:round; stroke-linejoin:round; stroke-width:2; stroke-opacity:0.1; fill:none" points="2566.05,606.575 2566.05,79.1599 "/>
<polyline clip-path="url(#clip614)" style="stroke:#000000; stroke-linecap:round; stroke-linejoin:round; stroke-width:2; stroke-opacity:0.1; fill:none" points="2732.75,606.575 2732.75,79.1599 "/>
<polyline clip-path="url(#clip614)" style="stroke:#000000; stroke-linecap:round; stroke-linejoin:round; stroke-width:2; stroke-opacity:0.1; fill:none" points="2065.95,606.575 2065.95,79.1599 "/>
<polyline clip-path="url(#clip614)" style="stroke:#000000; stroke-linecap:round; stroke-linejoin:round; stroke-width:2; stroke-opacity:0.1; fill:none" points="2232.65,606.575 2232.65,79.1599 "/>
<polyline clip-path="url(#clip614)" style="stroke:#000000; stroke-linecap:round; stroke-linejoin:round; stroke-width:2; stroke-opacity:0.1; fill:none" points="2399.35,606.575 2399.35,79.1599 "/>
<polyline clip-path="url(#clip614)" style="stroke:#000000; stroke-linecap:round; stroke-linejoin:round; stroke-width:2; stroke-opacity:0.1; fill:none" points="2566.05,606.575 2566.05,79.1599 "/>
<polyline clip-path="url(#clip614)" style="stroke:#000000; stroke-linecap:round; stroke-linejoin:round; stroke-width:2; stroke-opacity:0.1; fill:none" points="2732.75,606.575 2732.75,79.1599 "/>
<polyline clip-path="url(#clip610)" style="stroke:#000000; stroke-linecap:round; stroke-linejoin:round; stroke-width:4; stroke-opacity:1; fill:none" points="2045.94,606.575 2752.76,606.575 "/>
<polyline clip-path="url(#clip610)" style="stroke:#000000; stroke-linecap:round; stroke-linejoin:round; stroke-width:4; stroke-opacity:1; fill:none" points="2045.94,79.1599 2752.76,79.1599 "/>
<polyline clip-path="url(#clip610)" style="stroke:#000000; stroke-linecap:round; stroke-linejoin:round; stroke-width:4; stroke-opacity:1; fill:none" points="2065.95,606.575 2065.95,625.472 "/>
<polyline clip-path="url(#clip610)" style="stroke:#000000; stroke-linecap:round; stroke-linejoin:round; stroke-width:4; stroke-opacity:1; fill:none" points="2232.65,606.575 2232.65,625.472 "/>
<polyline clip-path="url(#clip610)" style="stroke:#000000; stroke-linecap:round; stroke-linejoin:round; stroke-width:4; stroke-opacity:1; fill:none" points="2399.35,606.575 2399.35,625.472 "/>
<polyline clip-path="url(#clip610)" style="stroke:#000000; stroke-linecap:round; stroke-linejoin:round; stroke-width:4; stroke-opacity:1; fill:none" points="2566.05,606.575 2566.05,625.472 "/>
<polyline clip-path="url(#clip610)" style="stroke:#000000; stroke-linecap:round; stroke-linejoin:round; stroke-width:4; stroke-opacity:1; fill:none" points="2732.75,606.575 2732.75,625.472 "/>
<polyline clip-path="url(#clip610)" style="stroke:#000000; stroke-linecap:round; stroke-linejoin:round; stroke-width:4; stroke-opacity:1; fill:none" points="2065.95,79.1599 2065.95,60.2623 "/>
<polyline clip-path="url(#clip610)" style="stroke:#000000; stroke-linecap:round; stroke-linejoin:round; stroke-width:4; stroke-opacity:1; fill:none" points="2232.65,79.1599 2232.65,60.2623 "/>
<polyline clip-path="url(#clip610)" style="stroke:#000000; stroke-linecap:round; stroke-linejoin:round; stroke-width:4; stroke-opacity:1; fill:none" points="2399.35,79.1599 2399.35,60.2623 "/>
<polyline clip-path="url(#clip610)" style="stroke:#000000; stroke-linecap:round; stroke-linejoin:round; stroke-width:4; stroke-opacity:1; fill:none" points="2566.05,79.1599 2566.05,60.2623 "/>
<polyline clip-path="url(#clip610)" style="stroke:#000000; stroke-linecap:round; stroke-linejoin:round; stroke-width:4; stroke-opacity:1; fill:none" points="2732.75,79.1599 2732.75,60.2623 "/>
<g clip-path="url(#clip610)">
<text style="fill:#000000; fill-opacity:1; font-family:Arial,Helvetica Neue,Helvetica,sans-serif; font-size:48px; text-anchor:middle;" transform="rotate(0, 2065.95, 682.824)" x="2065.95" y="682.824">0.00</text>
</g>
<g clip-path="url(#clip610)">
<text style="fill:#000000; fill-opacity:1; font-family:Arial,Helvetica Neue,Helvetica,sans-serif; font-size:48px; text-anchor:middle;" transform="rotate(0, 2232.65, 682.824)" x="2232.65" y="682.824">0.25</text>
</g>
<g clip-path="url(#clip610)">
<text style="fill:#000000; fill-opacity:1; font-family:Arial,Helvetica Neue,Helvetica,sans-serif; font-size:48px; text-anchor:middle;" transform="rotate(0, 2399.35, 682.824)" x="2399.35" y="682.824">0.50</text>
</g>
<g clip-path="url(#clip610)">
<text style="fill:#000000; fill-opacity:1; font-family:Arial,Helvetica Neue,Helvetica,sans-serif; font-size:48px; text-anchor:middle;" transform="rotate(0, 2566.05, 682.824)" x="2566.05" y="682.824">0.75</text>
</g>
<g clip-path="url(#clip610)">
<text style="fill:#000000; fill-opacity:1; font-family:Arial,Helvetica Neue,Helvetica,sans-serif; font-size:48px; text-anchor:middle;" transform="rotate(0, 2732.75, 682.824)" x="2732.75" y="682.824">1.00</text>
</g>
<g clip-path="url(#clip610)">
<text style="fill:#000000; fill-opacity:1; font-family:Arial,Helvetica Neue,Helvetica,sans-serif; font-size:53px; text-anchor:middle;" transform="rotate(0, 2399.35, 747.662)" x="2399.35" y="747.662">q</text>
</g>
<polyline clip-path="url(#clip614)" style="stroke:#000000; stroke-linecap:round; stroke-linejoin:round; stroke-width:2; stroke-opacity:0.1; fill:none" points="2045.94,556.108 2752.76,556.108 "/>
<polyline clip-path="url(#clip614)" style="stroke:#000000; stroke-linecap:round; stroke-linejoin:round; stroke-width:2; stroke-opacity:0.1; fill:none" points="2045.94,485.028 2752.76,485.028 "/>
<polyline clip-path="url(#clip614)" style="stroke:#000000; stroke-linecap:round; stroke-linejoin:round; stroke-width:2; stroke-opacity:0.1; fill:none" points="2045.94,413.947 2752.76,413.947 "/>
<polyline clip-path="url(#clip614)" style="stroke:#000000; stroke-linecap:round; stroke-linejoin:round; stroke-width:2; stroke-opacity:0.1; fill:none" points="2045.94,342.867 2752.76,342.867 "/>
<polyline clip-path="url(#clip614)" style="stroke:#000000; stroke-linecap:round; stroke-linejoin:round; stroke-width:2; stroke-opacity:0.1; fill:none" points="2045.94,271.787 2752.76,271.787 "/>
<polyline clip-path="url(#clip614)" style="stroke:#000000; stroke-linecap:round; stroke-linejoin:round; stroke-width:2; stroke-opacity:0.1; fill:none" points="2045.94,200.707 2752.76,200.707 "/>
<polyline clip-path="url(#clip614)" style="stroke:#000000; stroke-linecap:round; stroke-linejoin:round; stroke-width:2; stroke-opacity:0.1; fill:none" points="2045.94,129.627 2752.76,129.627 "/>
<polyline clip-path="url(#clip614)" style="stroke:#000000; stroke-linecap:round; stroke-linejoin:round; stroke-width:2; stroke-opacity:0.1; fill:none" points="2045.94,556.108 2752.76,556.108 "/>
<polyline clip-path="url(#clip614)" style="stroke:#000000; stroke-linecap:round; stroke-linejoin:round; stroke-width:2; stroke-opacity:0.1; fill:none" points="2045.94,485.028 2752.76,485.028 "/>
<polyline clip-path="url(#clip614)" style="stroke:#000000; stroke-linecap:round; stroke-linejoin:round; stroke-width:2; stroke-opacity:0.1; fill:none" points="2045.94,413.947 2752.76,413.947 "/>
<polyline clip-path="url(#clip614)" style="stroke:#000000; stroke-linecap:round; stroke-linejoin:round; stroke-width:2; stroke-opacity:0.1; fill:none" points="2045.94,342.867 2752.76,342.867 "/>
<polyline clip-path="url(#clip614)" style="stroke:#000000; stroke-linecap:round; stroke-linejoin:round; stroke-width:2; stroke-opacity:0.1; fill:none" points="2045.94,271.787 2752.76,271.787 "/>
<polyline clip-path="url(#clip614)" style="stroke:#000000; stroke-linecap:round; stroke-linejoin:round; stroke-width:2; stroke-opacity:0.1; fill:none" points="2045.94,200.707 2752.76,200.707 "/>
<polyline clip-path="url(#clip614)" style="stroke:#000000; stroke-linecap:round; stroke-linejoin:round; stroke-width:2; stroke-opacity:0.1; fill:none" points="2045.94,129.627 2752.76,129.627 "/>
<polyline clip-path="url(#clip610)" style="stroke:#000000; stroke-linecap:round; stroke-linejoin:round; stroke-width:4; stroke-opacity:1; fill:none" points="2045.94,606.575 2045.94,79.1599 "/>
<polyline clip-path="url(#clip610)" style="stroke:#000000; stroke-linecap:round; stroke-linejoin:round; stroke-width:4; stroke-opacity:1; fill:none" points="2752.76,606.575 2752.76,79.1599 "/>
<polyline clip-path="url(#clip610)" style="stroke:#000000; stroke-linecap:round; stroke-linejoin:round; stroke-width:4; stroke-opacity:1; fill:none" points="2045.94,556.108 2027.05,556.108 "/>
<polyline clip-path="url(#clip610)" style="stroke:#000000; stroke-linecap:round; stroke-linejoin:round; stroke-width:4; stroke-opacity:1; fill:none" points="2045.94,485.028 2027.05,485.028 "/>
<polyline clip-path="url(#clip610)" style="stroke:#000000; stroke-linecap:round; stroke-linejoin:round; stroke-width:4; stroke-opacity:1; fill:none" points="2045.94,413.947 2027.05,413.947 "/>
<polyline clip-path="url(#clip610)" style="stroke:#000000; stroke-linecap:round; stroke-linejoin:round; stroke-width:4; stroke-opacity:1; fill:none" points="2045.94,342.867 2027.05,342.867 "/>
<polyline clip-path="url(#clip610)" style="stroke:#000000; stroke-linecap:round; stroke-linejoin:round; stroke-width:4; stroke-opacity:1; fill:none" points="2045.94,271.787 2027.05,271.787 "/>
<polyline clip-path="url(#clip610)" style="stroke:#000000; stroke-linecap:round; stroke-linejoin:round; stroke-width:4; stroke-opacity:1; fill:none" points="2045.94,200.707 2027.05,200.707 "/>
<polyline clip-path="url(#clip610)" style="stroke:#000000; stroke-linecap:round; stroke-linejoin:round; stroke-width:4; stroke-opacity:1; fill:none" points="2045.94,129.627 2027.05,129.627 "/>
<polyline clip-path="url(#clip610)" style="stroke:#000000; stroke-linecap:round; stroke-linejoin:round; stroke-width:4; stroke-opacity:1; fill:none" points="2752.76,556.108 2771.65,556.108 "/>
<polyline clip-path="url(#clip610)" style="stroke:#000000; stroke-linecap:round; stroke-linejoin:round; stroke-width:4; stroke-opacity:1; fill:none" points="2752.76,485.028 2771.65,485.028 "/>
<polyline clip-path="url(#clip610)" style="stroke:#000000; stroke-linecap:round; stroke-linejoin:round; stroke-width:4; stroke-opacity:1; fill:none" points="2752.76,413.947 2771.65,413.947 "/>
<polyline clip-path="url(#clip610)" style="stroke:#000000; stroke-linecap:round; stroke-linejoin:round; stroke-width:4; stroke-opacity:1; fill:none" points="2752.76,342.867 2771.65,342.867 "/>
<polyline clip-path="url(#clip610)" style="stroke:#000000; stroke-linecap:round; stroke-linejoin:round; stroke-width:4; stroke-opacity:1; fill:none" points="2752.76,271.787 2771.65,271.787 "/>
<polyline clip-path="url(#clip610)" style="stroke:#000000; stroke-linecap:round; stroke-linejoin:round; stroke-width:4; stroke-opacity:1; fill:none" points="2752.76,200.707 2771.65,200.707 "/>
<polyline clip-path="url(#clip610)" style="stroke:#000000; stroke-linecap:round; stroke-linejoin:round; stroke-width:4; stroke-opacity:1; fill:none" points="2752.76,129.627 2771.65,129.627 "/>
<g clip-path="url(#clip610)">
<text style="fill:#000000; fill-opacity:1; font-family:Arial,Helvetica Neue,Helvetica,sans-serif; font-size:48px; text-anchor:middle;" transform="rotate(0, 1936.11, 573.608)" x="1936.11" y="573.608">0.50</text>
</g>
<g clip-path="url(#clip610)">
<text style="fill:#000000; fill-opacity:1; font-family:Arial,Helvetica Neue,Helvetica,sans-serif; font-size:48px; text-anchor:middle;" transform="rotate(0, 1936.11, 502.528)" x="1936.11" y="502.528">0.51</text>
</g>
<g clip-path="url(#clip610)">
<text style="fill:#000000; fill-opacity:1; font-family:Arial,Helvetica Neue,Helvetica,sans-serif; font-size:48px; text-anchor:middle;" transform="rotate(0, 1936.11, 431.447)" x="1936.11" y="431.447">0.52</text>
</g>
<g clip-path="url(#clip610)">
<text style="fill:#000000; fill-opacity:1; font-family:Arial,Helvetica Neue,Helvetica,sans-serif; font-size:48px; text-anchor:middle;" transform="rotate(0, 1936.11, 360.367)" x="1936.11" y="360.367">0.53</text>
</g>
<g clip-path="url(#clip610)">
<text style="fill:#000000; fill-opacity:1; font-family:Arial,Helvetica Neue,Helvetica,sans-serif; font-size:48px; text-anchor:middle;" transform="rotate(0, 1936.11, 289.287)" x="1936.11" y="289.287">0.54</text>
</g>
<g clip-path="url(#clip610)">
<text style="fill:#000000; fill-opacity:1; font-family:Arial,Helvetica Neue,Helvetica,sans-serif; font-size:48px; text-anchor:middle;" transform="rotate(0, 1936.11, 218.207)" x="1936.11" y="218.207">0.55</text>
</g>
<g clip-path="url(#clip610)">
<text style="fill:#000000; fill-opacity:1; font-family:Arial,Helvetica Neue,Helvetica,sans-serif; font-size:48px; text-anchor:middle;" transform="rotate(0, 1936.11, 147.127)" x="1936.11" y="147.127">0.56</text>
</g>
<g clip-path="url(#clip610)">
<text style="fill:#000000; fill-opacity:1; font-family:Arial,Helvetica Neue,Helvetica,sans-serif; font-size:53px; text-anchor:middle;" transform="rotate(-90, 1858.49, 342.867)" x="1858.49" y="342.867">Fitness</text>
</g>
<g clip-path="url(#clip610)">
<text style="fill:#000000; fill-opacity:1; font-family:Arial,Helvetica Neue,Helvetica,sans-serif; font-size:59px; text-anchor:start;" transform="rotate(0, 2045.94, 51.6)" x="2045.94" y="51.6">(c)</text>
</g>
<polyline clip-path="url(#clip614)" style="stroke:#9ec9e0; stroke-linecap:round; stroke-linejoin:round; stroke-width:8; stroke-opacity:1; fill:none" points="2065.95,556.108 2066.49,542.177 2067.03,536.062 2067.58,531.373 2068.12,527.436 2068.66,523.987 2069.2,520.888 2069.75,518.056 2070.29,515.436 2072.8,505.225 2075.31,497.006 2077.81,490.026 2080.32,483.915 2085.34,473.516 2090.36,464.829 2095.38,457.359 2100.39,450.814 2105.41,445.007 2110.43,439.807 2116.46,434.227 2122.49,429.265 2128.52,424.833 2134.55,420.86 2144.75,415.044 2154.95,410.195 2166.03,405.86 2177.1,402.366 2187.32,399.801 2197.53,397.803 2219.43,395.211 2244.8,394.728 2267.35,396.29 2287.12,399.063 2308.67,403.483 2330.36,409.339 2354.33,417.411 2377.15,426.635 2400.87,437.835 2420.83,448.565 2445.21,463.348 2467.54,478.605 2488.16,494.264 2509.05,511.797 2532.47,533.666 2553.68,555.78 2565.83,569.554 2577.97,584.24 2589.22,598.736 2600.47,614.198 2611.55,630.502 2622.64,648.005 2633.4,666.322 2644.17,686.163 2649.69,697.015 2655.2,708.394 2660.72,720.359 2666.24,732.981 2672.28,747.67 2678.33,763.403 2684.37,780.371 2690.42,798.833 2694.81,813.382 2699.2,829.101 2703.59,846.252 2707.98,865.211 2710.18,875.536 2712.37,886.549 2714.57,898.378 2716.76,911.196 2718.96,925.245 2721.15,940.874 2722.25,949.441 2723.35,958.631 2724.45,968.575 2725.55,979.45 2726,984.238 2726.45,989.248 2726.9,994.508 2727.35,1000.05 2728.25,1012.17 2729.15,1026.09 2729.6,1033.98 2730.05,1042.69 2730.5,1052.49 2730.95,1063.79 2731.18,1070.2 2731.4,1077.31 2731.63,1085.32 2731.85,1094.58 2731.96,1099.85 2732.08,1105.7 2732.19,1112.31 2732.3,1119.98 2732.36,1124.35 2732.41,1129.21 2732.47,1134.72 2732.53,1141.11 2732.58,1148.84 2732.64,1158.83 2732.7,1173.78 2732.75,1266.26 "/>
<circle clip-path="url(#clip614)" cx="2236.91" cy="394.611" r="14.4" fill="#9ec9e0" fill-rule="evenodd" fill-opacity="1" stroke="none"/>
<polyline clip-path="url(#clip614)" style="stroke:#6badd5; stroke-linecap:round; stroke-linejoin:round; stroke-width:8; stroke-opacity:1; fill:none" points="2065.95,556.108 2067.03,546.913 2068.12,539.309 2069.2,532.448 2070.29,526.101 2075.31,500.927 2080.32,480.031 2085.34,461.872 2090.36,445.725 2095.38,431.162 2100.39,417.904 2105.41,405.753 2110.43,394.563 2116.46,382.225 2122.49,370.96 2128.52,360.648 2134.55,351.195 2144.75,336.954 2154.95,324.656 2166.03,313.243 2177.1,303.643 2187.32,296.25 2197.53,290.146 2208.48,284.933 2219.43,281.01 2232.11,277.983 2244.8,276.496 2267.35,277.428 2287.12,281.806 2308.67,290.19 2330.36,302.308 2354.33,319.934 2377.15,340.82 2400.87,366.853 2420.83,392.275 2433.02,409.423 2445.21,427.848 2456.37,445.884 2467.54,465.066 2488.16,503.664 2509.05,547.256 2520.76,573.825 2532.47,602.054 2543.08,629.163 2553.68,657.829 2565.83,692.712 2577.97,729.995 2589.22,766.872 2600.47,806.26 2611.55,847.838 2622.64,892.494 2633.4,939.217 2644.17,989.783 2649.69,1017.41 2655.2,1046.33 2660.72,1076.69 2666.24,1108.66 2672.28,1145.75 2678.33,1185.34 2684.37,1227.83 2690.42,1273.78 2694.81,1309.76 2699.2,1348.35 2703.59,1390.09 2707.98,1435.72 2710.18,1460.31 2712.37,1486.32 2714.57,1513.99 2716.76,1543.62 2718.96,1575.63 2721.15,1610.63 2722.25,1629.51 2723.35,1649.51 2724.45,1670.82 2725.55,1693.73 2726.45,1713.97 2727.35,1735.83 2728.25,1759.73 2729.15,1786.31 2729.6,1800.92 2730.05,1816.67 2730.5,1833.85 2730.95,1852.92 2731.18,1863.38 2731.4,1874.63 2731.63,1886.89 2731.85,1900.46 2732.08,1915.89 2732.3,1934.19 2732.53,1957.99 2732.75,2013.25 "/>
<circle clip-path="url(#clip614)" cx="2251.32" cy="276.306" r="14.4" fill="#6badd5" fill-rule="evenodd" fill-opacity="1" stroke="none"/>
<polyline clip-path="url(#clip614)" style="stroke:#4292c5; stroke-linecap:round; stroke-linejoin:round; stroke-width:8; stroke-opacity:1; fill:none" points="2065.95,556.108 2067.03,550.06 2068.12,544.278 2069.2,538.704 2070.29,533.305 2075.31,510.163 2080.32,489.331 2085.34,470.286 2090.36,452.716 2100.39,421.21 2110.43,393.685 2122.49,364.908 2134.55,340.087 2144.75,321.777 2154.95,305.651 2166.03,290.385 2177.1,277.268 2187.32,266.942 2197.53,258.204 2208.48,250.5 2219.43,244.432 2232.11,239.348 2244.8,236.261 2256.07,235.128 2267.35,235.463 2277.23,236.934 2287.12,239.482 2308.67,248.69 2330.36,262.905 2342.35,272.867 2354.33,284.321 2365.74,296.605 2377.15,310.247 2400.87,343.012 2420.83,375.293 2433.02,397.17 2445.21,420.742 2456.37,443.863 2467.54,468.488 2477.85,492.61 2488.16,518.101 2498.61,545.37 2509.05,574.153 2520.76,608.292 2532.47,644.522 2543.08,679.261 2553.68,715.924 2565.83,760.417 2577.97,807.802 2589.22,854.473 2600.47,904.078 2611.55,956.132 2622.64,1011.65 2633.4,1069.25 2644.17,1130.97 2649.69,1164.39 2655.2,1199.15 2660.72,1235.35 2666.24,1273.12 2672.28,1316.51 2678.33,1362.22 2684.37,1410.56 2690.42,1461.93 2694.81,1501.41 2699.2,1542.99 2703.59,1586.99 2707.98,1633.83 2712.37,1684.05 2716.76,1738.48 2718.96,1767.64 2721.15,1798.37 2723.35,1830.98 2725.55,1865.91 2726.45,1881.06 2727.35,1896.78 2728.25,1913.16 2729.15,1930.32 2730.05,1948.42 2730.95,1967.75 2731.85,1988.81 2732.75,2013.25 "/>
<circle clip-path="url(#clip614)" cx="2259.1" cy="235.076" r="14.4" fill="#4292c5" fill-rule="evenodd" fill-opacity="1" stroke="none"/>
<polyline clip-path="url(#clip614)" style="stroke:#2070b5; stroke-linecap:round; stroke-linejoin:round; stroke-width:8; stroke-opacity:1; fill:none" points="2065.95,556.108 2067.03,551.235 2068.12,546.431 2069.2,541.693 2070.29,537.019 2080.32,496.512 2090.36,460.225 2100.39,427.505 2110.43,397.913 2122.49,366.03 2134.55,337.772 2144.75,316.466 2154.95,297.359 2166.03,278.942 2177.1,262.824 2187.32,249.898 2197.53,238.745 2208.48,228.68 2219.43,220.502 2232.11,213.304 2244.8,208.471 2256.07,206.106 2267.35,205.513 2277.23,206.425 2287.12,208.653 2297.9,212.564 2308.67,218.003 2319.52,225.004 2330.36,233.527 2342.35,244.715 2354.33,257.753 2365.74,271.877 2377.15,287.681 2389.01,305.906 2400.87,325.973 2410.85,344.306 2420.83,363.973 2433.02,389.816 2445.21,417.708 2456.37,445.095 2467.54,474.276 2477.85,502.858 2488.16,533.048 2498.61,565.311 2509.05,599.318 2520.76,639.573 2532.47,682.181 2543.08,722.906 2553.68,765.732 2565.83,817.471 2577.97,872.257 2589.22,925.87 2600.47,982.437 2611.55,1041.3 2622.64,1103.47 2633.4,1167.24 2644.17,1234.69 2655.2,1308.02 2666.24,1386.05 2672.28,1431.01 2678.33,1477.68 2684.37,1526.19 2690.42,1576.73 2694.81,1614.81 2699.2,1654.14 2703.59,1694.84 2707.98,1737.02 2712.37,1780.85 2716.76,1826.5 2721.15,1874.22 2725.55,1924.35 2727.35,1945.71 2729.15,1967.61 2730.95,1990.09 2732.75,2013.25 "/>
<circle clip-path="url(#clip614)" cx="2265.52" cy="205.49" r="14.4" fill="#2070b5" fill-rule="evenodd" fill-opacity="1" stroke="none"/>
<polyline clip-path="url(#clip614)" style="stroke:#074593; stroke-linecap:round; stroke-linejoin:round; stroke-width:8; stroke-opacity:1; fill:none" points="2065.95,556.108 2067.03,551.925 2068.12,547.768 2069.2,543.636 2070.29,539.531 2080.32,502.786 2090.36,468.193 2100.39,435.706 2110.43,405.279 2122.49,371.377 2134.55,340.33 2144.75,316.264 2154.95,294.164 2166.03,272.351 2177.1,252.79 2187.32,236.724 2197.53,222.522 2208.48,209.344 2219.43,198.262 2232.11,188.015 2244.8,180.526 2256.07,176.164 2267.35,173.943 2277.23,173.747 2287.12,175.18 2297.9,178.59 2308.67,183.92 2319.52,191.214 2330.36,200.44 2342.35,212.886 2354.33,227.689 2365.74,243.961 2377.15,262.369 2389.01,283.776 2400.87,307.502 2410.85,329.276 2420.83,352.704 2433.02,383.558 2445.21,416.903 2456.37,449.649 2467.54,484.513 2477.85,518.609 2488.16,554.542 2498.61,592.828 2509.05,633.034 2520.76,680.398 2532.47,730.228 2543.08,777.539 2553.68,826.929 2565.83,886.067 2577.97,948.016 2589.22,1007.93 2600.47,1070.34 2611.55,1134.36 2622.64,1200.9 2633.4,1267.98 2644.17,1337.55 2655.2,1411.5 2666.24,1488.2 2678.33,1575.46 2690.42,1666.21 2699.2,1734.38 2707.98,1804.5 2716.76,1876.62 2725.55,1950.8 2727.35,1966.27 2729.15,1981.84 2730.95,1997.5 2732.75,2013.25 "/>
<circle clip-path="url(#clip614)" cx="2273.47" cy="173.63" r="14.4" fill="#074593" fill-rule="evenodd" fill-opacity="1" stroke="none"/>
<polyline clip-path="url(#clip614)" style="stroke:#000000; stroke-linecap:round; stroke-linejoin:round; stroke-width:8; stroke-opacity:1; fill:none" stroke-dasharray="32, 20" points="2276.2,1133.99 2276.2,-448.255 "/>
<path clip-path="url(#clip610)" d="M2483.21 448.838 L2729.2 448.838 L2729.2 96.7404 L2483.21 96.7404  Z" fill="#ffffff" fill-rule="evenodd" fill-opacity="1"/>
<polyline clip-path="url(#clip610)" style="stroke:#000000; stroke-linecap:round; stroke-linejoin:round; stroke-width:4; stroke-opacity:1; fill:none" points="2483.21,448.838 2729.2,448.838 2729.2,96.7404 2483.21,96.7404 2483.21,448.838 "/>
<polyline clip-path="url(#clip610)" style="stroke:#9ec9e0; stroke-linecap:round; stroke-linejoin:round; stroke-width:8; stroke-opacity:1; fill:none" points="2491.06,147.04 2538.19,147.04 "/>
<g clip-path="url(#clip610)">
<text style="fill:#000000; fill-opacity:1; font-family:Arial,Helvetica Neue,Helvetica,sans-serif; font-size:48px; text-anchor:start;" transform="rotate(0, 2546.04, 164.54)" x="2546.04" y="164.54">ω = 0.1</text>
</g>
<polyline clip-path="url(#clip610)" style="stroke:#6badd5; stroke-linecap:round; stroke-linejoin:round; stroke-width:8; stroke-opacity:1; fill:none" points="2491.06,197.34 2538.19,197.34 "/>
<g clip-path="url(#clip610)">
<text style="fill:#000000; fill-opacity:1; font-family:Arial,Helvetica Neue,Helvetica,sans-serif; font-size:48px; text-anchor:start;" transform="rotate(0, 2546.04, 214.84)" x="2546.04" y="214.84">ω = 0.5</text>
</g>
<polyline clip-path="url(#clip610)" style="stroke:#4292c5; stroke-linecap:round; stroke-linejoin:round; stroke-width:8; stroke-opacity:1; fill:none" points="2491.06,247.64 2538.19,247.64 "/>
<g clip-path="url(#clip610)">
<text style="fill:#000000; fill-opacity:1; font-family:Arial,Helvetica Neue,Helvetica,sans-serif; font-size:48px; text-anchor:start;" transform="rotate(0, 2546.04, 265.14)" x="2546.04" y="265.14">ω = 1.0</text>
</g>
<polyline clip-path="url(#clip610)" style="stroke:#2070b5; stroke-linecap:round; stroke-linejoin:round; stroke-width:8; stroke-opacity:1; fill:none" points="2491.06,297.939 2538.19,297.939 "/>
<g clip-path="url(#clip610)">
<text style="fill:#000000; fill-opacity:1; font-family:Arial,Helvetica Neue,Helvetica,sans-serif; font-size:48px; text-anchor:start;" transform="rotate(0, 2546.04, 315.439)" x="2546.04" y="315.439">ω = 2.0</text>
</g>
<polyline clip-path="url(#clip610)" style="stroke:#074593; stroke-linecap:round; stroke-linejoin:round; stroke-width:8; stroke-opacity:1; fill:none" points="2491.06,348.239 2538.19,348.239 "/>
<g clip-path="url(#clip610)">
<text style="fill:#000000; fill-opacity:1; font-family:Arial,Helvetica Neue,Helvetica,sans-serif; font-size:48px; text-anchor:start;" transform="rotate(0, 2546.04, 365.739)" x="2546.04" y="365.739">ω = 10.0</text>
</g>
<polyline clip-path="url(#clip610)" style="stroke:#000000; stroke-linecap:round; stroke-linejoin:round; stroke-width:8; stroke-opacity:1; fill:none" stroke-dasharray="32, 20" points="2491.06,398.539 2538.19,398.539 "/>
<g clip-path="url(#clip610)">
<text style="fill:#000000; fill-opacity:1; font-family:Arial,Helvetica Neue,Helvetica,sans-serif; font-size:48px; text-anchor:start;" transform="rotate(0, 2546.04, 416.039)" x="2546.04" y="416.039">q̂</text>
</g>
</svg>
